STARTFONT 2.1
COMMENT
COMMENT Converted from OpenType font "Montserrat-Medium.otf" by "otf2bdf 3.0".
COMMENT
FONT -FreeType-Montserrat Medium-Medium-R-Normal--19-140-100-100-P-108-ISO10646-1
SIZE 14 100 100
FONTBOUNDINGBOX 47 26 -16 -5
STARTPROPERTIES 19
FOUNDRY "FreeType"
FAMILY_NAME "Montserrat Medium"
WEIGHT_NAME "Medium"
SLANT "R"
SETWIDTH_NAME "Normal"
ADD_STYLE_NAME ""
PIXEL_SIZE 19
POINT_SIZE 140
RESOLUTION_X 100
RESOLUTION_Y 100
SPACING "P"
AVERAGE_WIDTH 108
CHARSET_REGISTRY "ISO10646"
CHARSET_ENCODING "1"
FONT_ASCENT 18
FONT_DESCENT 4
COPYRIGHT "Copyright 2011 The Montserrat Project Authors (https://github.com/JulietaUla/Montserrat)"
_OTF_FONTFILE "Montserrat-Medium.otf"
_OTF_PSNAME "Montserrat-Medium"
ENDPROPERTIES
CHARS 969
STARTCHAR 0000
ENCODING 0
SWIDTH 0 0
DWIDTH 0 0
BBX 0 0 0 0
BITMAP
ENDCHAR
STARTCHAR 000D
ENCODING 13
SWIDTH 257 0
DWIDTH 5 0
BBX 0 0 0 0
BITMAP
ENDCHAR
STARTCHAR 0020
ENCODING 32
SWIDTH 257 0
DWIDTH 5 0
BBX 0 0 0 0
BITMAP
ENDCHAR
STARTCHAR 0021
ENCODING 33
SWIDTH 257 0
DWIDTH 5 0
BBX 3 14 1 0
BITMAP
60
60
60
60
60
40
40
40
40
40
00
00
E0
60
ENDCHAR
STARTCHAR 0022
ENCODING 34
SWIDTH 411 0
DWIDTH 8 0
BBX 5 5 1 9
BITMAP
C8
C8
C8
C8
C8
ENDCHAR
STARTCHAR 0023
ENCODING 35
SWIDTH 720 0
DWIDTH 14 0
BBX 12 14 1 0
BITMAP
18C0
18C0
18C0
1080
FFF0
1080
1080
1080
3180
FFF0
3180
2180
2100
2100
ENDCHAR
STARTCHAR 0024
ENCODING 36
SWIDTH 617 0
DWIDTH 12 0
BBX 10 18 1 -2
BITMAP
0400
0400
3F00
7FC0
E400
C400
C400
E400
7E00
1F80
05C0
04C0
04C0
C4C0
FF80
3F00
0400
0400
ENDCHAR
STARTCHAR 0025
ENCODING 37
SWIDTH 822 0
DWIDTH 16 0
BBX 15 14 1 0
BITMAP
7810
CC30
8460
8440
84C0
CD80
7900
0338
0644
04C6
0CC6
18C6
1044
3038
ENDCHAR
STARTCHAR 0026
ENCODING 38
SWIDTH 668 0
DWIDTH 13 0
BBX 12 14 1 0
BITMAP
1E00
3300
2180
2180
3300
1E00
1C00
7E00
C720
C3E0
C1C0
C0E0
7FF0
3E20
ENDCHAR
STARTCHAR 0027
ENCODING 39
SWIDTH 205 0
DWIDTH 4 0
BBX 2 5 1 9
BITMAP
C0
C0
C0
C0
C0
ENDCHAR
STARTCHAR 0028
ENCODING 40
SWIDTH 360 0
DWIDTH 7 0
BBX 4 19 2 -4
BITMAP
30
60
60
40
C0
C0
C0
C0
C0
C0
C0
C0
C0
C0
C0
40
60
60
30
ENDCHAR
STARTCHAR 0029
ENCODING 41
SWIDTH 360 0
DWIDTH 7 0
BBX 4 19 1 -4
BITMAP
C0
C0
60
60
60
20
30
30
30
30
30
30
30
20
60
60
60
C0
C0
ENDCHAR
STARTCHAR 002A
ENCODING 42
SWIDTH 411 0
DWIDTH 8 0
BBX 7 8 0 7
BITMAP
10
10
F6
3C
3C
D6
10
10
ENDCHAR
STARTCHAR 002B
ENCODING 43
SWIDTH 565 0
DWIDTH 11 0
BBX 9 8 1 3
BITMAP
0800
0800
0800
FF80
FF80
0800
0800
0800
ENDCHAR
STARTCHAR 002C
ENCODING 44
SWIDTH 205 0
DWIDTH 4 0
BBX 2 5 1 -3
BITMAP
C0
C0
40
C0
80
ENDCHAR
STARTCHAR 002D
ENCODING 45
SWIDTH 360 0
DWIDTH 7 0
BBX 5 2 1 4
BITMAP
F8
F8
ENDCHAR
STARTCHAR 002E
ENCODING 46
SWIDTH 205 0
DWIDTH 4 0
BBX 2 3 1 0
BITMAP
40
C0
C0
ENDCHAR
STARTCHAR 002F
ENCODING 47
SWIDTH 360 0
DWIDTH 7 0
BBX 7 18 0 -2
BITMAP
02
06
06
04
0C
0C
18
18
10
30
30
20
60
60
40
C0
C0
80
ENDCHAR
STARTCHAR 0030
ENCODING 48
SWIDTH 668 0
DWIDTH 13 0
BBX 11 14 1 0
BITMAP
1F00
3F80
60C0
60C0
C060
C060
C060
C060
C060
C060
60C0
60C0
3F80
1F00
ENDCHAR
STARTCHAR 0031
ENCODING 49
SWIDTH 360 0
DWIDTH 7 0
BBX 5 14 0 0
BITMAP
F8
F8
18
18
18
18
18
18
18
18
18
18
18
18
ENDCHAR
STARTCHAR 0032
ENCODING 50
SWIDTH 565 0
DWIDTH 11 0
BBX 9 14 1 0
BITMAP
7E00
FF00
8380
0180
0180
0180
0300
0600
0C00
1800
3000
6000
FF80
FF80
ENDCHAR
STARTCHAR 0033
ENCODING 51
SWIDTH 565 0
DWIDTH 11 0
BBX 10 14 0 0
BITMAP
7FC0
7FC0
0180
0300
0600
0E00
0F00
0F80
00C0
00C0
00C0
40C0
FF80
3F00
ENDCHAR
STARTCHAR 0034
ENCODING 52
SWIDTH 668 0
DWIDTH 13 0
BBX 12 14 1 0
BITMAP
0300
0300
0600
0C00
1800
1800
3180
6180
C180
FFF0
FFF0
0180
0180
0180
ENDCHAR
STARTCHAR 0035
ENCODING 53
SWIDTH 565 0
DWIDTH 11 0
BBX 10 14 0 0
BITMAP
3FC0
3FC0
3000
2000
2000
7E00
7F80
01C0
00C0
0040
00C0
40C0
FF80
3F00
ENDCHAR
STARTCHAR 0036
ENCODING 54
SWIDTH 617 0
DWIDTH 12 0
BBX 10 14 1 0
BITMAP
0F80
3F80
7000
6000
C000
C600
DF80
F1C0
E0C0
C040
C0C0
60C0
3F80
1F00
ENDCHAR
STARTCHAR 0037
ENCODING 55
SWIDTH 617 0
DWIDTH 12 0
BBX 10 14 1 0
BITMAP
FFC0
FFC0
8180
8180
0300
0300
0300
0600
0600
0C00
0C00
1800
1800
3800
ENDCHAR
STARTCHAR 0038
ENCODING 56
SWIDTH 668 0
DWIDTH 13 0
BBX 11 14 1 0
BITMAP
1F00
7F80
60C0
C0C0
C0C0
61C0
3F80
7BC0
C0C0
C060
C060
C0C0
7FC0
3F00
ENDCHAR
STARTCHAR 0039
ENCODING 57
SWIDTH 617 0
DWIDTH 12 0
BBX 10 14 1 0
BITMAP
3E00
7F00
C180
C0C0
80C0
C1C0
E3C0
7EC0
18C0
00C0
0180
0380
7F00
7C00
ENDCHAR
STARTCHAR 003A
ENCODING 58
SWIDTH 205 0
DWIDTH 4 0
BBX 2 11 1 0
BITMAP
C0
C0
40
00
00
00
00
00
40
C0
C0
ENDCHAR
STARTCHAR 003B
ENCODING 59
SWIDTH 205 0
DWIDTH 4 0
BBX 2 13 1 -2
BITMAP
C0
C0
40
00
00
00
00
00
C0
C0
40
C0
C0
ENDCHAR
STARTCHAR 003C
ENCODING 60
SWIDTH 565 0
DWIDTH 11 0
BBX 9 8 1 2
BITMAP
0080
0780
1E00
F000
E000
7800
0F00
0380
ENDCHAR
STARTCHAR 003D
ENCODING 61
SWIDTH 565 0
DWIDTH 11 0
BBX 9 6 1 4
BITMAP
FF80
FF80
0000
0000
FF80
FF80
ENDCHAR
STARTCHAR 003E
ENCODING 62
SWIDTH 565 0
DWIDTH 11 0
BBX 9 8 1 2
BITMAP
C000
F000
1E00
0780
0180
0F00
7C00
E000
ENDCHAR
STARTCHAR 003F
ENCODING 63
SWIDTH 565 0
DWIDTH 11 0
BBX 9 14 1 0
BITMAP
7E00
FF00
8380
0180
0180
0300
0600
0C00
0C00
1800
0000
0000
1C00
1800
ENDCHAR
STARTCHAR 0040
ENCODING 64
SWIDTH 1028 0
DWIDTH 20 0
BBX 18 18 1 -4
BITMAP
03F000
0E1C00
380300
200180
63EC80
47FCC0
CE1C40
8C0C40
8C0C40
8C0C40
8C0C40
CE1CC0
47FF80
63E700
200000
180000
0E1800
03F000
ENDCHAR
STARTCHAR 0041
ENCODING 65
SWIDTH 720 0
DWIDTH 14 0
BBX 14 14 0 0
BITMAP
0300
0780
0780
04C0
0CC0
0C40
1860
1860
3030
3FF0
3FF8
6018
600C
C00C
ENDCHAR
STARTCHAR 0042
ENCODING 66
SWIDTH 771 0
DWIDTH 15 0
BBX 12 14 2 0
BITMAP
FF80
FFC0
C060
C060
C060
C0C0
FF80
FFE0
C060
C030
C030
C070
FFE0
FFC0
ENDCHAR
STARTCHAR 0043
ENCODING 67
SWIDTH 720 0
DWIDTH 14 0
BBX 12 14 1 0
BITMAP
0FC0
1FF0
7030
6000
C000
C000
C000
C000
C000
C000
6000
7030
1FF0
0FC0
ENDCHAR
STARTCHAR 0044
ENCODING 68
SWIDTH 822 0
DWIDTH 16 0
BBX 13 14 2 0
BITMAP
FF80
FFE0
C070
C030
C018
C018
C018
C018
C018
C018
C030
C070
FFE0
FF80
ENDCHAR
STARTCHAR 0045
ENCODING 69
SWIDTH 668 0
DWIDTH 13 0
BBX 10 14 2 0
BITMAP
FFC0
FFC0
C000
C000
C000
C000
FF80
FF80
C000
C000
C000
C000
FFC0
FFC0
ENDCHAR
STARTCHAR 0046
ENCODING 70
SWIDTH 617 0
DWIDTH 12 0
BBX 10 14 2 0
BITMAP
FFC0
FFC0
C000
C000
C000
C000
FF80
FF80
C000
C000
C000
C000
C000
C000
ENDCHAR
STARTCHAR 0047
ENCODING 71
SWIDTH 771 0
DWIDTH 15 0
BBX 12 14 1 0
BITMAP
0FC0
1FF0
3030
6000
C000
C000
C000
C030
C030
C030
6030
7030
1FF0
0FC0
ENDCHAR
STARTCHAR 0048
ENCODING 72
SWIDTH 822 0
DWIDTH 16 0
BBX 12 14 2 0
BITMAP
C030
C030
C030
C030
C030
C030
FFF0
FFF0
C030
C030
C030
C030
C030
C030
ENDCHAR
STARTCHAR 0049
ENCODING 73
SWIDTH 308 0
DWIDTH 6 0
BBX 2 14 2 0
BITMAP
C0
C0
C0
C0
C0
C0
C0
C0
C0
C0
C0
C0
C0
C0
ENDCHAR
STARTCHAR 004A
ENCODING 74
SWIDTH 514 0
DWIDTH 10 0
BBX 8 14 0 0
BITMAP
7F
7F
03
03
03
03
03
03
03
03
03
C3
FE
3C
ENDCHAR
STARTCHAR 004B
ENCODING 75
SWIDTH 720 0
DWIDTH 14 0
BBX 12 14 2 0
BITMAP
C060
C0C0
C180
C300
C600
CE00
DC00
FE00
F700
E300
C180
C0C0
C0E0
C070
ENDCHAR
STARTCHAR 004C
ENCODING 76
SWIDTH 617 0
DWIDTH 12 0
BBX 9 14 2 0
BITMAP
C000
C000
C000
C000
C000
C000
C000
C000
C000
C000
C000
C000
FF80
FF80
ENDCHAR
STARTCHAR 004D
ENCODING 77
SWIDTH 977 0
DWIDTH 19 0
BBX 15 14 2 0
BITMAP
C006
C00E
E01E
F01E
F036
D836
D866
CC46
C6C6
C786
C386
C306
C006
C006
ENDCHAR
STARTCHAR 004E
ENCODING 78
SWIDTH 822 0
DWIDTH 16 0
BBX 12 14 2 0
BITMAP
C030
E030
F030
F030
D830
DC30
CE30
C630
C330
C1B0
C1F0
C0F0
C070
C030
ENDCHAR
STARTCHAR 004F
ENCODING 79
SWIDTH 822 0
DWIDTH 16 0
BBX 14 14 1 0
BITMAP
0FC0
1FF0
3038
601C
C00C
C00C
C00C
C00C
C00C
C00C
601C
3038
1FF0
0FC0
ENDCHAR
STARTCHAR 0050
ENCODING 80
SWIDTH 720 0
DWIDTH 14 0
BBX 11 14 2 0
BITMAP
FF00
FFC0
C0C0
C060
C060
C060
C060
C0C0
FF80
FE00
C000
C000
C000
C000
ENDCHAR
STARTCHAR 0051
ENCODING 81
SWIDTH 822 0
DWIDTH 16 0
BBX 15 17 1 -3
BITMAP
0FC0
1FF0
3038
6018
C00C
C00C
C00C
C00C
C00C
C00C
601C
7038
3FF0
0FE0
0180
00FE
007C
ENDCHAR
STARTCHAR 0052
ENCODING 82
SWIDTH 720 0
DWIDTH 14 0
BBX 11 14 2 0
BITMAP
FF00
FFC0
C0C0
C060
C060
C060
C060
C0C0
FF80
FF00
C180
C1C0
C0C0
C060
ENDCHAR
STARTCHAR 0053
ENCODING 83
SWIDTH 617 0
DWIDTH 12 0
BBX 10 14 1 0
BITMAP
3F00
7FC0
E000
C000
C000
E000
7C00
1F80
01C0
00C0
00C0
C0C0
FF80
3F00
ENDCHAR
STARTCHAR 0054
ENCODING 84
SWIDTH 565 0
DWIDTH 11 0
BBX 11 14 0 0
BITMAP
FFE0
FFE0
0600
0600
0600
0600
0600
0600
0600
0600
0600
0600
0600
0600
ENDCHAR
STARTCHAR 0055
ENCODING 85
SWIDTH 771 0
DWIDTH 15 0
BBX 11 14 2 0
BITMAP
C020
C020
C020
C020
C020
C020
C020
C020
C020
C060
C060
60E0
7FC0
1F00
ENDCHAR
STARTCHAR 0056
ENCODING 86
SWIDTH 720 0
DWIDTH 14 0
BBX 14 14 0 0
BITMAP
C00C
6018
6018
7030
3030
3030
1860
1860
0CC0
0CC0
0F80
0780
0780
0300
ENDCHAR
STARTCHAR 0057
ENCODING 87
SWIDTH 1131 0
DWIDTH 22 0
BBX 20 14 1 0
BITMAP
C06030
C06030
C0F020
60F060
609060
619840
3198C0
3108C0
330C80
1B0D80
1A0580
1E0780
0E0700
0C0300
ENDCHAR
STARTCHAR 0058
ENCODING 88
SWIDTH 668 0
DWIDTH 13 0
BBX 11 14 1 0
BITMAP
C060
60C0
70C0
3180
1B00
1F00
0E00
0E00
1B00
3B80
3180
60C0
E060
C060
ENDCHAR
STARTCHAR 0059
ENCODING 89
SWIDTH 668 0
DWIDTH 13 0
BBX 12 14 0 0
BITMAP
C030
6030
6060
3060
18C0
1980
0D80
0F00
0700
0600
0600
0600
0600
0600
ENDCHAR
STARTCHAR 005A
ENCODING 90
SWIDTH 668 0
DWIDTH 13 0
BBX 11 14 1 0
BITMAP
FFE0
FFE0
00C0
0180
0300
0700
0600
0C00
1800
3800
3000
6000
FFE0
FFE0
ENDCHAR
STARTCHAR 005B
ENCODING 91
SWIDTH 308 0
DWIDTH 6 0
BBX 4 19 2 -4
BITMAP
F0
F0
C0
C0
C0
C0
C0
C0
C0
C0
C0
C0
C0
C0
C0
C0
C0
F0
F0
ENDCHAR
STARTCHAR 005C
ENCODING 92
SWIDTH 360 0
DWIDTH 7 0
BBX 7 18 0 -2
BITMAP
80
C0
C0
40
60
60
20
30
30
10
18
18
08
0C
0C
04
06
06
ENDCHAR
STARTCHAR 005D
ENCODING 93
SWIDTH 308 0
DWIDTH 6 0
BBX 4 19 0 -4
BITMAP
F0
F0
10
10
10
10
10
10
10
10
10
10
10
10
10
10
10
F0
F0
ENDCHAR
STARTCHAR 005E
ENCODING 94
SWIDTH 565 0
DWIDTH 11 0
BBX 8 8 2 3
BITMAP
18
38
2C
6C
44
46
C2
83
ENDCHAR
STARTCHAR 005F
ENCODING 95
SWIDTH 514 0
DWIDTH 10 0
BBX 10 1 0 -1
BITMAP
FFC0
ENDCHAR
STARTCHAR 0060
ENCODING 96
SWIDTH 617 0
DWIDTH 12 0
BBX 5 3 2 12
BITMAP
E0
30
18
ENDCHAR
STARTCHAR 0061
ENCODING 97
SWIDTH 617 0
DWIDTH 12 0
BBX 9 11 1 0
BITMAP
3E00
FF00
0180
0180
0180
7F80
C180
C180
C180
E780
3D80
ENDCHAR
STARTCHAR 0062
ENCODING 98
SWIDTH 668 0
DWIDTH 13 0
BBX 10 15 2 0
BITMAP
C000
C000
C000
C000
DF00
FF80
E1C0
C0C0
C0C0
C040
C0C0
C0C0
E1C0
FF80
DF00
ENDCHAR
STARTCHAR 0063
ENCODING 99
SWIDTH 565 0
DWIDTH 11 0
BBX 9 11 1 0
BITMAP
1F00
7F80
6180
C000
C000
C000
C000
C000
6180
7F80
1F00
ENDCHAR
STARTCHAR 0064
ENCODING 100
SWIDTH 668 0
DWIDTH 13 0
BBX 10 15 1 0
BITMAP
0040
0040
0040
0040
1E40
7F40
61C0
C0C0
C040
C040
C040
C0C0
61C0
7F40
1E40
ENDCHAR
STARTCHAR 0065
ENCODING 101
SWIDTH 617 0
DWIDTH 12 0
BBX 10 11 1 0
BITMAP
1E00
7F80
6180
C0C0
C0C0
FFC0
C000
C000
6080
7F80
1F00
ENDCHAR
STARTCHAR 0066
ENCODING 102
SWIDTH 360 0
DWIDTH 7 0
BBX 7 15 0 0
BITMAP
1E
3E
30
30
FE
FE
30
30
30
30
30
30
30
30
30
ENDCHAR
STARTCHAR 0067
ENCODING 103
SWIDTH 668 0
DWIDTH 13 0
BBX 11 15 1 -4
BITMAP
1E60
7FE0
E0E0
C0E0
C060
C060
C060
C0E0
61E0
3F60
0C60
0040
40C0
FF80
3F00
ENDCHAR
STARTCHAR 0068
ENCODING 104
SWIDTH 668 0
DWIDTH 13 0
BBX 10 15 2 0
BITMAP
C000
C000
C000
C000
DE00
FF80
E180
C180
C0C0
C0C0
C0C0
C0C0
C0C0
C0C0
C0C0
ENDCHAR
STARTCHAR 0069
ENCODING 105
SWIDTH 257 0
DWIDTH 5 0
BBX 3 15 1 0
BITMAP
E0
60
00
00
60
60
60
60
60
60
60
60
60
60
60
ENDCHAR
STARTCHAR 006A
ENCODING 106
SWIDTH 308 0
DWIDTH 6 0
BBX 6 19 -2 -4
BITMAP
0C
0C
00
00
0C
0C
0C
0C
0C
0C
0C
0C
0C
0C
0C
0C
0C
78
F0
ENDCHAR
STARTCHAR 006B
ENCODING 107
SWIDTH 617 0
DWIDTH 12 0
BBX 10 15 2 0
BITMAP
C000
C000
C000
C000
C180
C300
C600
CC00
D800
FC00
EE00
C600
C300
C180
C1C0
ENDCHAR
STARTCHAR 006C
ENCODING 108
SWIDTH 257 0
DWIDTH 5 0
BBX 2 15 2 0
BITMAP
C0
C0
C0
C0
C0
C0
C0
C0
C0
C0
C0
C0
C0
C0
C0
ENDCHAR
STARTCHAR 006D
ENCODING 109
SWIDTH 1080 0
DWIDTH 21 0
BBX 17 11 2 0
BITMAP
DE3E00
FF7F00
E1C380
C1C180
C18180
C18180
C18180
C18180
C18180
C18180
C18180
ENDCHAR
STARTCHAR 006E
ENCODING 110
SWIDTH 668 0
DWIDTH 13 0
BBX 10 11 2 0
BITMAP
DE00
FF80
E180
C180
C0C0
C0C0
C0C0
C0C0
C0C0
C0C0
C0C0
ENDCHAR
STARTCHAR 006F
ENCODING 111
SWIDTH 617 0
DWIDTH 12 0
BBX 11 11 1 0
BITMAP
1F00
7F80
61C0
C0C0
C040
C060
C040
C0C0
61C0
7F80
1F00
ENDCHAR
STARTCHAR 0070
ENCODING 112
SWIDTH 668 0
DWIDTH 13 0
BBX 10 15 2 -4
BITMAP
DF00
FF80
E1C0
C0C0
C0C0
C040
C0C0
C0C0
E1C0
FF80
DF00
C000
C000
C000
C000
ENDCHAR
STARTCHAR 0071
ENCODING 113
SWIDTH 668 0
DWIDTH 13 0
BBX 10 15 1 -4
BITMAP
1E40
7F40
61C0
C0C0
C040
C040
C040
C0C0
61C0
7F40
1E40
0040
0040
0040
0040
ENDCHAR
STARTCHAR 0072
ENCODING 114
SWIDTH 411 0
DWIDTH 8 0
BBX 5 11 2 0
BITMAP
D8
F8
E0
C0
C0
C0
C0
C0
C0
C0
C0
ENDCHAR
STARTCHAR 0073
ENCODING 115
SWIDTH 514 0
DWIDTH 10 0
BBX 8 11 1 0
BITMAP
3E
FF
C0
C0
E0
7E
0F
03
83
FF
7C
ENDCHAR
STARTCHAR 0074
ENCODING 116
SWIDTH 411 0
DWIDTH 8 0
BBX 7 13 0 0
BITMAP
30
30
FE
FE
30
30
30
30
30
30
30
3E
1E
ENDCHAR
STARTCHAR 0075
ENCODING 117
SWIDTH 668 0
DWIDTH 13 0
BBX 9 11 2 0
BITMAP
C180
C180
C180
C180
C180
C180
C180
C180
C180
7E80
3C80
ENDCHAR
STARTCHAR 0076
ENCODING 118
SWIDTH 565 0
DWIDTH 11 0
BBX 11 11 0 0
BITMAP
C060
40C0
60C0
6080
3180
3180
1300
1B00
1A00
0E00
0E00
ENDCHAR
STARTCHAR 0077
ENCODING 119
SWIDTH 874 0
DWIDTH 17 0
BBX 17 11 0 0
BITMAP
C0C080
41C180
61C100
616300
236300
332200
323600
163600
1E1400
1C1C00
0C0C00
ENDCHAR
STARTCHAR 0078
ENCODING 120
SWIDTH 565 0
DWIDTH 11 0
BBX 9 11 1 0
BITMAP
C180
6300
6600
3600
1C00
1800
1C00
3600
6300
C300
C180
ENDCHAR
STARTCHAR 0079
ENCODING 121
SWIDTH 565 0
DWIDTH 11 0
BBX 11 15 0 -4
BITMAP
C060
60C0
60C0
6080
3180
3180
1B00
1B00
1A00
0E00
0E00
0C00
0C00
F800
F000
ENDCHAR
STARTCHAR 007A
ENCODING 122
SWIDTH 514 0
DWIDTH 10 0
BBX 8 11 1 0
BITMAP
FF
FF
06
0E
0C
18
30
70
60
FF
FF
ENDCHAR
STARTCHAR 007B
ENCODING 123
SWIDTH 360 0
DWIDTH 7 0
BBX 5 19 1 -4
BITMAP
18
38
30
30
30
30
30
30
E0
E0
20
30
30
30
30
30
30
38
18
ENDCHAR
STARTCHAR 007C
ENCODING 124
SWIDTH 308 0
DWIDTH 6 0
BBX 2 19 2 -4
BITMAP
C0
C0
C0
C0
C0
C0
C0
C0
C0
C0
C0
C0
C0
C0
C0
C0
C0
C0
C0
ENDCHAR
STARTCHAR 007D
ENCODING 125
SWIDTH 360 0
DWIDTH 7 0
BBX 6 19 0 -4
BITMAP
E0
F0
30
30
30
30
30
30
3C
1C
30
30
30
30
30
30
30
F0
E0
ENDCHAR
STARTCHAR 007E
ENCODING 126
SWIDTH 565 0
DWIDTH 11 0
BBX 9 3 1 5
BITMAP
7880
CD80
8700
ENDCHAR
STARTCHAR 00A0
ENCODING 160
SWIDTH 257 0
DWIDTH 5 0
BBX 0 0 0 0
BITMAP
ENDCHAR
STARTCHAR 00A1
ENCODING 161
SWIDTH 257 0
DWIDTH 5 0
BBX 3 13 1 -2
BITMAP
60
E0
00
00
40
40
40
40
40
60
60
60
60
ENDCHAR
STARTCHAR 00A2
ENCODING 162
SWIDTH 565 0
DWIDTH 11 0
BBX 9 15 1 -2
BITMAP
0C00
0C00
0C00
3F00
7D80
CC00
CC00
CC00
CC00
CC00
EC80
7F80
1F00
0C00
0C00
ENDCHAR
STARTCHAR 00A3
ENCODING 163
SWIDTH 668 0
DWIDTH 13 0
BBX 11 14 1 0
BITMAP
07C0
1FE0
3820
3000
3000
3000
3000
FF80
3000
3000
3000
3000
FFE0
FFE0
ENDCHAR
STARTCHAR 00A4
ENCODING 164
SWIDTH 720 0
DWIDTH 14 0
BBX 12 12 1 0
BITMAP
C730
FFE0
60C0
6060
4060
4020
4060
6060
60C0
7FE0
CF70
8020
ENDCHAR
STARTCHAR 00A5
ENCODING 165
SWIDTH 720 0
DWIDTH 14 0
BBX 13 14 0 0
BITMAP
C018
6018
3030
3060
1860
0CC0
0D80
0780
3FF0
0300
0300
3FF0
0300
0300
ENDCHAR
STARTCHAR 00A6
ENCODING 166
SWIDTH 308 0
DWIDTH 6 0
BBX 2 19 2 -4
BITMAP
C0
C0
C0
C0
C0
C0
C0
00
00
00
00
00
C0
C0
C0
C0
C0
C0
C0
ENDCHAR
STARTCHAR 00A7
ENCODING 167
SWIDTH 514 0
DWIDTH 10 0
BBX 8 16 1 -2
BITMAP
3E
7F
C0
C0
E0
7C
CF
83
C3
E3
3E
06
03
03
EE
7C
ENDCHAR
STARTCHAR 00A8
ENCODING 168
SWIDTH 617 0
DWIDTH 12 0
BBX 6 2 3 12
BITMAP
C8
CC
ENDCHAR
STARTCHAR 00A9
ENCODING 169
SWIDTH 822 0
DWIDTH 16 0
BBX 14 14 1 0
BITMAP
0F80
1060
2010
4788
8CC8
9804
9004
9004
9808
8CC8
4788
2010
1060
0F80
ENDCHAR
STARTCHAR 00AA
ENCODING 170
SWIDTH 411 0
DWIDTH 8 0
BBX 6 7 1 8
BITMAP
F8
88
0C
FC
8C
8C
FC
ENDCHAR
STARTCHAR 00AB
ENCODING 171
SWIDTH 514 0
DWIDTH 10 0
BBX 8 7 1 2
BITMAP
33
26
64
CC
CC
66
33
ENDCHAR
STARTCHAR 00AC
ENCODING 172
SWIDTH 565 0
DWIDTH 11 0
BBX 9 5 1 3
BITMAP
FF80
FF80
0180
0180
0180
ENDCHAR
STARTCHAR 00AD
ENCODING 173
SWIDTH 360 0
DWIDTH 7 0
BBX 5 2 1 4
BITMAP
F8
F8
ENDCHAR
STARTCHAR 00AE
ENCODING 174
SWIDTH 822 0
DWIDTH 16 0
BBX 14 14 1 0
BITMAP
0F80
3060
6010
4F88
8848
8844
8844
8F84
8888
88C8
4848
2010
1060
0F80
ENDCHAR
STARTCHAR 00AF
ENCODING 175
SWIDTH 617 0
DWIDTH 12 0
BBX 6 1 3 13
BITMAP
FC
ENDCHAR
STARTCHAR 00B0
ENCODING 176
SWIDTH 411 0
DWIDTH 8 0
BBX 6 6 1 8
BITMAP
78
CC
84
84
CC
78
ENDCHAR
STARTCHAR 00B1
ENCODING 177
SWIDTH 565 0
DWIDTH 11 0
BBX 9 12 1 0
BITMAP
0800
0800
0800
FF80
FF80
0800
0800
0800
0000
0000
FF80
FF80
ENDCHAR
STARTCHAR 00B2
ENCODING 178
SWIDTH 411 0
DWIDTH 8 0
BBX 6 8 1 7
BITMAP
78
8C
04
0C
18
30
60
FC
ENDCHAR
STARTCHAR 00B3
ENCODING 179
SWIDTH 411 0
DWIDTH 8 0
BBX 6 9 1 6
BITMAP
FC
0C
18
10
38
04
04
8C
F8
ENDCHAR
STARTCHAR 00B4
ENCODING 180
SWIDTH 617 0
DWIDTH 12 0
BBX 4 3 5 12
BITMAP
30
60
C0
ENDCHAR
STARTCHAR 00B5
ENCODING 181
SWIDTH 668 0
DWIDTH 13 0
BBX 9 15 2 -4
BITMAP
C080
C080
C080
C080
C080
C080
C080
C180
C180
FF80
FC80
C000
C000
C000
C000
ENDCHAR
STARTCHAR 00B6
ENCODING 182
SWIDTH 668 0
DWIDTH 13 0
BBX 11 17 0 -2
BITMAP
3FE0
7C60
7C60
FC60
FC60
7C60
3C60
0C60
0C60
0C60
0C60
0C60
0C60
0C60
0C60
0C60
0C60
ENDCHAR
STARTCHAR 00B7
ENCODING 183
SWIDTH 257 0
DWIDTH 5 0
BBX 3 3 1 4
BITMAP
40
E0
60
ENDCHAR
STARTCHAR 00B8
ENCODING 184
SWIDTH 617 0
DWIDTH 12 0
BBX 4 4 4 -4
BITMAP
40
60
30
E0
ENDCHAR
STARTCHAR 00B9
ENCODING 185
SWIDTH 411 0
DWIDTH 8 0
BBX 5 8 2 7
BITMAP
E0
20
20
20
20
20
20
F8
ENDCHAR
STARTCHAR 00BA
ENCODING 186
SWIDTH 411 0
DWIDTH 8 0
BBX 6 6 1 9
BITMAP
78
CC
84
84
C4
78
ENDCHAR
STARTCHAR 00BB
ENCODING 187
SWIDTH 514 0
DWIDTH 10 0
BBX 8 7 1 2
BITMAP
C8
4C
66
33
32
66
CC
ENDCHAR
STARTCHAR 00BC
ENCODING 188
SWIDTH 1028 0
DWIDTH 20 0
BBX 18 14 2 0
BITMAP
E00800
201000
203000
202000
204000
20C000
208600
F90400
030C00
021900
041100
0C3FC0
080100
100100
ENDCHAR
STARTCHAR 00BD
ENCODING 189
SWIDTH 1028 0
DWIDTH 20 0
BBX 17 14 2 0
BITMAP
E00800
201000
203000
202000
204000
20DF00
20B100
F90180
030180
020300
040600
0C0C00
081800
101F80
ENDCHAR
STARTCHAR 00BE
ENCODING 190
SWIDTH 1028 0
DWIDTH 20 0
BBX 19 14 1 0
BITMAP
FC0400
080800
101800
381000
042000
046100
844300
F88200
018400
010C80
020880
061FE0
040080
080080
ENDCHAR
STARTCHAR 00BF
ENCODING 191
SWIDTH 565 0
DWIDTH 11 0
BBX 10 14 1 -3
BITMAP
0C00
1C00
0000
0000
0C00
0C00
1800
3000
6000
C000
C000
E0C0
7F80
3F00
ENDCHAR
STARTCHAR 00C0
ENCODING 192
SWIDTH 720 0
DWIDTH 14 0
BBX 14 18 0 0
BITMAP
0C00
0600
0300
0000
0300
0780
0780
04C0
0CC0
0C40
1860
1860
3030
3FF0
3FF8
6018
600C
C00C
ENDCHAR
STARTCHAR 00C1
ENCODING 193
SWIDTH 720 0
DWIDTH 14 0
BBX 14 18 0 0
BITMAP
00E0
0180
0300
0000
0300
0780
0780
04C0
0CC0
0C40
1860
1860
3030
3FF0
3FF8
6018
600C
C00C
ENDCHAR
STARTCHAR 00C2
ENCODING 194
SWIDTH 720 0
DWIDTH 14 0
BBX 14 18 0 0
BITMAP
0300
0780
0CC0
0000
0300
0780
0780
04C0
0CC0
0C40
1860
1860
3030
3FF0
3FF8
6018
600C
C00C
ENDCHAR
STARTCHAR 00C3
ENCODING 195
SWIDTH 720 0
DWIDTH 14 0
BBX 14 18 0 0
BITMAP
0400
0B40
09C0
0000
0300
0780
0780
04C0
0CC0
0C40
1860
1860
3030
3FF0
3FF8
6018
600C
C00C
ENDCHAR
STARTCHAR 00C4
ENCODING 196
SWIDTH 720 0
DWIDTH 14 0
BBX 14 17 0 0
BITMAP
0CC0
0CC0
0000
0300
0780
0780
04C0
0CC0
0C40
1860
1860
3030
3FF0
3FF8
6018
600C
C00C
ENDCHAR
STARTCHAR 00C5
ENCODING 197
SWIDTH 720 0
DWIDTH 14 0
BBX 14 20 0 0
BITMAP
0300
0480
0480
0480
0300
0000
0300
0780
0780
04C0
0CC0
0C40
1860
1860
3030
3FF0
3FF8
6018
600C
C00C
ENDCHAR
STARTCHAR 00C6
ENCODING 198
SWIDTH 1028 0
DWIDTH 20 0
BBX 19 14 0 0
BITMAP
00FFE0
01FFE0
01E000
036000
066000
066000
0C7FC0
0C7FC0
186000
1FE000
3FE000
606000
607FE0
C07FE0
ENDCHAR
STARTCHAR 00C7
ENCODING 199
SWIDTH 720 0
DWIDTH 14 0
BBX 12 18 1 -4
BITMAP
0FC0
1FF0
7030
6000
C000
C000
C000
C000
C000
C000
6000
7030
3FF0
0FC0
0200
0300
0180
0700
ENDCHAR
STARTCHAR 00C8
ENCODING 200
SWIDTH 668 0
DWIDTH 13 0
BBX 10 18 2 0
BITMAP
7000
1800
0C00
0000
FFC0
FFC0
C000
C000
C000
C000
FF80
FF80
C000
C000
C000
C000
FFC0
FFC0
ENDCHAR
STARTCHAR 00C9
ENCODING 201
SWIDTH 668 0
DWIDTH 13 0
BBX 10 18 2 0
BITMAP
0300
0600
0C00
0000
FFC0
FFC0
C000
C000
C000
C000
FF80
FF80
C000
C000
C000
C000
FFC0
FFC0
ENDCHAR
STARTCHAR 00CA
ENCODING 202
SWIDTH 668 0
DWIDTH 13 0
BBX 10 18 2 0
BITMAP
0C00
1E00
3300
0000
FFC0
FFC0
C000
C000
C000
C000
FF80
FF80
C000
C000
C000
C000
FFC0
FFC0
ENDCHAR
STARTCHAR 00CB
ENCODING 203
SWIDTH 668 0
DWIDTH 13 0
BBX 10 17 2 0
BITMAP
3300
3300
0000
FFC0
FFC0
C000
C000
C000
C000
FF80
FF80
C000
C000
C000
C000
FFC0
FFC0
ENDCHAR
STARTCHAR 00CC
ENCODING 204
SWIDTH 308 0
DWIDTH 6 0
BBX 5 18 -1 0
BITMAP
E0
30
18
00
18
18
18
18
18
18
18
18
18
18
18
18
18
18
ENDCHAR
STARTCHAR 00CD
ENCODING 205
SWIDTH 308 0
DWIDTH 6 0
BBX 5 18 2 0
BITMAP
38
60
C0
00
C0
C0
C0
C0
C0
C0
C0
C0
C0
C0
C0
C0
C0
C0
ENDCHAR
STARTCHAR 00CE
ENCODING 206
SWIDTH 308 0
DWIDTH 6 0
BBX 6 18 0 0
BITMAP
30
78
CC
00
30
30
30
30
30
30
30
30
30
30
30
30
30
30
ENDCHAR
STARTCHAR 00CF
ENCODING 207
SWIDTH 308 0
DWIDTH 6 0
BBX 6 17 0 0
BITMAP
CC
CC
00
30
30
30
30
30
30
30
30
30
30
30
30
30
30
ENDCHAR
STARTCHAR 00D0
ENCODING 208
SWIDTH 822 0
DWIDTH 16 0
BBX 15 14 0 0
BITMAP
3FE0
3FF8
301C
300C
3006
3006
FF06
FF06
3006
3006
300C
301C
3FF8
3FE0
ENDCHAR
STARTCHAR 00D1
ENCODING 209
SWIDTH 822 0
DWIDTH 16 0
BBX 12 18 2 0
BITMAP
1000
1C80
1300
0000
C030
E030
F030
F030
D830
DC30
CE30
C630
C330
C1B0
C1F0
C0F0
C070
C030
ENDCHAR
STARTCHAR 00D2
ENCODING 210
SWIDTH 822 0
DWIDTH 16 0
BBX 14 18 1 0
BITMAP
0C00
0600
0300
0000
0FC0
1FF0
3038
601C
C00C
C00C
C00C
C00C
C00C
C00C
601C
3038
1FF0
0FC0
ENDCHAR
STARTCHAR 00D3
ENCODING 211
SWIDTH 822 0
DWIDTH 16 0
BBX 14 18 1 0
BITMAP
00E0
0180
0300
0000
0FC0
1FF0
3038
601C
C00C
C00C
C00C
C00C
C00C
C00C
601C
3038
1FF0
0FC0
ENDCHAR
STARTCHAR 00D4
ENCODING 212
SWIDTH 822 0
DWIDTH 16 0
BBX 14 18 1 0
BITMAP
0300
0780
0CC0
0000
0FC0
1FF0
3038
601C
C00C
C00C
C00C
C00C
C00C
C00C
601C
3038
1FF0
0FC0
ENDCHAR
STARTCHAR 00D5
ENCODING 213
SWIDTH 822 0
DWIDTH 16 0
BBX 14 18 1 0
BITMAP
0400
0B40
09C0
0000
0FC0
1FF0
3038
601C
C00C
C00C
C00C
C00C
C00C
C00C
601C
3038
1FF0
0FC0
ENDCHAR
STARTCHAR 00D6
ENCODING 214
SWIDTH 822 0
DWIDTH 16 0
BBX 14 17 1 0
BITMAP
04C0
0CC0
0000
0FC0
1FF0
3038
601C
C00C
C00C
C00C
C00C
C00C
C00C
601C
3038
1FF0
0FC0
ENDCHAR
STARTCHAR 00D7
ENCODING 215
SWIDTH 565 0
DWIDTH 11 0
BBX 7 7 2 4
BITMAP
42
E6
7C
38
3C
6E
C6
ENDCHAR
STARTCHAR 00D8
ENCODING 216
SWIDTH 822 0
DWIDTH 16 0
BBX 14 16 1 -1
BITMAP
0008
0FD8
1FF0
3038
605C
C0CC
C18C
C10C
C30C
C60C
C40C
681C
3838
1FF0
2FC0
6000
ENDCHAR
STARTCHAR 00D9
ENCODING 217
SWIDTH 771 0
DWIDTH 15 0
BBX 11 18 2 0
BITMAP
3800
1C00
0600
0000
C020
C020
C020
C020
C020
C020
C020
C020
C020
C060
C060
60E0
7FC0
1F00
ENDCHAR
STARTCHAR 00DA
ENCODING 218
SWIDTH 771 0
DWIDTH 15 0
BBX 11 18 2 0
BITMAP
0180
0300
0600
0000
C020
C020
C020
C020
C020
C020
C020
C020
C020
C060
C060
60E0
7FC0
1F00
ENDCHAR
STARTCHAR 00DB
ENCODING 219
SWIDTH 771 0
DWIDTH 15 0
BBX 11 18 2 0
BITMAP
0600
0F00
1980
0000
C020
C020
C020
C020
C020
C020
C020
C020
C020
C060
C060
60E0
7FC0
1F00
ENDCHAR
STARTCHAR 00DC
ENCODING 220
SWIDTH 771 0
DWIDTH 15 0
BBX 11 17 2 0
BITMAP
1900
1900
0000
C020
C020
C020
C020
C020
C020
C020
C020
C020
C060
C060
60E0
7FC0
1F00
ENDCHAR
STARTCHAR 00DD
ENCODING 221
SWIDTH 668 0
DWIDTH 13 0
BBX 12 18 0 0
BITMAP
01C0
0380
0600
0000
C030
6030
6060
3060
18C0
1980
0D80
0F00
0700
0600
0600
0600
0600
0600
ENDCHAR
STARTCHAR 00DE
ENCODING 222
SWIDTH 720 0
DWIDTH 14 0
BBX 11 14 2 0
BITMAP
C000
C000
FF00
FFC0
C0E0
C060
C060
C060
C060
C0C0
FF80
FE00
C000
C000
ENDCHAR
STARTCHAR 00DF
ENCODING 223
SWIDTH 668 0
DWIDTH 13 0
BBX 10 15 2 0
BITMAP
3E00
7F00
C180
C180
C180
C180
C300
CF00
CF80
C0C0
C0C0
C0C0
C0C0
CF80
DF00
ENDCHAR
STARTCHAR 00E0
ENCODING 224
SWIDTH 617 0
DWIDTH 12 0
BBX 9 15 1 0
BITMAP
3000
1800
0C00
0000
3E00
FF00
0180
0180
0180
7F80
C180
C180
C180
E780
3D80
ENDCHAR
STARTCHAR 00E1
ENCODING 225
SWIDTH 617 0
DWIDTH 12 0
BBX 9 15 1 0
BITMAP
0700
0C00
1800
0000
3E00
FF00
0180
0180
0180
7F80
C180
C180
C180
E780
3D80
ENDCHAR
STARTCHAR 00E2
ENCODING 226
SWIDTH 617 0
DWIDTH 12 0
BBX 9 15 1 0
BITMAP
1C00
3600
6300
0000
3E00
FF00
0180
0180
0180
7F80
C180
C180
C180
E780
3D80
ENDCHAR
STARTCHAR 00E3
ENCODING 227
SWIDTH 617 0
DWIDTH 12 0
BBX 9 15 1 0
BITMAP
2000
3900
4600
0000
3E00
FF00
0180
0180
0180
7F80
C180
C180
C180
E780
3D80
ENDCHAR
STARTCHAR 00E4
ENCODING 228
SWIDTH 617 0
DWIDTH 12 0
BBX 9 15 1 0
BITMAP
3200
3200
0000
0000
3E00
FF00
0180
0180
0180
7F80
C180
C180
C180
E780
3D80
ENDCHAR
STARTCHAR 00E5
ENCODING 229
SWIDTH 617 0
DWIDTH 12 0
BBX 9 16 1 0
BITMAP
1C00
2200
1200
1C00
0000
3E00
FF00
0180
0180
0180
7F80
C180
C180
C180
E780
3D80
ENDCHAR
STARTCHAR 00E6
ENCODING 230
SWIDTH 977 0
DWIDTH 19 0
BBX 17 11 1 0
BITMAP
3E3E00
FF7F00
01C180
018180
018080
7FFF80
C18000
C18000
C1C100
E77F80
3C3E00
ENDCHAR
STARTCHAR 00E7
ENCODING 231
SWIDTH 565 0
DWIDTH 11 0
BBX 9 15 1 -4
BITMAP
1F00
7F80
6180
C000
C000
C000
C000
C000
6180
7F80
1F00
0800
0C00
0600
1C00
ENDCHAR
STARTCHAR 00E8
ENCODING 232
SWIDTH 617 0
DWIDTH 12 0
BBX 10 15 1 0
BITMAP
3000
1800
0400
0000
1E00
7F80
6180
C0C0
C0C0
FFC0
C000
C000
6080
7F80
1F00
ENDCHAR
STARTCHAR 00E9
ENCODING 233
SWIDTH 617 0
DWIDTH 12 0
BBX 10 15 1 0
BITMAP
0300
0600
0800
0000
1E00
7F80
6180
C0C0
C0C0
FFC0
C000
C000
6080
7F80
1F00
ENDCHAR
STARTCHAR 00EA
ENCODING 234
SWIDTH 617 0
DWIDTH 12 0
BBX 10 15 1 0
BITMAP
0C00
1200
2100
0000
1E00
7F80
6180
C0C0
C0C0
FFC0
C000
C000
6080
7F80
1F00
ENDCHAR
STARTCHAR 00EB
ENCODING 235
SWIDTH 617 0
DWIDTH 12 0
BBX 10 15 1 0
BITMAP
3300
3300
0000
0000
1E00
7F80
6180
C0C0
C0C0
FFC0
C000
C000
6080
7F80
1F00
ENDCHAR
STARTCHAR 00EC
ENCODING 236
SWIDTH 257 0
DWIDTH 5 0
BBX 4 15 0 0
BITMAP
C0
60
30
00
30
30
30
30
30
30
30
30
30
30
30
ENDCHAR
STARTCHAR 00ED
ENCODING 237
SWIDTH 257 0
DWIDTH 5 0
BBX 5 15 1 0
BITMAP
38
60
C0
00
60
60
60
60
60
60
60
60
60
60
60
ENDCHAR
STARTCHAR 00EE
ENCODING 238
SWIDTH 257 0
DWIDTH 5 0
BBX 6 15 0 0
BITMAP
70
58
8C
00
30
30
30
30
30
30
30
30
30
30
30
ENDCHAR
STARTCHAR 00EF
ENCODING 239
SWIDTH 257 0
DWIDTH 5 0
BBX 5 15 0 0
BITMAP
D8
D8
00
00
30
30
30
30
30
30
30
30
30
30
30
ENDCHAR
STARTCHAR 00F0
ENCODING 240
SWIDTH 617 0
DWIDTH 12 0
BBX 11 15 1 0
BITMAP
1800
7FC0
0780
1F80
30C0
00C0
0C40
7F60
E1E0
C0E0
C0C0
C0C0
C1C0
7F80
3E00
ENDCHAR
STARTCHAR 00F1
ENCODING 241
SWIDTH 668 0
DWIDTH 13 0
BBX 10 15 2 0
BITMAP
2000
3900
4600
0000
DE00
FF80
E180
C180
C0C0
C0C0
C0C0
C0C0
C0C0
C0C0
C0C0
ENDCHAR
STARTCHAR 00F2
ENCODING 242
SWIDTH 617 0
DWIDTH 12 0
BBX 11 15 1 0
BITMAP
3000
0C00
0600
0000
1F00
7F80
61C0
C0C0
C040
C060
C040
C0C0
61C0
7F80
1F00
ENDCHAR
STARTCHAR 00F3
ENCODING 243
SWIDTH 617 0
DWIDTH 12 0
BBX 11 15 1 0
BITMAP
0300
0600
0800
0000
1F00
7F80
61C0
C0C0
C040
C060
C040
C0C0
61C0
7F80
1F00
ENDCHAR
STARTCHAR 00F4
ENCODING 244
SWIDTH 617 0
DWIDTH 12 0
BBX 11 15 1 0
BITMAP
0E00
1B00
2180
0000
1F00
7F80
61C0
C0C0
C040
C060
C040
C0C0
61C0
7F80
1F00
ENDCHAR
STARTCHAR 00F5
ENCODING 245
SWIDTH 617 0
DWIDTH 12 0
BBX 11 15 1 0
BITMAP
3900
2700
0000
0000
1F00
7F80
61C0
C0C0
C040
C060
C040
C0C0
61C0
7F80
1F00
ENDCHAR
STARTCHAR 00F6
ENCODING 246
SWIDTH 617 0
DWIDTH 12 0
BBX 11 15 1 0
BITMAP
3300
3300
0000
0000
1F00
7F80
61C0
C0C0
C040
C060
C040
C0C0
61C0
7F80
1F00
ENDCHAR
STARTCHAR 00F7
ENCODING 247
SWIDTH 565 0
DWIDTH 11 0
BBX 9 10 1 2
BITMAP
0C00
0C00
0000
0000
FF80
FF80
0000
0000
0C00
0C00
ENDCHAR
STARTCHAR 00F8
ENCODING 248
SWIDTH 617 0
DWIDTH 12 0
BBX 11 13 1 -1
BITMAP
00C0
1F80
7F80
63C0
C2C0
C440
C460
C840
D8C0
71C0
7F80
7F00
4000
ENDCHAR
STARTCHAR 00F9
ENCODING 249
SWIDTH 668 0
DWIDTH 13 0
BBX 9 15 2 0
BITMAP
3000
1800
0C00
0000
C180
C180
C180
C180
C180
C180
C180
C180
C180
7E80
3C80
ENDCHAR
STARTCHAR 00FA
ENCODING 250
SWIDTH 668 0
DWIDTH 13 0
BBX 9 15 2 0
BITMAP
0600
0C00
1800
0000
C180
C180
C180
C180
C180
C180
C180
C180
C180
7E80
3C80
ENDCHAR
STARTCHAR 00FB
ENCODING 251
SWIDTH 668 0
DWIDTH 13 0
BBX 9 15 2 0
BITMAP
1C00
3600
6300
0000
C180
C180
C180
C180
C180
C180
C180
C180
C180
7E80
3C80
ENDCHAR
STARTCHAR 00FC
ENCODING 252
SWIDTH 668 0
DWIDTH 13 0
BBX 9 15 2 0
BITMAP
3600
3600
0000
0000
C180
C180
C180
C180
C180
C180
C180
C180
C180
7E80
3C80
ENDCHAR
STARTCHAR 00FD
ENCODING 253
SWIDTH 565 0
DWIDTH 11 0
BBX 11 19 0 -4
BITMAP
0300
0600
0800
0000
C060
60C0
60C0
6080
3180
3180
1B00
1B00
1A00
0E00
0E00
0C00
0C00
F800
F000
ENDCHAR
STARTCHAR 00FE
ENCODING 254
SWIDTH 668 0
DWIDTH 13 0
BBX 10 19 2 -4
BITMAP
C000
C000
C000
C000
DF00
FF80
E1C0
C0C0
C0C0
C040
C0C0
C0C0
E1C0
FF80
DF00
C000
C000
C000
C000
ENDCHAR
STARTCHAR 00FF
ENCODING 255
SWIDTH 565 0
DWIDTH 11 0
BBX 11 19 0 -4
BITMAP
3300
3300
0000
0000
C060
60C0
60C0
6080
3180
3180
1B00
1B00
1A00
0E00
0E00
0C00
0C00
F800
F000
ENDCHAR
STARTCHAR 0100
ENCODING 256
SWIDTH 720 0
DWIDTH 14 0
BBX 14 17 0 0
BITMAP
0FC0
0000
0000
0300
0780
0780
04C0
0CC0
0C40
1860
1860
3030
3FF0
3FF8
6018
600C
C00C
ENDCHAR
STARTCHAR 0101
ENCODING 257
SWIDTH 617 0
DWIDTH 12 0
BBX 9 14 1 0
BITMAP
7F00
0000
0000
3E00
FF00
0180
0180
0180
7F80
C180
C180
C180
E780
3D80
ENDCHAR
STARTCHAR 0102
ENCODING 258
SWIDTH 720 0
DWIDTH 14 0
BBX 14 18 0 0
BITMAP
0840
0CC0
0780
0000
0300
0780
0780
04C0
0CC0
0C40
1860
1860
3030
3FF0
3FF8
6018
600C
C00C
ENDCHAR
STARTCHAR 0103
ENCODING 259
SWIDTH 617 0
DWIDTH 12 0
BBX 9 15 1 0
BITMAP
2100
2300
1E00
0000
3E00
FF00
0180
0180
0180
7F80
C180
C180
C180
E780
3D80
ENDCHAR
STARTCHAR 0104
ENCODING 260
SWIDTH 720 0
DWIDTH 14 0
BBX 15 18 0 -4
BITMAP
0300
0780
0780
04C0
0CC0
0C40
1860
1860
3030
3FF0
3FF8
6018
600C
C00C
0018
0010
0010
001E
ENDCHAR
STARTCHAR 0105
ENCODING 261
SWIDTH 617 0
DWIDTH 12 0
BBX 9 15 1 -4
BITMAP
3E00
FF00
0180
0180
0180
7F80
C180
C180
C180
E780
3D80
0300
0600
0600
0380
ENDCHAR
STARTCHAR 0106
ENCODING 262
SWIDTH 720 0
DWIDTH 14 0
BBX 12 18 1 0
BITMAP
00E0
0180
0300
0000
0FC0
1FF0
7030
6000
C000
C000
C000
C000
C000
C000
6000
7030
1FF0
0FC0
ENDCHAR
STARTCHAR 0107
ENCODING 263
SWIDTH 565 0
DWIDTH 11 0
BBX 9 15 1 0
BITMAP
0300
0E00
1800
0000
1F00
7F80
6180
C000
C000
C000
C000
C000
6180
7F80
1F00
ENDCHAR
STARTCHAR 0108
ENCODING 264
SWIDTH 720 0
DWIDTH 14 0
BBX 12 18 1 0
BITMAP
0300
0780
0CC0
0000
0FC0
1FF0
7030
6000
C000
C000
C000
C000
C000
C000
6000
7030
1FF0
0FC0
ENDCHAR
STARTCHAR 0109
ENCODING 265
SWIDTH 565 0
DWIDTH 11 0
BBX 9 15 1 0
BITMAP
1C00
3600
6100
0000
1F00
7F80
6180
C000
C000
C000
C000
C000
6180
7F80
1F00
ENDCHAR
STARTCHAR 010A
ENCODING 266
SWIDTH 720 0
DWIDTH 14 0
BBX 12 17 1 0
BITMAP
0300
0300
0000
0FC0
1FF0
7030
6000
C000
C000
C000
C000
C000
C000
6000
7030
1FF0
0FC0
ENDCHAR
STARTCHAR 010B
ENCODING 267
SWIDTH 565 0
DWIDTH 11 0
BBX 9 15 1 0
BITMAP
0C00
0C00
0000
0000
1F00
7F80
6180
C000
C000
C000
C000
C000
6180
7F80
1F00
ENDCHAR
STARTCHAR 010C
ENCODING 268
SWIDTH 720 0
DWIDTH 14 0
BBX 12 18 1 0
BITMAP
0840
0480
0300
0000
0FC0
1FF0
7030
6000
C000
C000
C000
C000
C000
C000
6000
7030
1FF0
0FC0
ENDCHAR
STARTCHAR 010D
ENCODING 269
SWIDTH 565 0
DWIDTH 11 0
BBX 9 15 1 0
BITMAP
3300
1E00
0C00
0000
1F00
7F80
6180
C000
C000
C000
C000
C000
6180
7F80
1F00
ENDCHAR
STARTCHAR 010E
ENCODING 270
SWIDTH 822 0
DWIDTH 16 0
BBX 13 18 2 0
BITMAP
3180
1B00
0E00
0000
FF80
FFE0
C070
C030
C018
C018
C018
C018
C018
C018
C030
C070
FFE0
FF80
ENDCHAR
STARTCHAR 010F
ENCODING 271
SWIDTH 668 0
DWIDTH 13 0
BBX 14 16 1 0
BITMAP
000C
004C
004C
004C
0040
1E40
7F40
61C0
C0C0
C040
C040
C040
C0C0
61C0
7F40
1E40
ENDCHAR
STARTCHAR 0110
ENCODING 272
SWIDTH 822 0
DWIDTH 16 0
BBX 15 14 0 0
BITMAP
3FE0
3FF8
301C
300C
3006
3006
FF06
FF06
3006
3006
300C
301C
3FF8
3FE0
ENDCHAR
STARTCHAR 0111
ENCODING 273
SWIDTH 668 0
DWIDTH 13 0
BBX 12 15 1 0
BITMAP
0040
0040
07F0
0040
1E40
7F40
61C0
C0C0
C040
C040
C040
C0C0
61C0
7F40
1E40
ENDCHAR
STARTCHAR 0112
ENCODING 274
SWIDTH 668 0
DWIDTH 13 0
BBX 10 17 2 0
BITMAP
3F00
0000
0000
FFC0
FFC0
C000
C000
C000
C000
FF80
FF80
C000
C000
C000
C000
FFC0
FFC0
ENDCHAR
STARTCHAR 0113
ENCODING 275
SWIDTH 617 0
DWIDTH 12 0
BBX 10 14 1 0
BITMAP
3F00
0000
0000
1E00
7F80
6180
C0C0
C0C0
FFC0
C000
C000
6080
7F80
1F00
ENDCHAR
STARTCHAR 0114
ENCODING 276
SWIDTH 668 0
DWIDTH 13 0
BBX 10 18 2 0
BITMAP
2100
3300
1E00
0000
FFC0
FFC0
C000
C000
C000
C000
FF80
FF80
C000
C000
C000
C000
FFC0
FFC0
ENDCHAR
STARTCHAR 0115
ENCODING 277
SWIDTH 617 0
DWIDTH 12 0
BBX 10 15 1 0
BITMAP
2100
3300
1E00
0000
1E00
7F80
6180
C0C0
C0C0
FFC0
C000
C000
6080
7F80
1F00
ENDCHAR
STARTCHAR 0116
ENCODING 278
SWIDTH 668 0
DWIDTH 13 0
BBX 10 18 2 0
BITMAP
0C00
0C00
0000
0000
FFC0
FFC0
C000
C000
C000
C000
FF80
FF80
C000
C000
C000
C000
FFC0
FFC0
ENDCHAR
STARTCHAR 0117
ENCODING 279
SWIDTH 617 0
DWIDTH 12 0
BBX 10 15 1 0
BITMAP
0C00
0C00
0000
0000
1E00
7F80
6180
C0C0
C0C0
FFC0
C000
C000
6080
7F80
1F00
ENDCHAR
STARTCHAR 0118
ENCODING 280
SWIDTH 668 0
DWIDTH 13 0
BBX 10 18 2 -4
BITMAP
FFC0
FFC0
C000
C000
C000
C000
FF80
FF80
C000
C000
C000
C000
FFC0
FFC0
0180
0300
0300
01C0
ENDCHAR
STARTCHAR 0119
ENCODING 281
SWIDTH 617 0
DWIDTH 12 0
BBX 10 15 1 -4
BITMAP
1E00
7F80
6180
C0C0
C0C0
FFC0
C000
C000
6080
7F80
1F00
0200
0600
0600
0380
ENDCHAR
STARTCHAR 011A
ENCODING 282
SWIDTH 668 0
DWIDTH 13 0
BBX 10 18 2 0
BITMAP
6100
3600
1C00
0000
FFC0
FFC0
C000
C000
C000
C000
FF80
FF80
C000
C000
C000
C000
FFC0
FFC0
ENDCHAR
STARTCHAR 011B
ENCODING 283
SWIDTH 617 0
DWIDTH 12 0
BBX 10 15 1 0
BITMAP
3300
1E00
0C00
0000
1E00
7F80
6180
C0C0
C0C0
FFC0
C000
C000
6080
7F80
1F00
ENDCHAR
STARTCHAR 011C
ENCODING 284
SWIDTH 771 0
DWIDTH 15 0
BBX 12 18 1 0
BITMAP
0300
0780
0CC0
0000
0FC0
1FF0
3030
6000
C000
C000
C000
C030
C030
C030
6030
7030
1FF0
0FC0
ENDCHAR
STARTCHAR 011D
ENCODING 285
SWIDTH 668 0
DWIDTH 13 0
BBX 11 19 1 -4
BITMAP
0E00
1B00
3180
0000
1E60
7FE0
E0E0
C0E0
C060
C060
C060
C0E0
61E0
3F60
0C60
0040
40C0
FF80
3F00
ENDCHAR
STARTCHAR 011E
ENCODING 286
SWIDTH 771 0
DWIDTH 15 0
BBX 12 18 1 0
BITMAP
0840
0CC0
0780
0000
0FC0
1FF0
3030
6000
C000
C000
C000
C030
C030
C030
6030
7030
1FF0
0FC0
ENDCHAR
STARTCHAR 011F
ENCODING 287
SWIDTH 668 0
DWIDTH 13 0
BBX 11 19 1 -4
BITMAP
3180
1100
1E00
0000
1E60
7FE0
E0E0
C0E0
C060
C060
C060
C0E0
61E0
3F60
0C60
0040
40C0
FF80
3F00
ENDCHAR
STARTCHAR 0120
ENCODING 288
SWIDTH 771 0
DWIDTH 15 0
BBX 12 17 1 0
BITMAP
0300
0300
0000
0FC0
1FF0
3030
6000
C000
C000
C000
C030
C030
C030
6030
7030
1FF0
0FC0
ENDCHAR
STARTCHAR 0121
ENCODING 289
SWIDTH 668 0
DWIDTH 13 0
BBX 11 19 1 -4
BITMAP
0C00
0C00
0000
0000
1E60
7FE0
E0E0
C0E0
C060
C060
C060
C0E0
61E0
3F60
0C60
0040
40C0
FF80
3F00
ENDCHAR
STARTCHAR 0122
ENCODING 290
SWIDTH 771 0
DWIDTH 15 0
BBX 12 19 1 -5
BITMAP
0FC0
1FF0
3030
6000
C000
C000
C000
C030
C030
C030
6030
7030
1FF0
0FC0
0000
0000
0300
0300
0200
ENDCHAR
STARTCHAR 0123
ENCODING 291
SWIDTH 668 0
DWIDTH 13 0
BBX 11 20 1 -4
BITMAP
0400
0400
0C00
0400
0000
1E60
7FE0
E0E0
C0E0
C060
C060
C060
C0E0
61E0
3F60
0C60
0040
40C0
FF80
3F00
ENDCHAR
STARTCHAR 0124
ENCODING 292
SWIDTH 822 0
DWIDTH 16 0
BBX 12 18 2 0
BITMAP
0600
0F00
1980
0000
C030
C030
C030
C030
C030
C030
FFF0
FFF0
C030
C030
C030
C030
C030
C030
ENDCHAR
STARTCHAR 0125
ENCODING 293
SWIDTH 668 0
DWIDTH 13 0
BBX 12 19 0 0
BITMAP
3000
7800
CC00
0000
3000
3000
3000
3000
3780
3FE0
3860
3060
3030
3030
3030
3030
3030
3030
3030
ENDCHAR
STARTCHAR 0126
ENCODING 294
SWIDTH 822 0
DWIDTH 16 0
BBX 16 14 0 0
BITMAP
300C
300C
FFFF
FFFF
300C
300C
3FFC
3FFC
300C
300C
300C
300C
300C
300C
ENDCHAR
STARTCHAR 0127
ENCODING 295
SWIDTH 668 0
DWIDTH 13 0
BBX 12 15 0 0
BITMAP
3000
3000
FF00
3000
3780
3FE0
3860
3060
3030
3030
3030
3030
3030
3030
3030
ENDCHAR
STARTCHAR 0128
ENCODING 296
SWIDTH 308 0
DWIDTH 6 0
BBX 6 18 0 0
BITMAP
40
B4
9C
00
30
30
30
30
30
30
30
30
30
30
30
30
30
30
ENDCHAR
STARTCHAR 0129
ENCODING 297
SWIDTH 257 0
DWIDTH 5 0
BBX 5 15 0 0
BITMAP
E8
B8
00
00
30
30
30
30
30
30
30
30
30
30
30
ENDCHAR
STARTCHAR 012A
ENCODING 298
SWIDTH 308 0
DWIDTH 6 0
BBX 6 17 0 0
BITMAP
FC
00
00
30
30
30
30
30
30
30
30
30
30
30
30
30
30
ENDCHAR
STARTCHAR 012B
ENCODING 299
SWIDTH 257 0
DWIDTH 5 0
BBX 5 14 0 0
BITMAP
F8
00
00
30
30
30
30
30
30
30
30
30
30
30
ENDCHAR
STARTCHAR 012C
ENCODING 300
SWIDTH 308 0
DWIDTH 6 0
BBX 6 18 0 0
BITMAP
84
CC
78
00
30
30
30
30
30
30
30
30
30
30
30
30
30
30
ENDCHAR
STARTCHAR 012D
ENCODING 301
SWIDTH 257 0
DWIDTH 5 0
BBX 5 15 0 0
BITMAP
88
C8
70
00
30
30
30
30
30
30
30
30
30
30
30
ENDCHAR
STARTCHAR 012E
ENCODING 302
SWIDTH 308 0
DWIDTH 6 0
BBX 3 18 2 -4
BITMAP
C0
C0
C0
C0
C0
C0
C0
C0
C0
C0
C0
C0
C0
C0
C0
80
80
E0
ENDCHAR
STARTCHAR 012F
ENCODING 303
SWIDTH 257 0
DWIDTH 5 0
BBX 3 19 1 -4
BITMAP
E0
60
00
00
60
60
60
60
60
60
60
60
60
60
60
40
C0
C0
60
ENDCHAR
STARTCHAR 0130
ENCODING 304
SWIDTH 308 0
DWIDTH 6 0
BBX 2 18 2 0
BITMAP
C0
C0
00
00
C0
C0
C0
C0
C0
C0
C0
C0
C0
C0
C0
C0
C0
C0
ENDCHAR
STARTCHAR 0131
ENCODING 305
SWIDTH 257 0
DWIDTH 5 0
BBX 2 11 2 0
BITMAP
C0
C0
C0
C0
C0
C0
C0
C0
C0
C0
C0
ENDCHAR
STARTCHAR 0132
ENCODING 306
SWIDTH 720 0
DWIDTH 14 0
BBX 10 14 2 0
BITMAP
C0C0
C0C0
C0C0
C0C0
C0C0
C0C0
C0C0
C0C0
00C0
00C0
00C0
8180
FF00
7E00
ENDCHAR
STARTCHAR 0133
ENCODING 307
SWIDTH 565 0
DWIDTH 11 0
BBX 8 19 1 -4
BITMAP
E3
63
00
00
63
63
63
63
63
63
63
63
63
63
63
03
03
1F
1E
ENDCHAR
STARTCHAR 0134
ENCODING 308
SWIDTH 514 0
DWIDTH 10 0
BBX 8 18 0 0
BITMAP
0C
1E
23
00
7F
7F
03
03
03
03
03
03
03
03
03
C3
FE
3C
ENDCHAR
STARTCHAR 0135
ENCODING 309
SWIDTH 308 0
DWIDTH 6 0
BBX 8 19 -2 -4
BITMAP
0C
16
23
00
0C
0C
0C
0C
0C
0C
0C
0C
0C
0C
0C
0C
0C
78
F0
ENDCHAR
STARTCHAR 0136
ENCODING 310
SWIDTH 720 0
DWIDTH 14 0
BBX 12 19 2 -5
BITMAP
C060
C0C0
C180
C300
C600
CE00
DC00
FE00
F700
E300
C180
C0C0
C0E0
C070
0000
0000
0C00
0400
0400
ENDCHAR
STARTCHAR 0137
ENCODING 311
SWIDTH 617 0
DWIDTH 12 0
BBX 10 20 2 -5
BITMAP
C000
C000
C000
C000
C180
C300
C600
CC00
D800
FC00
EE00
C600
C300
C180
C1C0
0000
0000
1800
0800
1000
ENDCHAR
STARTCHAR 0138
ENCODING 312
SWIDTH 617 0
DWIDTH 12 0
BBX 10 11 2 0
BITMAP
C180
C300
C600
CC00
D800
FC00
EE00
C600
C300
C180
C1C0
ENDCHAR
STARTCHAR 0139
ENCODING 313
SWIDTH 617 0
DWIDTH 12 0
BBX 9 18 2 0
BITMAP
3800
6000
C000
0000
C000
C000
C000
C000
C000
C000
C000
C000
C000
C000
C000
C000
FF80
FF80
ENDCHAR
STARTCHAR 013A
ENCODING 314
SWIDTH 257 0
DWIDTH 5 0
BBX 5 19 1 0
BITMAP
38
60
C0
00
60
60
60
60
60
60
60
60
60
60
60
60
60
60
60
ENDCHAR
STARTCHAR 013B
ENCODING 315
SWIDTH 617 0
DWIDTH 12 0
BBX 9 19 2 -5
BITMAP
C000
C000
C000
C000
C000
C000
C000
C000
C000
C000
C000
C000
FF80
FF80
0000
0000
0C00
0400
0800
ENDCHAR
STARTCHAR 013C
ENCODING 316
SWIDTH 257 0
DWIDTH 5 0
BBX 2 20 2 -5
BITMAP
C0
C0
C0
C0
C0
C0
C0
C0
C0
C0
C0
C0
C0
C0
C0
00
00
C0
80
80
ENDCHAR
STARTCHAR 013D
ENCODING 317
SWIDTH 617 0
DWIDTH 12 0
BBX 9 15 2 0
BITMAP
0300
C300
C300
C300
C000
C000
C000
C000
C000
C000
C000
C000
C000
FF80
FF80
ENDCHAR
STARTCHAR 013E
ENCODING 318
SWIDTH 257 0
DWIDTH 5 0
BBX 5 16 2 0
BITMAP
18
D8
D8
D8
C0
C0
C0
C0
C0
C0
C0
C0
C0
C0
C0
C0
ENDCHAR
STARTCHAR 013F
ENCODING 319
SWIDTH 617 0
DWIDTH 12 0
BBX 9 14 2 0
BITMAP
C000
C000
C000
C000
C000
C300
C300
C000
C000
C000
C000
C000
FF80
FF80
ENDCHAR
STARTCHAR 0140
ENCODING 320
SWIDTH 360 0
DWIDTH 7 0
BBX 5 15 2 0
BITMAP
C0
C0
C0
C0
C0
C0
C0
D8
D8
C0
C0
C0
C0
C0
C0
ENDCHAR
STARTCHAR 0141
ENCODING 321
SWIDTH 617 0
DWIDTH 12 0
BBX 11 14 1 0
BITMAP
6000
6000
6000
6400
7C00
7000
6000
E000
E000
6000
6000
6000
7FE0
7FE0
ENDCHAR
STARTCHAR 0142
ENCODING 322
SWIDTH 308 0
DWIDTH 6 0
BBX 6 15 0 0
BITMAP
30
30
30
30
30
30
3C
30
70
F0
30
30
30
30
30
ENDCHAR
STARTCHAR 0143
ENCODING 323
SWIDTH 822 0
DWIDTH 16 0
BBX 12 18 2 0
BITMAP
0180
0300
0600
0000
C030
E030
F030
F030
D830
DC30
CE30
C630
C330
C1B0
C1F0
C0F0
C070
C030
ENDCHAR
STARTCHAR 0144
ENCODING 324
SWIDTH 668 0
DWIDTH 13 0
BBX 10 15 2 0
BITMAP
0700
0C00
1800
0000
DE00
FF80
E180
C180
C0C0
C0C0
C0C0
C0C0
C0C0
C0C0
C0C0
ENDCHAR
STARTCHAR 0145
ENCODING 325
SWIDTH 822 0
DWIDTH 16 0
BBX 12 19 2 -5
BITMAP
C030
E030
F030
F030
D830
DC30
CE30
C630
C330
C1B0
C1F0
C0F0
C070
C030
0000
0000
0600
0600
0400
ENDCHAR
STARTCHAR 0146
ENCODING 326
SWIDTH 668 0
DWIDTH 13 0
BBX 10 16 2 -5
BITMAP
DE00
FF80
E180
C180
C0C0
C0C0
C0C0
C0C0
C0C0
C0C0
C0C0
0000
0000
0C00
0800
0800
ENDCHAR
STARTCHAR 0147
ENCODING 327
SWIDTH 822 0
DWIDTH 16 0
BBX 12 18 2 0
BITMAP
3080
1B00
0E00
0000
C030
E030
F030
F030
D830
DC30
CE30
C630
C330
C1B0
C1F0
C0F0
C070
C030
ENDCHAR
STARTCHAR 0148
ENCODING 328
SWIDTH 668 0
DWIDTH 13 0
BBX 10 15 2 0
BITMAP
2300
1E00
0C00
0000
DE00
FF80
E180
C180
C0C0
C0C0
C0C0
C0C0
C0C0
C0C0
C0C0
ENDCHAR
STARTCHAR 0149
ENCODING 329
SWIDTH 771 0
DWIDTH 15 0
BBX 12 14 1 0
BITMAP
8000
8000
8000
93C0
9FE0
1830
1830
1030
1030
1030
1030
1030
1030
1030
ENDCHAR
STARTCHAR 014A
ENCODING 330
SWIDTH 822 0
DWIDTH 16 0
BBX 12 18 2 -4
BITMAP
C030
E030
F030
F030
D830
DC30
CE30
C630
C330
C1B0
C1F0
C0F0
C070
C030
0030
0060
0FE0
07C0
ENDCHAR
STARTCHAR 014B
ENCODING 331
SWIDTH 668 0
DWIDTH 13 0
BBX 10 15 2 -4
BITMAP
DE00
FF80
E180
C180
C0C0
C0C0
C0C0
C0C0
C0C0
C0C0
C0C0
00C0
0080
0F80
0F00
ENDCHAR
STARTCHAR 014C
ENCODING 332
SWIDTH 822 0
DWIDTH 16 0
BBX 14 17 1 0
BITMAP
0FC0
0000
0000
0FC0
1FF0
3038
601C
C00C
C00C
C00C
C00C
C00C
C00C
601C
3038
1FF0
0FC0
ENDCHAR
STARTCHAR 014D
ENCODING 333
SWIDTH 617 0
DWIDTH 12 0
BBX 11 14 1 0
BITMAP
3F00
0000
0000
1F00
7F80
61C0
C0C0
C040
C060
C040
C0C0
61C0
7F80
1F00
ENDCHAR
STARTCHAR 014E
ENCODING 334
SWIDTH 822 0
DWIDTH 16 0
BBX 14 18 1 0
BITMAP
0840
0C40
0780
0000
0FC0
1FF0
3038
601C
C00C
C00C
C00C
C00C
C00C
C00C
601C
3038
1FF0
0FC0
ENDCHAR
STARTCHAR 014F
ENCODING 335
SWIDTH 617 0
DWIDTH 12 0
BBX 11 15 1 0
BITMAP
2100
3300
1E00
0000
1F00
7F80
61C0
C0C0
C040
C060
C040
C0C0
61C0
7F80
1F00
ENDCHAR
STARTCHAR 0150
ENCODING 336
SWIDTH 822 0
DWIDTH 16 0
BBX 14 18 1 0
BITMAP
0330
0360
06C0
0000
0FC0
1FF0
3038
601C
C00C
C00C
C00C
C00C
C00C
C00C
601C
3038
1FF0
0FC0
ENDCHAR
STARTCHAR 0151
ENCODING 337
SWIDTH 617 0
DWIDTH 12 0
BBX 11 15 1 0
BITMAP
0D80
1980
1300
0000
1F00
7F80
61C0
C0C0
C040
C060
C040
C0C0
61C0
7F80
1F00
ENDCHAR
STARTCHAR 0152
ENCODING 338
SWIDTH 1131 0
DWIDTH 22 0
BBX 20 14 1 0
BITMAP
0FFFF0
3FFFF0
703000
603000
C03000
C03000
C03FE0
C03FE0
C03000
C03000
603000
703000
3FFFF0
0FFFF0
ENDCHAR
STARTCHAR 0153
ENCODING 339
SWIDTH 1080 0
DWIDTH 21 0
BBX 19 11 1 0
BITMAP
1F0F00
7FBF80
61F0C0
C0E060
C06060
C07FE0
C06000
C0E000
61F040
7FBFC0
1F0F80
ENDCHAR
STARTCHAR 0154
ENCODING 340
SWIDTH 720 0
DWIDTH 14 0
BBX 11 18 2 0
BITMAP
0380
0600
0C00
0000
FF00
FFC0
C0C0
C060
C060
C060
C060
C0C0
FF80
FF00
C180
C1C0
C0C0
C060
ENDCHAR
STARTCHAR 0155
ENCODING 341
SWIDTH 411 0
DWIDTH 8 0
BBX 5 15 2 0
BITMAP
18
30
60
00
D8
F8
E0
C0
C0
C0
C0
C0
C0
C0
C0
ENDCHAR
STARTCHAR 0156
ENCODING 342
SWIDTH 720 0
DWIDTH 14 0
BBX 11 19 2 -5
BITMAP
FF00
FFC0
C0C0
C060
C060
C060
C060
C0C0
FF80
FF00
C180
C1C0
C0C0
C060
0000
0000
0C00
0400
0400
ENDCHAR
STARTCHAR 0157
ENCODING 343
SWIDTH 411 0
DWIDTH 8 0
BBX 5 16 2 -5
BITMAP
D8
F8
E0
C0
C0
C0
C0
C0
C0
C0
C0
00
00
C0
80
80
ENDCHAR
STARTCHAR 0158
ENCODING 344
SWIDTH 720 0
DWIDTH 14 0
BBX 11 18 2 0
BITMAP
2180
1B00
0E00
0000
FF00
FFC0
C0C0
C060
C060
C060
C060
C0C0
FF80
FF00
C180
C1C0
C0C0
C060
ENDCHAR
STARTCHAR 0159
ENCODING 345
SWIDTH 411 0
DWIDTH 8 0
BBX 6 15 2 0
BITMAP
8C
70
20
00
D8
F8
E0
C0
C0
C0
C0
C0
C0
C0
C0
ENDCHAR
STARTCHAR 015A
ENCODING 346
SWIDTH 617 0
DWIDTH 12 0
BBX 10 18 1 0
BITMAP
0380
0600
0C00
0000
3F00
7FC0
E000
C000
C000
E000
7C00
1F80
01C0
00C0
00C0
C0C0
FF80
3F00
ENDCHAR
STARTCHAR 015B
ENCODING 347
SWIDTH 514 0
DWIDTH 10 0
BBX 8 15 1 0
BITMAP
0E
18
30
00
3E
FF
C0
C0
E0
7E
0F
03
83
FF
7C
ENDCHAR
STARTCHAR 015C
ENCODING 348
SWIDTH 617 0
DWIDTH 12 0
BBX 10 18 1 0
BITMAP
0C00
1E00
3300
0000
3F00
7FC0
E000
C000
C000
E000
7C00
1F80
01C0
00C0
00C0
C0C0
FF80
3F00
ENDCHAR
STARTCHAR 015D
ENCODING 349
SWIDTH 514 0
DWIDTH 10 0
BBX 8 15 1 0
BITMAP
38
6C
C2
00
3E
FF
C0
C0
E0
7E
0F
03
83
FF
7C
ENDCHAR
STARTCHAR 015E
ENCODING 350
SWIDTH 617 0
DWIDTH 12 0
BBX 10 18 1 -4
BITMAP
3F00
7FC0
E000
C000
C000
E000
7C00
1F80
01C0
00C0
00C0
C0C0
FF80
3F00
0400
0E00
0200
1E00
ENDCHAR
STARTCHAR 015F
ENCODING 351
SWIDTH 514 0
DWIDTH 10 0
BBX 8 15 1 -4
BITMAP
3E
FF
C0
C0
E0
7E
0F
03
03
FF
7C
10
18
0C
38
ENDCHAR
STARTCHAR 0160
ENCODING 352
SWIDTH 617 0
DWIDTH 12 0
BBX 10 18 1 0
BITMAP
2180
1B00
0E00
0000
3F00
7FC0
E000
C000
C000
E000
7C00
1F80
01C0
00C0
00C0
C0C0
FF80
3F00
ENDCHAR
STARTCHAR 0161
ENCODING 353
SWIDTH 514 0
DWIDTH 10 0
BBX 8 15 1 0
BITMAP
66
3C
18
00
3E
FF
C0
C0
E0
7E
0F
03
83
FF
7C
ENDCHAR
STARTCHAR 0162
ENCODING 354
SWIDTH 565 0
DWIDTH 11 0
BBX 11 18 0 -4
BITMAP
FFE0
FFE0
0600
0600
0600
0600
0600
0600
0600
0600
0600
0600
0600
0600
0400
0600
0300
0E00
ENDCHAR
STARTCHAR 0163
ENCODING 355
SWIDTH 411 0
DWIDTH 8 0
BBX 7 17 0 -4
BITMAP
30
30
FE
FE
30
30
30
30
30
30
30
3E
1E
08
0C
02
1C
ENDCHAR
STARTCHAR 0164
ENCODING 356
SWIDTH 565 0
DWIDTH 11 0
BBX 11 18 0 0
BITMAP
3180
1B00
0E00
0000
FFE0
FFE0
0600
0600
0600
0600
0600
0600
0600
0600
0600
0600
0600
0600
ENDCHAR
STARTCHAR 0165
ENCODING 357
SWIDTH 411 0
DWIDTH 8 0
BBX 7 15 0 0
BITMAP
02
02
32
30
FE
FE
30
30
30
30
30
30
30
3E
1E
ENDCHAR
STARTCHAR 0166
ENCODING 358
SWIDTH 565 0
DWIDTH 11 0
BBX 11 14 0 0
BITMAP
FFE0
FFE0
0600
0600
0600
0600
3FC0
3FC0
0600
0600
0600
0600
0600
0600
ENDCHAR
STARTCHAR 0167
ENCODING 359
SWIDTH 411 0
DWIDTH 8 0
BBX 7 13 0 0
BITMAP
30
30
FE
FE
30
30
7E
30
30
30
30
1E
1E
ENDCHAR
STARTCHAR 0168
ENCODING 360
SWIDTH 771 0
DWIDTH 15 0
BBX 11 18 2 0
BITMAP
1000
1C80
3300
0000
C020
C020
C020
C020
C020
C020
C020
C020
C020
C060
C060
60E0
7FC0
1F00
ENDCHAR
STARTCHAR 0169
ENCODING 361
SWIDTH 668 0
DWIDTH 13 0
BBX 9 15 2 0
BITMAP
2000
7B00
4600
0000
C180
C180
C180
C180
C180
C180
C180
C180
C180
7E80
3C80
ENDCHAR
STARTCHAR 016A
ENCODING 362
SWIDTH 771 0
DWIDTH 15 0
BBX 11 17 2 0
BITMAP
1F80
0000
0000
C020
C020
C020
C020
C020
C020
C020
C020
C020
C060
C060
60E0
7FC0
1F00
ENDCHAR
STARTCHAR 016B
ENCODING 363
SWIDTH 668 0
DWIDTH 13 0
BBX 9 14 2 0
BITMAP
7F00
0000
0000
C180
C180
C180
C180
C180
C180
C180
C180
C180
7E80
3C80
ENDCHAR
STARTCHAR 016C
ENCODING 364
SWIDTH 771 0
DWIDTH 15 0
BBX 11 18 2 0
BITMAP
1080
1180
0F00
0000
C020
C020
C020
C020
C020
C020
C020
C020
C020
C060
C060
60E0
7FC0
1F00
ENDCHAR
STARTCHAR 016D
ENCODING 365
SWIDTH 668 0
DWIDTH 13 0
BBX 9 15 2 0
BITMAP
6300
2200
1C00
0000
C180
C180
C180
C180
C180
C180
C180
C180
C180
7E80
3C80
ENDCHAR
STARTCHAR 016E
ENCODING 366
SWIDTH 771 0
DWIDTH 15 0
BBX 11 20 2 0
BITMAP
0600
0900
1100
0900
0600
0000
C020
C020
C020
C020
C020
C020
C020
C020
C020
C060
C060
60E0
7FC0
1F00
ENDCHAR
STARTCHAR 016F
ENCODING 367
SWIDTH 668 0
DWIDTH 13 0
BBX 9 17 2 0
BITMAP
1C00
1400
2200
1400
1C00
0000
C180
C180
C180
C180
C180
C180
C180
C180
C180
7E80
3C80
ENDCHAR
STARTCHAR 0170
ENCODING 368
SWIDTH 771 0
DWIDTH 15 0
BBX 11 18 2 0
BITMAP
06C0
0C80
0980
0000
C020
C020
C020
C020
C020
C020
C020
C020
C020
C060
C060
60E0
7FC0
1F00
ENDCHAR
STARTCHAR 0171
ENCODING 369
SWIDTH 668 0
DWIDTH 13 0
BBX 9 15 2 0
BITMAP
1980
1300
3600
0000
C180
C180
C180
C180
C180
C180
C180
C180
C180
7E80
3C80
ENDCHAR
STARTCHAR 0172
ENCODING 370
SWIDTH 771 0
DWIDTH 15 0
BBX 11 18 2 -4
BITMAP
C020
C020
C020
C020
C020
C020
C020
C020
C020
C060
C060
60E0
7FC0
1F00
0400
0800
0800
0F00
ENDCHAR
STARTCHAR 0173
ENCODING 371
SWIDTH 668 0
DWIDTH 13 0
BBX 10 15 2 -4
BITMAP
C180
C180
C180
C180
C180
C180
C180
C180
C180
7E80
3C80
0300
0200
0200
03C0
ENDCHAR
STARTCHAR 0174
ENCODING 372
SWIDTH 1131 0
DWIDTH 22 0
BBX 20 18 1 0
BITMAP
006000
00F000
019800
000000
C06030
C06030
C0F020
60F060
609060
619840
3198C0
3108C0
330C80
1B0D80
1A0580
1E0780
0E0700
0C0300
ENDCHAR
STARTCHAR 0175
ENCODING 373
SWIDTH 874 0
DWIDTH 17 0
BBX 17 15 0 0
BITMAP
01C000
036000
063000
000000
C0C080
41C180
61C100
616300
236300
332200
323600
163600
1E1400
1C1C00
0C0C00
ENDCHAR
STARTCHAR 0176
ENCODING 374
SWIDTH 668 0
DWIDTH 13 0
BBX 12 18 0 0
BITMAP
0600
0F00
1980
0000
C030
6030
6060
3060
18C0
1980
0D80
0F00
0700
0600
0600
0600
0600
0600
ENDCHAR
STARTCHAR 0177
ENCODING 375
SWIDTH 565 0
DWIDTH 11 0
BBX 11 19 0 -4
BITMAP
0E00
1B00
2180
0000
C060
60C0
60C0
6080
3180
3180
1B00
1B00
1A00
0E00
0E00
0C00
0C00
F800
F000
ENDCHAR
STARTCHAR 0178
ENCODING 376
SWIDTH 668 0
DWIDTH 13 0
BBX 12 17 0 0
BITMAP
0980
0980
0000
C030
6030
6060
3060
18C0
1980
0D80
0F00
0700
0600
0600
0600
0600
0600
ENDCHAR
STARTCHAR 0179
ENCODING 377
SWIDTH 668 0
DWIDTH 13 0
BBX 11 18 1 0
BITMAP
0180
0300
0400
0000
FFE0
FFE0
00C0
0180
0300
0700
0600
0C00
1800
3800
3000
6000
FFE0
FFE0
ENDCHAR
STARTCHAR 017A
ENCODING 378
SWIDTH 514 0
DWIDTH 10 0
BBX 8 15 1 0
BITMAP
06
0C
10
00
FF
FF
06
0E
0C
18
30
70
60
FF
FF
ENDCHAR
STARTCHAR 017B
ENCODING 379
SWIDTH 668 0
DWIDTH 13 0
BBX 11 18 1 0
BITMAP
0400
0E00
0000
0000
FFE0
FFE0
00C0
0180
0300
0700
0600
0C00
1800
3800
3000
6000
FFE0
FFE0
ENDCHAR
STARTCHAR 017C
ENCODING 380
SWIDTH 514 0
DWIDTH 10 0
BBX 8 15 1 0
BITMAP
18
18
00
00
FF
FF
06
0E
0C
18
30
70
60
FF
FF
ENDCHAR
STARTCHAR 017D
ENCODING 381
SWIDTH 668 0
DWIDTH 13 0
BBX 11 18 1 0
BITMAP
3180
1B00
0E00
0000
FFE0
FFE0
00C0
0180
0300
0700
0600
0C00
1800
3800
3000
6000
FFE0
FFE0
ENDCHAR
STARTCHAR 017E
ENCODING 382
SWIDTH 514 0
DWIDTH 10 0
BBX 8 15 1 0
BITMAP
66
3C
18
00
FF
FF
06
0E
0C
18
30
70
60
FF
FF
ENDCHAR
STARTCHAR 017F
ENCODING 383
SWIDTH 308 0
DWIDTH 6 0
BBX 8 15 0 0
BITMAP
0F
1E
30
30
F0
F0
30
30
30
30
30
30
30
30
30
ENDCHAR
STARTCHAR 018F
ENCODING 399
SWIDTH 822 0
DWIDTH 16 0
BBX 14 14 1 0
BITMAP
0FC0
3FE0
3030
0018
001C
000C
FFFC
FFFC
C00C
C00C
6018
7030
3FE0
0FC0
ENDCHAR
STARTCHAR 0192
ENCODING 402
SWIDTH 462 0
DWIDTH 9 0
BBX 11 19 -2 -4
BITMAP
01E0
03E0
0300
0200
0FC0
0FC0
0600
0600
0600
0600
0600
0400
0C00
0C00
0C00
0C00
0C00
7800
F000
ENDCHAR
STARTCHAR 01A0
ENCODING 416
SWIDTH 822 0
DWIDTH 16 0
BBX 14 17 1 0
BITMAP
0004
0004
0004
0FEC
1FF8
3038
6018
C00C
C00C
C00C
C00C
C00C
C00C
601C
3038
1FF0
0FC0
ENDCHAR
STARTCHAR 01A1
ENCODING 417
SWIDTH 617 0
DWIDTH 12 0
BBX 11 14 1 0
BITMAP
0040
0040
0040
1FC0
7F80
61C0
C0C0
C040
C060
C040
C0C0
61C0
7F80
1F00
ENDCHAR
STARTCHAR 01AF
ENCODING 431
SWIDTH 822 0
DWIDTH 16 0
BBX 13 17 2 0
BITMAP
0008
0008
0008
C038
C020
C020
C020
C020
C020
C020
C020
C020
C060
C060
60E0
7FC0
1F00
ENDCHAR
STARTCHAR 01B0
ENCODING 432
SWIDTH 668 0
DWIDTH 13 0
BBX 11 14 2 0
BITMAP
0060
0020
0020
C1E0
C180
C180
C180
C180
C180
C180
C180
C180
7E80
3C80
ENDCHAR
STARTCHAR 01B7
ENCODING 439
SWIDTH 617 0
DWIDTH 12 0
BBX 10 14 1 0
BITMAP
FFC0
FF80
0180
0300
0600
0C00
1F00
0780
00C0
00C0
00C0
81C0
FF80
3F00
ENDCHAR
STARTCHAR 01C4
ENCODING 452
SWIDTH 1440 0
DWIDTH 28 0
BBX 26 18 2 0
BITMAP
0000C200
00006C00
00001800
00000000
FF83FF80
FFE3FF80
C0700300
C0300700
C0180600
C0180C00
C0181800
C0183800
C0187000
C0186000
C030C000
C0718000
FFE3FFC0
FF83FFC0
ENDCHAR
STARTCHAR 01C5
ENCODING 453
SWIDTH 1337 0
DWIDTH 26 0
BBX 23 15 2 0
BITMAP
000086
FF806C
FFE038
C07000
C031FE
C019FE
C0180C
C0181C
C01818
C01830
C01860
C03060
C070C0
FFE1FE
FF81FE
ENDCHAR
STARTCHAR 01C6
ENCODING 454
SWIDTH 1234 0
DWIDTH 24 0
BBX 22 15 1 0
BITMAP
004330
0041E0
0040C0
004000
1E47F8
7F47F8
60C038
C0C030
C04060
C040C0
C041C0
C0C180
61C300
7F47FC
1E47FC
ENDCHAR
STARTCHAR 01C7
ENCODING 455
SWIDTH 1131 0
DWIDTH 22 0
BBX 18 14 2 0
BITMAP
C01FC0
C01FC0
C000C0
C000C0
C000C0
C000C0
C000C0
C000C0
C000C0
C000C0
C000C0
C02180
FFBF80
FF9F00
ENDCHAR
STARTCHAR 01C8
ENCODING 456
SWIDTH 874 0
DWIDTH 17 0
BBX 14 19 2 -4
BITMAP
0018
C01C
C000
C000
C018
C018
C018
C018
C018
C018
C018
C018
C018
FF98
FF98
0018
0018
00F8
00F0
ENDCHAR
STARTCHAR 01C9
ENCODING 457
SWIDTH 565 0
DWIDTH 11 0
BBX 7 19 2 -4
BITMAP
C6
C6
C0
C0
C6
C6
C6
C6
C6
C6
C6
C6
C6
C6
C6
06
06
3E
3C
ENDCHAR
STARTCHAR 01CA
ENCODING 458
SWIDTH 1337 0
DWIDTH 26 0
BBX 22 14 2 0
BITMAP
C031FC
E031FC
F0300C
F0300C
D8300C
CC300C
CE300C
C7300C
C3300C
C1B00C
C1F00C
C0F21C
C073F8
C031F0
ENDCHAR
STARTCHAR 01CB
ENCODING 459
SWIDTH 1080 0
DWIDTH 21 0
BBX 18 19 2 -4
BITMAP
0000C0
C031C0
E03000
F03000
F030C0
D830C0
CC30C0
CE30C0
C730C0
C330C0
C1B0C0
C0F0C0
C0F0C0
C070C0
C030C0
0000C0
000180
000F80
000F00
ENDCHAR
STARTCHAR 01CC
ENCODING 460
SWIDTH 977 0
DWIDTH 19 0
BBX 15 19 2 -4
BITMAP
0006
0006
0000
0000
DE06
FF86
E186
C186
C0C6
C0C6
C0C6
C0C6
C0C6
C0C6
C0C6
0006
0006
003E
003C
ENDCHAR
STARTCHAR 01CD
ENCODING 461
SWIDTH 720 0
DWIDTH 14 0
BBX 14 18 0 0
BITMAP
0860
06C0
0380
0000
0300
0780
0780
04C0
0CC0
0C40
1860
1860
3030
3FF0
3FF8
6018
600C
C00C
ENDCHAR
STARTCHAR 01CE
ENCODING 462
SWIDTH 617 0
DWIDTH 12 0
BBX 9 15 1 0
BITMAP
2300
1E00
0C00
0000
3E00
FF00
0180
0180
0180
7F80
C180
C180
C180
E780
3D80
ENDCHAR
STARTCHAR 01D3
ENCODING 467
SWIDTH 771 0
DWIDTH 15 0
BBX 11 18 2 0
BITMAP
3180
1B00
0E00
0000
C020
C020
C020
C020
C020
C020
C020
C020
C020
C060
C060
60E0
7FC0
1F00
ENDCHAR
STARTCHAR 01D4
ENCODING 468
SWIDTH 668 0
DWIDTH 13 0
BBX 9 15 2 0
BITMAP
2200
1C00
0800
0000
C180
C180
C180
C180
C180
C180
C180
C180
C180
7E80
3C80
ENDCHAR
STARTCHAR 01E4
ENCODING 484
SWIDTH 822 0
DWIDTH 16 0
BBX 14 14 1 0
BITMAP
0FC0
1FF0
3030
6000
C000
C000
C000
C030
C1FC
C1FC
6030
7030
1FF0
0FC0
ENDCHAR
STARTCHAR 01E5
ENCODING 485
SWIDTH 720 0
DWIDTH 14 0
BBX 12 15 1 -4
BITMAP
1E60
7FE0
E0E0
C0E0
C060
C060
C0E0
E0E0
7FE0
1E60
0060
07F0
40C0
FF80
3F00
ENDCHAR
STARTCHAR 01E6
ENCODING 486
SWIDTH 771 0
DWIDTH 15 0
BBX 12 18 1 0
BITMAP
0840
0480
0300
0000
0FC0
1FF0
3030
6000
C000
C000
C000
C030
C030
C030
6030
7030
1FF0
0FC0
ENDCHAR
STARTCHAR 01E7
ENCODING 487
SWIDTH 668 0
DWIDTH 13 0
BBX 11 19 1 -4
BITMAP
3100
1E00
0C00
0000
1E60
7FE0
E0E0
C0E0
C060
C060
C060
C0E0
61E0
3F60
0C60
0040
40C0
FF80
3F00
ENDCHAR
STARTCHAR 01E8
ENCODING 488
SWIDTH 720 0
DWIDTH 14 0
BBX 12 18 2 0
BITMAP
3180
1B00
0E00
0000
C060
C0C0
C180
C300
C600
CE00
DC00
FE00
F700
E300
C180
C0C0
C0E0
C070
ENDCHAR
STARTCHAR 01E9
ENCODING 489
SWIDTH 617 0
DWIDTH 12 0
BBX 12 19 0 0
BITMAP
CC00
7800
3000
0000
3000
3000
3000
3000
3060
30C0
3180
3300
3600
3F00
3B80
3180
30C0
3060
3070
ENDCHAR
STARTCHAR 01EA
ENCODING 490
SWIDTH 822 0
DWIDTH 16 0
BBX 14 18 1 -4
BITMAP
0FC0
1FF0
3038
6018
C00C
C00C
C00C
C00C
C00C
C00C
601C
7038
1FF0
0FC0
0200
0400
0400
0380
ENDCHAR
STARTCHAR 01EB
ENCODING 491
SWIDTH 617 0
DWIDTH 12 0
BBX 11 15 1 -4
BITMAP
1F00
7F80
61C0
C0C0
C040
C060
C040
C0C0
61C0
7F80
1F00
0C00
0800
1800
0E00
ENDCHAR
STARTCHAR 01EE
ENCODING 494
SWIDTH 617 0
DWIDTH 12 0
BBX 10 18 1 0
BITMAP
6100
3600
1C00
0000
FFC0
FF80
0180
0300
0600
0C00
1F00
0780
00C0
00C0
00C0
81C0
FF80
3F00
ENDCHAR
STARTCHAR 01EF
ENCODING 495
SWIDTH 514 0
DWIDTH 10 0
BBX 10 19 0 -4
BITMAP
6200
3C00
1800
0000
FF80
FF80
0300
0600
0600
0C00
1800
1F00
0180
0180
00C0
00C0
8180
FF80
3E00
ENDCHAR
STARTCHAR 01FA
ENCODING 506
SWIDTH 720 0
DWIDTH 14 0
BBX 14 21 0 0
BITMAP
0060
03C0
0480
0480
0480
0300
0000
0300
0780
0780
04C0
0CC0
0C40
1860
1860
3030
3FF0
3FF8
6018
600C
C00C
ENDCHAR
STARTCHAR 01FB
ENCODING 507
SWIDTH 617 0
DWIDTH 12 0
BBX 9 17 1 0
BITMAP
0300
1E00
2200
1200
1C00
0000
3E00
FF00
0180
0180
0180
7F80
C180
C180
C180
E780
3D80
ENDCHAR
STARTCHAR 01FC
ENCODING 508
SWIDTH 1028 0
DWIDTH 20 0
BBX 19 18 0 0
BITMAP
001C00
003800
006000
000000
00FFE0
01FFE0
01E000
036000
066000
066000
0C7FC0
0C7FC0
186000
1FE000
3FE000
606000
607FE0
C07FE0
ENDCHAR
STARTCHAR 01FD
ENCODING 509
SWIDTH 977 0
DWIDTH 19 0
BBX 17 15 1 0
BITMAP
006000
00C000
010000
000000
3E3E00
FF7F00
01C180
018180
018080
7FFF80
C18000
C18000
C1C100
E77F80
3C3E00
ENDCHAR
STARTCHAR 01FE
ENCODING 510
SWIDTH 822 0
DWIDTH 16 0
BBX 14 19 1 -1
BITMAP
00E0
0180
0300
0008
0FD8
1FF0
3038
605C
C0CC
C18C
C10C
C30C
C60C
C40C
681C
3838
1FF0
2FC0
6000
ENDCHAR
STARTCHAR 01FF
ENCODING 511
SWIDTH 617 0
DWIDTH 12 0
BBX 11 16 1 -1
BITMAP
0300
0600
0800
00C0
1F80
7F80
63C0
C2C0
C440
C460
C840
D8C0
71C0
7F80
7F00
4000
ENDCHAR
STARTCHAR 0200
ENCODING 512
SWIDTH 720 0
DWIDTH 14 0
BBX 14 18 0 0
BITMAP
1300
1980
0C80
0000
0300
0780
0780
04C0
0CC0
0C40
1860
1860
3030
3FF0
3FF8
6018
600C
C00C
ENDCHAR
STARTCHAR 0201
ENCODING 513
SWIDTH 617 0
DWIDTH 12 0
BBX 9 15 1 0
BITMAP
CC00
6400
3200
0000
3E00
FF00
0180
0180
0180
7F80
C180
C180
C180
E780
3D80
ENDCHAR
STARTCHAR 0202
ENCODING 514
SWIDTH 720 0
DWIDTH 14 0
BBX 14 18 0 0
BITMAP
0780
0CC0
0840
0000
0300
0780
0780
04C0
0CC0
0C40
1860
1860
3030
3FF0
3FF8
6018
600C
C00C
ENDCHAR
STARTCHAR 0203
ENCODING 515
SWIDTH 617 0
DWIDTH 12 0
BBX 9 15 1 0
BITMAP
1E00
2300
2100
0000
3E00
FF00
0180
0180
0180
7F80
C180
C180
C180
E780
3D80
ENDCHAR
STARTCHAR 0204
ENCODING 516
SWIDTH 668 0
DWIDTH 13 0
BBX 10 18 2 0
BITMAP
CC00
6C00
3600
0000
FFC0
FFC0
C000
C000
C000
C000
FF80
FF80
C000
C000
C000
C000
FFC0
FFC0
ENDCHAR
STARTCHAR 0205
ENCODING 517
SWIDTH 617 0
DWIDTH 12 0
BBX 10 15 1 0
BITMAP
6C00
2600
3200
0000
1E00
7F80
6180
C0C0
C0C0
FFC0
C000
C000
6080
7F80
1F00
ENDCHAR
STARTCHAR 0206
ENCODING 518
SWIDTH 668 0
DWIDTH 13 0
BBX 10 18 2 0
BITMAP
1E00
3300
2100
0000
FFC0
FFC0
C000
C000
C000
C000
FF80
FF80
C000
C000
C000
C000
FFC0
FFC0
ENDCHAR
STARTCHAR 0207
ENCODING 519
SWIDTH 617 0
DWIDTH 12 0
BBX 10 15 1 0
BITMAP
1E00
3300
2100
0000
1E00
7F80
6180
C0C0
C0C0
FFC0
C000
C000
6080
7F80
1F00
ENDCHAR
STARTCHAR 0208
ENCODING 520
SWIDTH 308 0
DWIDTH 6 0
BBX 7 18 -2 0
BITMAP
CC
64
36
00
0C
0C
0C
0C
0C
0C
0C
0C
0C
0C
0C
0C
0C
0C
ENDCHAR
STARTCHAR 0209
ENCODING 521
SWIDTH 257 0
DWIDTH 5 0
BBX 6 15 -1 0
BITMAP
98
C8
64
00
18
18
18
18
18
18
18
18
18
18
18
ENDCHAR
STARTCHAR 020A
ENCODING 522
SWIDTH 308 0
DWIDTH 6 0
BBX 6 18 0 0
BITMAP
78
CC
84
00
30
30
30
30
30
30
30
30
30
30
30
30
30
30
ENDCHAR
STARTCHAR 020B
ENCODING 523
SWIDTH 257 0
DWIDTH 5 0
BBX 5 15 0 0
BITMAP
70
C8
88
00
30
30
30
30
30
30
30
30
30
30
30
ENDCHAR
STARTCHAR 020C
ENCODING 524
SWIDTH 822 0
DWIDTH 16 0
BBX 14 18 1 0
BITMAP
1B00
1980
0C80
0000
0FC0
1FF0
3038
601C
C00C
C00C
C00C
C00C
C00C
C00C
601C
3038
1FF0
0FC0
ENDCHAR
STARTCHAR 020D
ENCODING 525
SWIDTH 617 0
DWIDTH 12 0
BBX 11 15 1 0
BITMAP
6C00
3600
1300
0000
1F00
7F80
61C0
C0C0
C040
C060
C040
C0C0
61C0
7F80
1F00
ENDCHAR
STARTCHAR 020E
ENCODING 526
SWIDTH 822 0
DWIDTH 16 0
BBX 14 18 1 0
BITMAP
0780
0CC0
0840
0000
0FC0
1FF0
3038
601C
C00C
C00C
C00C
C00C
C00C
C00C
601C
3038
1FF0
0FC0
ENDCHAR
STARTCHAR 020F
ENCODING 527
SWIDTH 617 0
DWIDTH 12 0
BBX 11 15 1 0
BITMAP
1E00
3300
2100
0000
1F00
7F80
61C0
C0C0
C040
C060
C040
C0C0
61C0
7F80
1F00
ENDCHAR
STARTCHAR 0210
ENCODING 528
SWIDTH 720 0
DWIDTH 14 0
BBX 11 18 2 0
BITMAP
6C00
6600
3200
0000
FF00
FFC0
C0C0
C060
C060
C060
C060
C0C0
FF80
FF00
C180
C1C0
C0C0
C060
ENDCHAR
STARTCHAR 0211
ENCODING 529
SWIDTH 411 0
DWIDTH 8 0
BBX 7 15 0 0
BITMAP
CC
64
36
00
36
3E
38
30
30
30
30
30
30
30
30
ENDCHAR
STARTCHAR 0212
ENCODING 530
SWIDTH 720 0
DWIDTH 14 0
BBX 11 18 2 0
BITMAP
1E00
3300
2100
0000
FF00
FFC0
C0C0
C060
C060
C060
C060
C0C0
FF80
FF00
C180
C1C0
C0C0
C060
ENDCHAR
STARTCHAR 0213
ENCODING 531
SWIDTH 411 0
DWIDTH 8 0
BBX 7 15 1 0
BITMAP
38
44
C6
00
6C
7C
70
60
60
60
60
60
60
60
60
ENDCHAR
STARTCHAR 0214
ENCODING 532
SWIDTH 771 0
DWIDTH 15 0
BBX 11 18 2 0
BITMAP
6C00
3600
1300
0000
C020
C020
C020
C020
C020
C020
C020
C020
C020
C060
C060
60E0
7FC0
1F00
ENDCHAR
STARTCHAR 0215
ENCODING 533
SWIDTH 668 0
DWIDTH 13 0
BBX 9 15 2 0
BITMAP
CC00
6400
3600
0000
C180
C180
C180
C180
C180
C180
C180
C180
C180
7E80
3C80
ENDCHAR
STARTCHAR 0216
ENCODING 534
SWIDTH 771 0
DWIDTH 15 0
BBX 11 18 2 0
BITMAP
0F00
1180
1080
0000
C020
C020
C020
C020
C020
C020
C020
C020
C020
C060
C060
60E0
7FC0
1F00
ENDCHAR
STARTCHAR 0217
ENCODING 535
SWIDTH 668 0
DWIDTH 13 0
BBX 9 15 2 0
BITMAP
1C00
2200
6300
0000
C180
C180
C180
C180
C180
C180
C180
C180
C180
7E80
3C80
ENDCHAR
STARTCHAR 0218
ENCODING 536
SWIDTH 617 0
DWIDTH 12 0
BBX 10 19 1 -5
BITMAP
3F00
7FC0
E000
C000
C000
E000
7C00
1F80
01C0
00C0
00C0
C0C0
FF80
3F00
0000
0000
0C00
0400
0400
ENDCHAR
STARTCHAR 0219
ENCODING 537
SWIDTH 514 0
DWIDTH 10 0
BBX 8 16 1 -5
BITMAP
3E
FF
C0
C0
E0
7E
0F
03
83
FF
7C
00
00
18
18
10
ENDCHAR
STARTCHAR 021A
ENCODING 538
SWIDTH 565 0
DWIDTH 11 0
BBX 11 19 0 -5
BITMAP
FFE0
FFE0
0600
0600
0600
0600
0600
0600
0600
0600
0600
0600
0600
0600
0000
0000
0600
0400
0400
ENDCHAR
STARTCHAR 021B
ENCODING 539
SWIDTH 411 0
DWIDTH 8 0
BBX 7 18 0 -5
BITMAP
30
30
FE
FE
30
30
30
30
30
30
30
3E
1E
00
00
0C
04
08
ENDCHAR
STARTCHAR 021E
ENCODING 542
SWIDTH 822 0
DWIDTH 16 0
BBX 12 18 2 0
BITMAP
3080
1B00
0E00
0000
C030
C030
C030
C030
C030
C030
FFF0
FFF0
C030
C030
C030
C030
C030
C030
ENDCHAR
STARTCHAR 021F
ENCODING 543
SWIDTH 668 0
DWIDTH 13 0
BBX 12 19 0 0
BITMAP
CC00
7800
3000
0000
3000
3000
3000
3000
3780
3FE0
3860
3060
3030
3030
3030
3030
3030
3030
3030
ENDCHAR
STARTCHAR 022A
ENCODING 554
SWIDTH 822 0
DWIDTH 16 0
BBX 14 19 1 0
BITMAP
0FC0
0000
04C0
04C0
0000
0FC0
1FF0
3038
601C
C00C
C00C
C00C
C00C
C00C
C00C
601C
3038
1FF0
0FC0
ENDCHAR
STARTCHAR 022B
ENCODING 555
SWIDTH 617 0
DWIDTH 12 0
BBX 11 17 1 0
BITMAP
3F00
0000
1300
1300
0000
0000
1F00
7F80
61C0
C0C0
C040
C060
C040
C0C0
61C0
7F80
1F00
ENDCHAR
STARTCHAR 022C
ENCODING 556
SWIDTH 822 0
DWIDTH 16 0
BBX 14 19 1 0
BITMAP
0FC0
0000
0E40
09C0
0000
0FC0
1FF0
3038
601C
C00C
C00C
C00C
C00C
C00C
C00C
601C
3038
1FF0
0FC0
ENDCHAR
STARTCHAR 022D
ENCODING 557
SWIDTH 617 0
DWIDTH 12 0
BBX 11 16 1 0
BITMAP
3F00
0000
3900
2700
0000
1F00
7F80
61C0
C0C0
C040
C060
C040
C0C0
61C0
7F80
1F00
ENDCHAR
STARTCHAR 0230
ENCODING 560
SWIDTH 822 0
DWIDTH 16 0
BBX 14 19 1 0
BITMAP
0FC0
0000
0300
0300
0000
0FC0
1FF0
3038
601C
C00C
C00C
C00C
C00C
C00C
C00C
601C
3038
1FF0
0FC0
ENDCHAR
STARTCHAR 0231
ENCODING 561
SWIDTH 617 0
DWIDTH 12 0
BBX 11 17 1 0
BITMAP
3F00
0000
0C00
0C00
0000
0000
1F00
7F80
61C0
C0C0
C040
C060
C040
C0C0
61C0
7F80
1F00
ENDCHAR
STARTCHAR 0232
ENCODING 562
SWIDTH 668 0
DWIDTH 13 0
BBX 12 17 0 0
BITMAP
1F80
0000
0000
C030
6030
6060
3060
18C0
1980
0D80
0F00
0700
0600
0600
0600
0600
0600
ENDCHAR
STARTCHAR 0233
ENCODING 563
SWIDTH 565 0
DWIDTH 11 0
BBX 11 18 0 -4
BITMAP
3F00
0000
0000
C060
60C0
60C0
6080
3180
3180
1B00
1B00
1A00
0E00
0E00
0C00
0C00
F800
F000
ENDCHAR
STARTCHAR 0237
ENCODING 567
SWIDTH 308 0
DWIDTH 6 0
BBX 6 15 -2 -4
BITMAP
0C
0C
0C
0C
0C
0C
0C
0C
0C
0C
0C
0C
0C
78
F0
ENDCHAR
STARTCHAR 0259
ENCODING 601
SWIDTH 617 0
DWIDTH 12 0
BBX 10 11 1 0
BITMAP
3E00
7F80
4180
00C0
00C0
FFC0
C0C0
C0C0
6180
7F80
1E00
ENDCHAR
STARTCHAR 0292
ENCODING 658
SWIDTH 514 0
DWIDTH 10 0
BBX 10 15 0 -4
BITMAP
FF80
FF80
0300
0600
0600
0C00
1800
1F00
0180
0180
00C0
00C0
8180
FF80
3E00
ENDCHAR
STARTCHAR 02B9
ENCODING 697
SWIDTH 205 0
DWIDTH 4 0
BBX 2 5 1 9
BITMAP
C0
C0
C0
C0
C0
ENDCHAR
STARTCHAR 02BA
ENCODING 698
SWIDTH 411 0
DWIDTH 8 0
BBX 5 5 1 9
BITMAP
C8
C8
C8
C8
C8
ENDCHAR
STARTCHAR 02BB
ENCODING 699
SWIDTH 257 0
DWIDTH 5 0
BBX 3 5 1 12
BITMAP
60
40
40
E0
E0
ENDCHAR
STARTCHAR 02BC
ENCODING 700
SWIDTH 154 0
DWIDTH 3 0
BBX 1 5 1 9
BITMAP
80
80
80
80
80
ENDCHAR
STARTCHAR 02BE
ENCODING 702
SWIDTH 617 0
DWIDTH 12 0
BBX 2 5 6 11
BITMAP
80
40
40
40
80
ENDCHAR
STARTCHAR 02BF
ENCODING 703
SWIDTH 617 0
DWIDTH 12 0
BBX 2 5 4 11
BITMAP
40
80
80
80
40
ENDCHAR
STARTCHAR 02C6
ENCODING 710
SWIDTH 617 0
DWIDTH 12 0
BBX 6 3 3 12
BITMAP
30
78
CC
ENDCHAR
STARTCHAR 02C7
ENCODING 711
SWIDTH 617 0
DWIDTH 12 0
BBX 7 3 2 12
BITMAP
C2
6C
38
ENDCHAR
STARTCHAR 02C8
ENCODING 712
SWIDTH 154 0
DWIDTH 3 0
BBX 1 4 1 10
BITMAP
80
80
80
80
ENDCHAR
STARTCHAR 02C9
ENCODING 713
SWIDTH 617 0
DWIDTH 12 0
BBX 6 1 3 13
BITMAP
FC
ENDCHAR
STARTCHAR 02CA
ENCODING 714
SWIDTH 617 0
DWIDTH 12 0
BBX 4 3 5 12
BITMAP
30
60
C0
ENDCHAR
STARTCHAR 02CB
ENCODING 715
SWIDTH 617 0
DWIDTH 12 0
BBX 5 3 2 12
BITMAP
E0
30
18
ENDCHAR
STARTCHAR 02CC
ENCODING 716
SWIDTH 154 0
DWIDTH 3 0
BBX 1 4 1 -4
BITMAP
80
80
80
80
ENDCHAR
STARTCHAR 02D8
ENCODING 728
SWIDTH 617 0
DWIDTH 12 0
BBX 6 3 3 12
BITMAP
84
8C
78
ENDCHAR
STARTCHAR 02D9
ENCODING 729
SWIDTH 617 0
DWIDTH 12 0
BBX 2 2 5 13
BITMAP
C0
C0
ENDCHAR
STARTCHAR 02DA
ENCODING 730
SWIDTH 617 0
DWIDTH 12 0
BBX 4 5 4 11
BITMAP
60
90
90
90
60
ENDCHAR
STARTCHAR 02DB
ENCODING 731
SWIDTH 617 0
DWIDTH 12 0
BBX 4 4 2 -3
BITMAP
60
C0
C0
70
ENDCHAR
STARTCHAR 02DC
ENCODING 732
SWIDTH 617 0
DWIDTH 12 0
BBX 6 2 3 13
BITMAP
E4
9C
ENDCHAR
STARTCHAR 02DD
ENCODING 733
SWIDTH 617 0
DWIDTH 12 0
BBX 6 3 4 12
BITMAP
6C
CC
98
ENDCHAR
STARTCHAR 0300
ENCODING 768
SWIDTH 0 0
DWIDTH 0 0
BBX 4 3 -9 12
BITMAP
C0
60
30
ENDCHAR
STARTCHAR 0301
ENCODING 769
SWIDTH 0 0
DWIDTH 0 0
BBX 5 3 -7 12
BITMAP
38
60
C0
ENDCHAR
STARTCHAR 0302
ENCODING 770
SWIDTH 0 0
DWIDTH 0 0
BBX 6 3 -9 12
BITMAP
30
78
CC
ENDCHAR
STARTCHAR 0303
ENCODING 771
SWIDTH 0 0
DWIDTH 0 0
BBX 6 2 -9 13
BITMAP
E4
9C
ENDCHAR
STARTCHAR 0304
ENCODING 772
SWIDTH 0 0
DWIDTH 0 0
BBX 6 1 -9 13
BITMAP
FC
ENDCHAR
STARTCHAR 0306
ENCODING 774
SWIDTH 0 0
DWIDTH 0 0
BBX 6 3 -9 12
BITMAP
84
C4
78
ENDCHAR
STARTCHAR 0307
ENCODING 775
SWIDTH 0 0
DWIDTH 0 0
BBX 2 2 -7 13
BITMAP
C0
C0
ENDCHAR
STARTCHAR 0308
ENCODING 776
SWIDTH 0 0
DWIDTH 0 0
BBX 6 2 -9 12
BITMAP
CC
CC
ENDCHAR
STARTCHAR 0309
ENCODING 777
SWIDTH 0 0
DWIDTH 0 0
BBX 4 4 -8 12
BITMAP
F0
10
10
20
ENDCHAR
STARTCHAR 030A
ENCODING 778
SWIDTH 0 0
DWIDTH 0 0
BBX 4 5 -8 11
BITMAP
60
90
90
90
60
ENDCHAR
STARTCHAR 030B
ENCODING 779
SWIDTH 0 0
DWIDTH 0 0
BBX 7 3 -8 12
BITMAP
66
6C
D8
ENDCHAR
STARTCHAR 030C
ENCODING 780
SWIDTH 0 0
DWIDTH 0 0
BBX 7 3 -9 12
BITMAP
86
6C
38
ENDCHAR
STARTCHAR 030F
ENCODING 783
SWIDTH 0 0
DWIDTH 0 0
BBX 6 3 -10 12
BITMAP
D8
CC
64
ENDCHAR
STARTCHAR 0311
ENCODING 785
SWIDTH 0 0
DWIDTH 0 0
BBX 6 3 -9 12
BITMAP
78
CC
84
ENDCHAR
STARTCHAR 0312
ENCODING 786
SWIDTH 0 0
DWIDTH 0 0
BBX 2 4 -7 12
BITMAP
40
40
C0
C0
ENDCHAR
STARTCHAR 031B
ENCODING 795
SWIDTH 0 0
DWIDTH 0 0
BBX 3 4 -6 10
BITMAP
40
60
60
C0
ENDCHAR
STARTCHAR 0323
ENCODING 803
SWIDTH 0 0
DWIDTH 0 0
BBX 2 2 -7 -4
BITMAP
C0
C0
ENDCHAR
STARTCHAR 0324
ENCODING 804
SWIDTH 0 0
DWIDTH 0 0
BBX 5 2 -8 -4
BITMAP
98
98
ENDCHAR
STARTCHAR 0326
ENCODING 806
SWIDTH 0 0
DWIDTH 0 0
BBX 2 3 -7 -5
BITMAP
C0
40
C0
ENDCHAR
STARTCHAR 0327
ENCODING 807
SWIDTH 0 0
DWIDTH 0 0
BBX 4 4 -8 -4
BITMAP
60
70
10
F0
ENDCHAR
STARTCHAR 0328
ENCODING 808
SWIDTH 0 0
DWIDTH 0 0
BBX 4 4 -9 -3
BITMAP
E0
80
80
F0
ENDCHAR
STARTCHAR 032E
ENCODING 814
SWIDTH 0 0
DWIDTH 0 0
BBX 6 2 -9 -4
BITMAP
C4
78
ENDCHAR
STARTCHAR 0331
ENCODING 817
SWIDTH 0 0
DWIDTH 0 0
BBX 6 1 -9 -3
BITMAP
FC
ENDCHAR
STARTCHAR 0335
ENCODING 821
SWIDTH 0 0
DWIDTH 0 0
BBX 8 1 -10 8
BITMAP
FF
ENDCHAR
STARTCHAR 0336
ENCODING 822
SWIDTH 0 0
DWIDTH 0 0
BBX 15 2 -16 8
BITMAP
FFFE
FFFE
ENDCHAR
STARTCHAR 0337
ENCODING 823
SWIDTH 0 0
DWIDTH 0 0
BBX 5 5 -7 5
BITMAP
08
18
30
E0
80
ENDCHAR
STARTCHAR 0338
ENCODING 824
SWIDTH 0 0
DWIDTH 0 0
BBX 9 13 -11 -1
BITMAP
0080
0080
0100
0300
0200
0400
0C00
0800
1000
3000
2000
4000
C000
ENDCHAR
STARTCHAR 0394
ENCODING 916
SWIDTH 720 0
DWIDTH 14 0
BBX 14 14 0 0
BITMAP
0300
0780
0780
04C0
0CC0
0C40
1860
1860
3030
3030
2018
6018
7FFC
FFFC
ENDCHAR
STARTCHAR 03A9
ENCODING 937
SWIDTH 874 0
DWIDTH 17 0
BBX 17 14 0 0
BITMAP
03F000
0FF800
1C0C00
380600
300700
300300
200300
200300
300300
300600
380600
180C00
FE1F80
FE1F80
ENDCHAR
STARTCHAR 03BC
ENCODING 956
SWIDTH 668 0
DWIDTH 13 0
BBX 9 15 2 -4
BITMAP
C080
C080
C080
C080
C080
C080
C080
C180
C180
FF80
FC80
C000
C000
C000
C000
ENDCHAR
STARTCHAR 03C0
ENCODING 960
SWIDTH 720 0
DWIDTH 14 0
BBX 14 11 0 0
BITMAP
7FFC
FFFC
CC60
8C60
CC60
0C60
0C60
0C60
0C60
0860
1860
ENDCHAR
STARTCHAR 0400
ENCODING 1024
SWIDTH 668 0
DWIDTH 13 0
BBX 10 18 2 0
BITMAP
7000
1800
0C00
0000
FFC0
FFC0
C000
C000
C000
C000
FF80
FF80
C000
C000
C000
C000
FFC0
FFC0
ENDCHAR
STARTCHAR 0401
ENCODING 1025
SWIDTH 668 0
DWIDTH 13 0
BBX 10 17 2 0
BITMAP
3300
3300
0000
FFC0
FFC0
C000
C000
C000
C000
FF80
FF80
C000
C000
C000
C000
FFC0
FFC0
ENDCHAR
STARTCHAR 0402
ENCODING 1026
SWIDTH 822 0
DWIDTH 16 0
BBX 15 14 0 0
BITMAP
FFF0
FFF0
0600
0600
0600
0670
07FC
070E
0606
0602
0606
0606
067E
0678
ENDCHAR
STARTCHAR 0403
ENCODING 1027
SWIDTH 565 0
DWIDTH 11 0
BBX 9 18 2 0
BITMAP
0300
0600
1800
0000
FF80
FF80
C000
C000
C000
C000
C000
C000
C000
C000
C000
C000
C000
C000
ENDCHAR
STARTCHAR 0404
ENCODING 1028
SWIDTH 720 0
DWIDTH 14 0
BBX 12 14 1 0
BITMAP
0FC0
1FF0
3030
6000
E000
C000
FF80
FF80
C000
E000
6000
7030
3FF0
0FC0
ENDCHAR
STARTCHAR 0405
ENCODING 1029
SWIDTH 617 0
DWIDTH 12 0
BBX 10 14 1 0
BITMAP
1F00
7FC0
6000
C000
C000
6000
7E00
1F80
01C0
00C0
0040
C0C0
FFC0
3F00
ENDCHAR
STARTCHAR 0406
ENCODING 1030
SWIDTH 308 0
DWIDTH 6 0
BBX 2 14 2 0
BITMAP
C0
C0
C0
C0
C0
C0
C0
C0
C0
C0
C0
C0
C0
C0
ENDCHAR
STARTCHAR 0407
ENCODING 1031
SWIDTH 308 0
DWIDTH 6 0
BBX 6 17 0 0
BITMAP
CC
CC
00
30
30
30
30
30
30
30
30
30
30
30
30
30
30
ENDCHAR
STARTCHAR 0408
ENCODING 1032
SWIDTH 565 0
DWIDTH 11 0
BBX 8 14 1 0
BITMAP
7F
7F
03
03
03
03
03
03
03
03
02
86
FE
7C
ENDCHAR
STARTCHAR 0409
ENCODING 1033
SWIDTH 1182 0
DWIDTH 23 0
BBX 22 14 0 0
BITMAP
0FF800
0FF800
081800
081800
181800
181FF0
181FF8
18180C
18180C
18180C
18180C
30180C
F01FF8
E01FF0
ENDCHAR
STARTCHAR 040A
ENCODING 1034
SWIDTH 1182 0
DWIDTH 23 0
BBX 20 14 2 0
BITMAP
C03000
C03000
C03000
C03000
C03000
FFFF00
FFFFE0
C03070
C03030
C03030
C03030
C03030
C03FE0
C03FC0
ENDCHAR
STARTCHAR 040B
ENCODING 1035
SWIDTH 822 0
DWIDTH 16 0
BBX 15 14 0 0
BITMAP
FFF0
FFF0
0600
0600
0600
0670
07FC
070E
0606
0606
0606
0606
0606
0606
ENDCHAR
STARTCHAR 040C
ENCODING 1036
SWIDTH 720 0
DWIDTH 14 0
BBX 11 18 2 0
BITMAP
0380
0600
0C00
0000
C060
C0C0
C180
C180
C300
C600
FE00
FE00
C700
C300
C180
C0C0
C0C0
C060
ENDCHAR
STARTCHAR 040D
ENCODING 1037
SWIDTH 822 0
DWIDTH 16 0
BBX 12 18 2 0
BITMAP
3800
0C00
0600
0000
C030
C070
C0F0
C1F0
C1B0
C330
C730
CE30
CC30
D830
F830
F030
E030
C030
ENDCHAR
STARTCHAR 040E
ENCODING 1038
SWIDTH 668 0
DWIDTH 13 0
BBX 12 18 1 0
BITMAP
3080
3180
1F00
0000
C030
C020
6060
6040
30C0
3180
1980
1B00
0F00
0E00
0600
0C00
7800
7000
ENDCHAR
STARTCHAR 040F
ENCODING 1039
SWIDTH 822 0
DWIDTH 16 0
BBX 12 17 2 -3
BITMAP
C030
C030
C030
C030
C030
C030
C030
C030
C030
C030
C030
C030
FFF0
FFF0
0600
0600
0600
ENDCHAR
STARTCHAR 0410
ENCODING 1040
SWIDTH 771 0
DWIDTH 15 0
BBX 14 14 0 0
BITMAP
0380
0380
0680
06C0
0CC0
0C60
0860
1830
1830
3FF8
3FF8
6018
600C
C00C
ENDCHAR
STARTCHAR 0411
ENCODING 1041
SWIDTH 720 0
DWIDTH 14 0
BBX 11 14 2 0
BITMAP
FFC0
FFC0
C000
C000
C000
FE00
FFC0
C0E0
C060
C060
C060
C060
FFC0
FF80
ENDCHAR
STARTCHAR 0412
ENCODING 1042
SWIDTH 771 0
DWIDTH 15 0
BBX 11 14 2 0
BITMAP
FF80
FFC0
C0E0
C060
C060
C0C0
FF80
C1C0
C060
C060
C060
C060
FFE0
FF80
ENDCHAR
STARTCHAR 0413
ENCODING 1043
SWIDTH 565 0
DWIDTH 11 0
BBX 9 14 2 0
BITMAP
FF80
FF80
C000
C000
C000
C000
C000
C000
C000
C000
C000
C000
C000
C000
ENDCHAR
STARTCHAR 0414
ENCODING 1044
SWIDTH 822 0
DWIDTH 16 0
BBX 15 17 0 -3
BITMAP
1FF8
1FF8
1818
1818
1818
1818
1818
1818
1818
1818
1018
3018
FFFE
FFFE
C006
C006
C006
ENDCHAR
STARTCHAR 0415
ENCODING 1045
SWIDTH 668 0
DWIDTH 13 0
BBX 10 14 2 0
BITMAP
FFC0
FFC0
C000
C000
C000
C000
FF80
FF80
C000
C000
C000
C000
FFC0
FFC0
ENDCHAR
STARTCHAR 0416
ENCODING 1046
SWIDTH 1028 0
DWIDTH 20 0
BBX 18 14 1 0
BITMAP
C0C0C0
60C180
60C180
30C300
10C600
18C600
0FFC00
1FFE00
18C600
30C300
70C300
60C180
E0C1C0
C0C0C0
ENDCHAR
STARTCHAR 0417
ENCODING 1047
SWIDTH 617 0
DWIDTH 12 0
BBX 10 14 1 0
BITMAP
3E00
FF80
01C0
00C0
00C0
0180
3F00
3F80
00C0
00C0
00C0
81C0
FF80
3F00
ENDCHAR
STARTCHAR 0418
ENCODING 1048
SWIDTH 822 0
DWIDTH 16 0
BBX 12 14 2 0
BITMAP
C030
C070
C0F0
C1F0
C1B0
C330
C730
CE30
CC30
D830
F830
F030
E030
C030
ENDCHAR
STARTCHAR 0419
ENCODING 1049
SWIDTH 822 0
DWIDTH 16 0
BBX 12 18 2 0
BITMAP
1080
1180
0F00
0000
C030
C070
C0F0
C1F0
C1B0
C330
C730
CE30
CC30
D830
F830
F030
E030
C030
ENDCHAR
STARTCHAR 041A
ENCODING 1050
SWIDTH 720 0
DWIDTH 14 0
BBX 11 14 2 0
BITMAP
C060
C0C0
C180
C180
C300
C600
FE00
FE00
C700
C300
C180
C0C0
C0C0
C060
ENDCHAR
STARTCHAR 041B
ENCODING 1051
SWIDTH 771 0
DWIDTH 15 0
BBX 13 14 0 0
BITMAP
0FF8
0FF8
0818
0818
1818
1818
1818
1818
1818
1818
1818
3018
F018
E018
ENDCHAR
STARTCHAR 041C
ENCODING 1052
SWIDTH 977 0
DWIDTH 19 0
BBX 15 14 2 0
BITMAP
C006
E00E
E00E
F01E
F036
D836
C866
CC66
C6C6
C686
C386
C306
C006
C006
ENDCHAR
STARTCHAR 041D
ENCODING 1053
SWIDTH 822 0
DWIDTH 16 0
BBX 12 14 2 0
BITMAP
C030
C030
C030
C030
C030
C030
FFF0
FFF0
C030
C030
C030
C030
C030
C030
ENDCHAR
STARTCHAR 041E
ENCODING 1054
SWIDTH 822 0
DWIDTH 16 0
BBX 14 14 1 0
BITMAP
0FC0
1FF0
3038
601C
E00C
C00C
C00C
C00C
C00C
E00C
601C
3038
1FF0
0FC0
ENDCHAR
STARTCHAR 041F
ENCODING 1055
SWIDTH 822 0
DWIDTH 16 0
BBX 12 14 2 0
BITMAP
FFF0
FFF0
C030
C030
C030
C030
C030
C030
C030
C030
C030
C030
C030
C030
ENDCHAR
STARTCHAR 0420
ENCODING 1056
SWIDTH 720 0
DWIDTH 14 0
BBX 11 14 2 0
BITMAP
FF00
FFC0
C0E0
C060
C060
C060
C060
C0C0
FF80
FE00
C000
C000
C000
C000
ENDCHAR
STARTCHAR 0421
ENCODING 1057
SWIDTH 720 0
DWIDTH 14 0
BBX 12 14 1 0
BITMAP
0FC0
1FF0
3030
6000
E000
C000
C000
C000
C000
E000
6000
3030
1FF0
0FC0
ENDCHAR
STARTCHAR 0422
ENCODING 1058
SWIDTH 617 0
DWIDTH 12 0
BBX 11 14 0 0
BITMAP
FFE0
FFE0
0600
0600
0600
0600
0600
0600
0600
0600
0600
0600
0600
0600
ENDCHAR
STARTCHAR 0423
ENCODING 1059
SWIDTH 668 0
DWIDTH 13 0
BBX 12 14 1 0
BITMAP
C030
C020
6060
6040
30C0
3180
1980
1B00
0F00
0E00
0600
0C00
7800
7000
ENDCHAR
STARTCHAR 0424
ENCODING 1060
SWIDTH 925 0
DWIDTH 18 0
BBX 16 14 1 0
BITMAP
0180
0180
1FF8
718E
6186
C183
C183
C183
C183
C183
6186
3FFC
0FF0
0180
ENDCHAR
STARTCHAR 0425
ENCODING 1061
SWIDTH 668 0
DWIDTH 13 0
BBX 11 14 1 0
BITMAP
C060
60C0
71C0
3180
1B00
1F00
0E00
0E00
1B00
3B80
3180
60C0
E0E0
C060
ENDCHAR
STARTCHAR 0426
ENCODING 1062
SWIDTH 822 0
DWIDTH 16 0
BBX 14 17 2 -3
BITMAP
C030
C030
C030
C030
C030
C030
C030
C030
C030
C030
C030
C030
FFFC
FFFC
000C
000C
000C
ENDCHAR
STARTCHAR 0427
ENCODING 1063
SWIDTH 720 0
DWIDTH 14 0
BBX 11 14 1 0
BITMAP
C060
C060
C060
C060
C060
C060
E060
7FE0
1F60
0060
0060
0060
0060
0060
ENDCHAR
STARTCHAR 0428
ENCODING 1064
SWIDTH 1080 0
DWIDTH 21 0
BBX 17 14 2 0
BITMAP
C0C180
C0C180
C0C180
C0C180
C0C180
C0C180
C0C180
C0C180
C0C180
C0C180
C0C180
C0C180
FFFF80
FFFF80
ENDCHAR
STARTCHAR 0429
ENCODING 1065
SWIDTH 1131 0
DWIDTH 22 0
BBX 19 17 2 -3
BITMAP
C0C180
C0C180
C0C180
C0C180
C0C180
C0C180
C0C180
C0C180
C0C180
C0C180
C0C180
C0C180
FFFFE0
FFFFE0
000060
000060
000060
ENDCHAR
STARTCHAR 042A
ENCODING 1066
SWIDTH 822 0
DWIDTH 16 0
BBX 15 14 0 0
BITMAP
FC00
FC00
0C00
0C00
0C00
0FF8
0FFC
0C06
0C06
0C06
0C06
0C06
0FFC
0FF8
ENDCHAR
STARTCHAR 042B
ENCODING 1067
SWIDTH 977 0
DWIDTH 19 0
BBX 15 14 2 0
BITMAP
C006
C006
C006
C006
C006
FF86
FFC6
C066
C066
C066
C066
C0E6
FFC6
FF86
ENDCHAR
STARTCHAR 042C
ENCODING 1068
SWIDTH 720 0
DWIDTH 14 0
BBX 11 14 2 0
BITMAP
C000
C000
C000
C000
C000
FF80
FFC0
C060
C060
C060
C060
C0E0
FFC0
FF80
ENDCHAR
STARTCHAR 042D
ENCODING 1069
SWIDTH 720 0
DWIDTH 14 0
BBX 12 14 1 0
BITMAP
3F00
FF80
C1C0
0060
0060
0030
1FF0
1FF0
0030
0060
0060
C1C0
FF80
3F00
ENDCHAR
STARTCHAR 042E
ENCODING 1070
SWIDTH 1080 0
DWIDTH 21 0
BBX 18 14 2 0
BITMAP
C07C00
C1FF00
C38380
C70180
C600C0
C600C0
FC00C0
FC00C0
C600C0
C600C0
C70180
C38380
C1FF00
C07C00
ENDCHAR
STARTCHAR 042F
ENCODING 1071
SWIDTH 720 0
DWIDTH 14 0
BBX 11 14 1 0
BITMAP
1FE0
7FE0
6060
C060
C060
C060
C060
6060
7FE0
1FE0
1860
3060
6060
E060
ENDCHAR
STARTCHAR 0430
ENCODING 1072
SWIDTH 565 0
DWIDTH 11 0
BBX 9 11 1 0
BITMAP
3E00
FF00
0380
0180
0180
7F80
C180
C180
C180
E780
7D80
ENDCHAR
STARTCHAR 0431
ENCODING 1073
SWIDTH 668 0
DWIDTH 13 0
BBX 11 15 1 0
BITMAP
01C0
0FC0
3C00
7000
6000
4F00
FFC0
E0C0
E060
C060
C060
6060
60C0
3FC0
1F00
ENDCHAR
STARTCHAR 0432
ENCODING 1074
SWIDTH 617 0
DWIDTH 12 0
BBX 9 11 2 0
BITMAP
FE00
C700
C100
C100
C300
FF00
C380
C180
C180
C700
FE00
ENDCHAR
STARTCHAR 0433
ENCODING 1075
SWIDTH 462 0
DWIDTH 9 0
BBX 7 11 2 0
BITMAP
FE
FE
C0
C0
C0
C0
C0
C0
C0
C0
C0
ENDCHAR
STARTCHAR 0434
ENCODING 1076
SWIDTH 668 0
DWIDTH 13 0
BBX 12 13 0 -2
BITMAP
1FE0
1FE0
1060
1060
1060
3060
3060
3060
3060
FFF0
FFF0
C010
C010
ENDCHAR
STARTCHAR 0435
ENCODING 1077
SWIDTH 617 0
DWIDTH 12 0
BBX 10 11 1 0
BITMAP
1E00
7F80
6180
C0C0
C0C0
FFC0
C000
C000
6080
7F80
1F00
ENDCHAR
STARTCHAR 0436
ENCODING 1078
SWIDTH 874 0
DWIDTH 17 0
BBX 15 11 1 0
BITMAP
C306
C30C
630C
2318
3330
1FF0
3FF0
3318
631C
C30C
C306
ENDCHAR
STARTCHAR 0437
ENCODING 1079
SWIDTH 565 0
DWIDTH 11 0
BBX 9 11 1 0
BITMAP
7C00
FF00
0300
0300
0700
3E00
0300
0180
0300
FF00
7C00
ENDCHAR
STARTCHAR 0438
ENCODING 1080
SWIDTH 668 0
DWIDTH 13 0
BBX 10 11 2 0
BITMAP
C0C0
C1C0
C3C0
C6C0
CEC0
CCC0
D8C0
F0C0
E0C0
E0C0
C0C0
ENDCHAR
STARTCHAR 0439
ENCODING 1081
SWIDTH 668 0
DWIDTH 13 0
BBX 10 15 2 0
BITMAP
2300
2200
1E00
0000
C0C0
C1C0
C3C0
C6C0
CEC0
CCC0
D8C0
F0C0
E0C0
E0C0
C0C0
ENDCHAR
STARTCHAR 043A
ENCODING 1082
SWIDTH 617 0
DWIDTH 12 0
BBX 9 11 2 0
BITMAP
C180
C300
C200
C600
CC00
F800
FC00
C600
C700
C300
C180
ENDCHAR
STARTCHAR 043B
ENCODING 1083
SWIDTH 617 0
DWIDTH 12 0
BBX 11 11 0 0
BITMAP
1FE0
1FE0
1060
1060
1060
3060
3060
3060
3060
E060
E060
ENDCHAR
STARTCHAR 043C
ENCODING 1084
SWIDTH 822 0
DWIDTH 16 0
BBX 12 11 2 0
BITMAP
C030
E070
E070
F0F0
F1B0
D9B0
CB30
CE30
C630
C430
C030
ENDCHAR
STARTCHAR 043D
ENCODING 1085
SWIDTH 668 0
DWIDTH 13 0
BBX 9 11 2 0
BITMAP
C080
C080
C080
C080
C080
FF80
FF80
C080
C080
C080
C080
ENDCHAR
STARTCHAR 043E
ENCODING 1086
SWIDTH 617 0
DWIDTH 12 0
BBX 11 11 1 0
BITMAP
1F00
7F80
61C0
C0C0
C040
C060
C040
C0C0
60C0
7F80
1F00
ENDCHAR
STARTCHAR 043F
ENCODING 1087
SWIDTH 668 0
DWIDTH 13 0
BBX 9 11 2 0
BITMAP
FF80
FF80
C180
C180
C180
C180
C180
C180
C180
C180
C180
ENDCHAR
STARTCHAR 0440
ENCODING 1088
SWIDTH 668 0
DWIDTH 13 0
BBX 10 15 2 -4
BITMAP
DF00
FF80
E1C0
C0C0
C0C0
C040
C0C0
C0C0
E1C0
FF80
DF00
C000
C000
C000
C000
ENDCHAR
STARTCHAR 0441
ENCODING 1089
SWIDTH 565 0
DWIDTH 11 0
BBX 9 11 1 0
BITMAP
1F00
7F80
6180
C000
C000
C000
C000
C000
6080
7F80
1F00
ENDCHAR
STARTCHAR 0442
ENCODING 1090
SWIDTH 514 0
DWIDTH 10 0
BBX 9 11 0 0
BITMAP
FF80
FF80
0C00
0C00
0C00
0C00
0C00
0C00
0C00
0C00
0C00
ENDCHAR
STARTCHAR 0443
ENCODING 1091
SWIDTH 565 0
DWIDTH 11 0
BBX 11 15 0 -4
BITMAP
C060
6040
60C0
20C0
3180
3180
1900
1B00
0A00
0E00
0E00
0C00
0C00
F800
F000
ENDCHAR
STARTCHAR 0444
ENCODING 1092
SWIDTH 822 0
DWIDTH 16 0
BBX 14 19 1 -4
BITMAP
0300
0300
0300
0300
1FC0
7FF0
6318
C31C
C30C
C30C
C30C
C318
6318
7FF0
1FC0
0300
0300
0300
0300
ENDCHAR
STARTCHAR 0445
ENCODING 1093
SWIDTH 565 0
DWIDTH 11 0
BBX 9 11 1 0
BITMAP
C180
E300
6600
3600
1C00
1800
3C00
3600
6700
C300
C180
ENDCHAR
STARTCHAR 0446
ENCODING 1094
SWIDTH 668 0
DWIDTH 13 0
BBX 11 13 2 -2
BITMAP
C180
C180
C180
C180
C180
C180
C180
C180
C180
FFE0
FFE0
0060
0060
ENDCHAR
STARTCHAR 0447
ENCODING 1095
SWIDTH 617 0
DWIDTH 12 0
BBX 9 11 1 0
BITMAP
C180
C180
C180
C180
C180
C180
7F80
1980
0180
0180
0180
ENDCHAR
STARTCHAR 0448
ENCODING 1096
SWIDTH 925 0
DWIDTH 18 0
BBX 14 11 2 0
BITMAP
C304
C304
C304
C304
C304
C304
C304
C304
C304
FFFC
FFFC
ENDCHAR
STARTCHAR 0449
ENCODING 1097
SWIDTH 925 0
DWIDTH 18 0
BBX 16 13 2 -2
BITMAP
C304
C304
C304
C304
C304
C304
C304
C304
C304
FFFF
FFFF
0003
0003
ENDCHAR
STARTCHAR 044A
ENCODING 1098
SWIDTH 617 0
DWIDTH 12 0
BBX 12 11 0 0
BITMAP
F800
F800
1800
1800
1FE0
1860
1830
1830
1830
18E0
1FC0
ENDCHAR
STARTCHAR 044B
ENCODING 1099
SWIDTH 822 0
DWIDTH 16 0
BBX 12 11 2 0
BITMAP
C030
C030
C030
C030
FE30
C330
C330
C130
C330
C730
FE30
ENDCHAR
STARTCHAR 044C
ENCODING 1100
SWIDTH 565 0
DWIDTH 11 0
BBX 9 11 2 0
BITMAP
C000
C000
C000
C000
FE00
C300
C180
C180
C300
C700
FE00
ENDCHAR
STARTCHAR 044D
ENCODING 1101
SWIDTH 565 0
DWIDTH 11 0
BBX 9 11 1 0
BITMAP
7C00
FF00
8380
0180
0080
3F80
0180
0180
8300
FF00
7C00
ENDCHAR
STARTCHAR 044E
ENCODING 1102
SWIDTH 874 0
DWIDTH 17 0
BBX 14 11 2 0
BITMAP
C1E0
C7F8
CE18
CC0C
FC0C
FC0C
CC0C
CC0C
C618
C7F8
C1E0
ENDCHAR
STARTCHAR 044F
ENCODING 1103
SWIDTH 617 0
DWIDTH 12 0
BBX 9 11 1 0
BITMAP
3F80
7F80
C180
C180
C180
E180
7F80
3180
2180
6180
C180
ENDCHAR
STARTCHAR 0450
ENCODING 1104
SWIDTH 617 0
DWIDTH 12 0
BBX 10 15 1 0
BITMAP
3000
1800
0400
0000
1E00
7F80
6180
C0C0
C0C0
FFC0
C000
C000
6080
7F80
1F00
ENDCHAR
STARTCHAR 0451
ENCODING 1105
SWIDTH 617 0
DWIDTH 12 0
BBX 10 15 1 0
BITMAP
3300
3300
0000
0000
1E00
7F80
6180
C0C0
C0C0
FFC0
C000
C000
6080
7F80
1F00
ENDCHAR
STARTCHAR 0452
ENCODING 1106
SWIDTH 668 0
DWIDTH 13 0
BBX 12 19 0 -4
BITMAP
3000
3000
FF00
3000
37C0
3FE0
3860
3030
3030
3030
3030
3030
3030
3030
3030
0030
0030
03E0
03C0
ENDCHAR
STARTCHAR 0453
ENCODING 1107
SWIDTH 462 0
DWIDTH 9 0
BBX 7 15 2 0
BITMAP
0E
18
30
00
FE
FE
C0
C0
C0
C0
C0
C0
C0
C0
C0
ENDCHAR
STARTCHAR 0454
ENCODING 1108
SWIDTH 565 0
DWIDTH 11 0
BBX 10 11 1 0
BITMAP
1F00
7FC0
6080
C000
C000
FE00
C000
C000
6080
7FC0
1F00
ENDCHAR
STARTCHAR 0455
ENCODING 1109
SWIDTH 514 0
DWIDTH 10 0
BBX 9 11 1 0
BITMAP
3E00
7F00
C000
C000
E000
7E00
0F00
0180
0100
FF00
7E00
ENDCHAR
STARTCHAR 0456
ENCODING 1110
SWIDTH 308 0
DWIDTH 6 0
BBX 2 15 2 0
BITMAP
C0
C0
00
00
C0
C0
C0
C0
C0
C0
C0
C0
C0
C0
C0
ENDCHAR
STARTCHAR 0457
ENCODING 1111
SWIDTH 257 0
DWIDTH 5 0
BBX 5 15 0 0
BITMAP
D8
D8
00
00
30
30
30
30
30
30
30
30
30
30
30
ENDCHAR
STARTCHAR 0458
ENCODING 1112
SWIDTH 308 0
DWIDTH 6 0
BBX 6 19 -2 -4
BITMAP
0C
0C
00
00
0C
0C
0C
0C
0C
0C
0C
0C
0C
0C
0C
0C
0C
78
F0
ENDCHAR
STARTCHAR 0459
ENCODING 1113
SWIDTH 925 0
DWIDTH 18 0
BBX 18 11 0 0
BITMAP
1FE000
1FE000
106000
106000
107F00
306180
3060C0
3060C0
306180
E06380
E07F00
ENDCHAR
STARTCHAR 045A
ENCODING 1114
SWIDTH 977 0
DWIDTH 19 0
BBX 16 11 2 0
BITMAP
C180
C180
C180
C180
FFF8
FFFE
C183
C183
C183
C186
C1FC
ENDCHAR
STARTCHAR 045B
ENCODING 1115
SWIDTH 668 0
DWIDTH 13 0
BBX 13 15 -1 0
BITMAP
1800
1800
FF80
1800
1BE0
1FF0
1C30
1818
1818
1818
1818
1818
1818
1818
1818
ENDCHAR
STARTCHAR 045C
ENCODING 1116
SWIDTH 617 0
DWIDTH 12 0
BBX 9 15 2 0
BITMAP
0600
0C00
1000
0000
C180
C300
C200
C600
CC00
F800
FC00
C600
C700
C300
C180
ENDCHAR
STARTCHAR 045D
ENCODING 1117
SWIDTH 668 0
DWIDTH 13 0
BBX 10 15 2 0
BITMAP
3000
1800
0C00
0000
C0C0
C1C0
C3C0
C6C0
CEC0
CCC0
D8C0
F0C0
E0C0
E0C0
C0C0
ENDCHAR
STARTCHAR 045E
ENCODING 1118
SWIDTH 565 0
DWIDTH 11 0
BBX 11 19 0 -4
BITMAP
2100
3100
1E00
0000
C060
6040
60C0
20C0
3180
3180
1900
1B00
0A00
0E00
0E00
0C00
0C00
F800
F000
ENDCHAR
STARTCHAR 045F
ENCODING 1119
SWIDTH 668 0
DWIDTH 13 0
BBX 9 13 2 -2
BITMAP
C180
C180
C180
C180
C180
C180
C180
C180
C180
FF80
FF80
1800
1800
ENDCHAR
STARTCHAR 0462
ENCODING 1122
SWIDTH 822 0
DWIDTH 16 0
BBX 15 15 0 0
BITMAP
0C00
0C00
FFC0
0C00
0C00
0C00
0FF8
0FFC
0C0E
0C06
0C06
0C06
0C0E
0FFC
0FF8
ENDCHAR
STARTCHAR 0463
ENCODING 1123
SWIDTH 617 0
DWIDTH 12 0
BBX 11 15 0 0
BITMAP
1000
1000
1000
1000
FF00
1000
1000
1000
1FC0
10E0
1060
1060
1060
10E0
1FC0
ENDCHAR
STARTCHAR 046A
ENCODING 1130
SWIDTH 925 0
DWIDTH 18 0
BBX 16 14 1 0
BITMAP
7FFE
600C
3018
1818
0C30
0660
03C0
1FF8
319C
618C
6186
C186
C183
C183
ENDCHAR
STARTCHAR 046B
ENCODING 1131
SWIDTH 720 0
DWIDTH 14 0
BBX 13 11 0 0
BITMAP
7FF0
3030
1860
08C0
0D80
1FC0
3B60
2330
6310
6318
C318
ENDCHAR
STARTCHAR 0472
ENCODING 1138
SWIDTH 822 0
DWIDTH 16 0
BBX 14 14 1 0
BITMAP
0FC0
1FF0
3038
601C
C00C
C00C
FFFC
FFFC
C00C
E00C
601C
3038
1FF0
0FC0
ENDCHAR
STARTCHAR 0473
ENCODING 1139
SWIDTH 668 0
DWIDTH 13 0
BBX 11 11 1 0
BITMAP
1F00
7B80
60C0
C040
C060
FFE0
C060
C040
60C0
7B80
1F00
ENDCHAR
STARTCHAR 0474
ENCODING 1140
SWIDTH 771 0
DWIDTH 15 0
BBX 14 14 0 0
BITMAP
E01C
603C
6030
3030
3060
3860
18C0
18C0
0CC0
0D80
0F80
0780
0700
0300
ENDCHAR
STARTCHAR 0475
ENCODING 1141
SWIDTH 617 0
DWIDTH 12 0
BBX 11 11 0 0
BITMAP
C060
60E0
60C0
3180
3180
3180
1B00
1B00
0E00
0E00
0E00
ENDCHAR
STARTCHAR 048A
ENCODING 1162
SWIDTH 874 0
DWIDTH 17 0
BBX 14 21 2 -3
BITMAP
1080
1180
0F00
0000
C030
C070
C0F0
C1F0
C1B0
C330
C730
C630
CC30
D830
F830
F030
E03C
C038
0008
0018
0018
ENDCHAR
STARTCHAR 048B
ENCODING 1163
SWIDTH 720 0
DWIDTH 14 0
BBX 11 17 2 -2
BITMAP
6300
2200
1E00
0000
C0C0
C1C0
C3C0
C6C0
CEC0
CCC0
D8C0
F0C0
E0C0
E0E0
C0E0
0060
0040
ENDCHAR
STARTCHAR 048C
ENCODING 1164
SWIDTH 720 0
DWIDTH 14 0
BBX 13 15 1 0
BITMAP
3000
3000
FF00
FF00
3000
3000
3FC0
3FF0
3030
3018
3018
3030
3030
3FF0
3FC0
ENDCHAR
STARTCHAR 048D
ENCODING 1165
SWIDTH 617 0
DWIDTH 12 0
BBX 11 11 0 0
BITMAP
3000
FF00
FF00
3000
3FC0
30E0
3060
3060
3060
30E0
3FC0
ENDCHAR
STARTCHAR 048E
ENCODING 1166
SWIDTH 720 0
DWIDTH 14 0
BBX 11 14 2 0
BITMAP
FF00
FFC0
C0E0
C060
C060
C460
C660
C3E0
FFC0
FF80
C0C0
C060
C000
C000
ENDCHAR
STARTCHAR 048F
ENCODING 1167
SWIDTH 720 0
DWIDTH 14 0
BBX 11 15 2 -4
BITMAP
DF00
FF80
E1C0
C0C0
C040
C060
C240
C2C0
E3C0
FF80
DFC0
C040
C000
C000
C000
ENDCHAR
STARTCHAR 0490
ENCODING 1168
SWIDTH 565 0
DWIDTH 11 0
BBX 9 17 2 0
BITMAP
0180
0180
0180
FF80
FF80
C000
C000
C000
C000
C000
C000
C000
C000
C000
C000
C000
C000
ENDCHAR
STARTCHAR 0491
ENCODING 1169
SWIDTH 462 0
DWIDTH 9 0
BBX 7 13 2 0
BITMAP
06
06
FE
FE
C0
C0
C0
C0
C0
C0
C0
C0
C0
ENDCHAR
STARTCHAR 0492
ENCODING 1170
SWIDTH 617 0
DWIDTH 12 0
BBX 11 14 1 0
BITMAP
3FE0
3FE0
3000
3000
3000
3000
3000
FF80
3000
3000
3000
3000
3000
3000
ENDCHAR
STARTCHAR 0493
ENCODING 1171
SWIDTH 514 0
DWIDTH 10 0
BBX 9 11 1 0
BITMAP
7F80
7F80
6000
6000
6000
6000
FE00
6000
6000
6000
6000
ENDCHAR
STARTCHAR 0494
ENCODING 1172
SWIDTH 720 0
DWIDTH 14 0
BBX 11 17 2 -3
BITMAP
FF80
FF80
C000
C000
C000
C000
DF00
FF80
C0C0
C0E0
C060
C060
C060
C0C0
01C0
0F80
0E00
ENDCHAR
STARTCHAR 0495
ENCODING 1173
SWIDTH 617 0
DWIDTH 12 0
BBX 9 15 2 -4
BITMAP
FE00
FE00
C000
C000
C000
FE00
FF00
C180
C180
C180
C180
0180
0380
1F00
1E00
ENDCHAR
STARTCHAR 0496
ENCODING 1174
SWIDTH 1080 0
DWIDTH 21 0
BBX 19 17 1 -3
BITMAP
C0C0C0
60C180
60C180
30C300
10C600
18C600
0FFC00
1FFE00
18C600
30C300
70C300
60C180
E0C1E0
C0C0E0
000020
000020
000020
ENDCHAR
STARTCHAR 0497
ENCODING 1175
SWIDTH 874 0
DWIDTH 17 0
BBX 16 13 1 -2
BITMAP
C306
C30C
6318
3318
3FF0
1FF0
3338
6318
630C
C30F
C307
0003
0003
ENDCHAR
STARTCHAR 0498
ENCODING 1176
SWIDTH 617 0
DWIDTH 12 0
BBX 10 17 1 -3
BITMAP
3E00
FF80
01C0
00C0
00C0
0180
3F00
3F80
00C0
00C0
00C0
80C0
FF80
3F00
0C00
0C00
0C00
ENDCHAR
STARTCHAR 0499
ENCODING 1177
SWIDTH 565 0
DWIDTH 11 0
BBX 9 13 1 -2
BITMAP
7C00
FF00
0300
0300
0700
3E00
0300
0180
0300
FF00
7E00
1800
1800
ENDCHAR
STARTCHAR 049A
ENCODING 1178
SWIDTH 771 0
DWIDTH 15 0
BBX 12 17 2 -3
BITMAP
C060
C0C0
C180
C180
C300
C600
FE00
FE00
C700
C300
C180
C0C0
C0F0
C070
0010
0010
0010
ENDCHAR
STARTCHAR 049B
ENCODING 1179
SWIDTH 617 0
DWIDTH 12 0
BBX 10 13 2 -2
BITMAP
C180
C300
C600
C400
FC00
FC00
CC00
C600
C300
C3C0
C1C0
0040
0040
ENDCHAR
STARTCHAR 049C
ENCODING 1180
SWIDTH 720 0
DWIDTH 14 0
BBX 12 14 2 0
BITMAP
C060
C060
C0C0
D980
D980
DB00
FE00
FF00
DB00
D980
D8C0
C0C0
C060
C070
ENDCHAR
STARTCHAR 049D
ENCODING 1181
SWIDTH 617 0
DWIDTH 12 0
BBX 9 11 2 0
BITMAP
C180
C180
C300
D600
D600
FC00
FE00
D600
D300
C180
C180
ENDCHAR
STARTCHAR 049E
ENCODING 1182
SWIDTH 720 0
DWIDTH 14 0
BBX 13 14 1 0
BITMAP
2030
2030
FE60
20C0
20C0
2180
3F00
3F00
2180
21C0
20C0
2060
2030
2038
ENDCHAR
STARTCHAR 049F
ENCODING 1183
SWIDTH 617 0
DWIDTH 12 0
BBX 11 15 0 0
BITMAP
3000
3000
FE00
3000
3060
30C0
3080
3180
3300
3E00
3F00
3380
31C0
30C0
3060
ENDCHAR
STARTCHAR 04A0
ENCODING 1184
SWIDTH 822 0
DWIDTH 16 0
BBX 15 14 0 0
BITMAP
FC06
FC0C
0C0C
0C18
0C30
0C70
0FE0
0FE0
0C30
0C38
0C18
0C0C
0C0E
0C06
ENDCHAR
STARTCHAR 04A1
ENCODING 1185
SWIDTH 668 0
DWIDTH 13 0
BBX 13 11 0 0
BITMAP
F830
F860
1860
18C0
1F80
1F80
18C0
18C0
1860
1830
1838
ENDCHAR
STARTCHAR 04A2
ENCODING 1186
SWIDTH 822 0
DWIDTH 16 0
BBX 14 17 2 -3
BITMAP
C030
C030
C030
C030
C030
C030
FFF0
FFF0
C030
C030
C030
C030
C03C
C03C
000C
000C
000C
ENDCHAR
STARTCHAR 04A3
ENCODING 1187
SWIDTH 720 0
DWIDTH 14 0
BBX 11 13 2 -2
BITMAP
C080
C080
C080
C080
FF80
FF80
C080
C080
C080
C0E0
C0E0
0060
0060
ENDCHAR
STARTCHAR 04A4
ENCODING 1188
SWIDTH 1080 0
DWIDTH 21 0
BBX 19 14 2 0
BITMAP
C03FE0
C03FE0
C03000
C03000
C03000
C03000
FFF000
FFF000
C03000
C03000
C03000
C03000
C03000
C03000
ENDCHAR
STARTCHAR 04A5
ENCODING 1189
SWIDTH 874 0
DWIDTH 17 0
BBX 15 11 2 0
BITMAP
C0FE
C0FE
C080
C080
FF80
FF80
C080
C080
C080
C080
C080
ENDCHAR
STARTCHAR 04A6
ENCODING 1190
SWIDTH 1182 0
DWIDTH 23 0
BBX 20 17 2 -3
BITMAP
FFF000
FFF000
C03000
C03000
C03000
C03000
C037C0
C03FE0
C03070
C03030
C03030
C03010
C03030
C03030
000070
0003E0
000380
ENDCHAR
STARTCHAR 04A7
ENCODING 1191
SWIDTH 977 0
DWIDTH 19 0
BBX 17 15 2 -4
BITMAP
FF8000
FF8000
C18000
C18000
C18000
C1FC00
C1FF00
C18300
C18300
C18180
C18180
000300
000300
003E00
003C00
ENDCHAR
STARTCHAR 04A8
ENCODING 1192
SWIDTH 977 0
DWIDTH 19 0
BBX 17 14 1 0
BITMAP
107C00
39FE00
618700
630300
C30300
C30300
C30300
C30300
C30300
618200
618600
30CC00
1E7900
07FF80
ENDCHAR
STARTCHAR 04A9
ENCODING 1193
SWIDTH 822 0
DWIDTH 16 0
BBX 13 11 1 0
BITMAP
21E0
73F0
E618
C618
C408
C618
C618
C618
6330
39E0
1FF8
ENDCHAR
STARTCHAR 04AA
ENCODING 1194
SWIDTH 720 0
DWIDTH 14 0
BBX 12 17 1 -3
BITMAP
0FC0
1FF0
3030
6000
E000
C000
C000
C000
C000
E000
6000
3030
1FF0
0FC0
0300
0300
0300
ENDCHAR
STARTCHAR 04AB
ENCODING 1195
SWIDTH 565 0
DWIDTH 11 0
BBX 9 13 1 -2
BITMAP
1F00
7F80
6080
C000
C000
C000
C000
C000
6180
7F80
1F00
0C00
0C00
ENDCHAR
STARTCHAR 04AC
ENCODING 1196
SWIDTH 617 0
DWIDTH 12 0
BBX 11 17 0 -3
BITMAP
FFE0
FFE0
0600
0600
0600
0600
0600
0600
0600
0600
0600
0600
0780
0780
0180
0180
0180
ENDCHAR
STARTCHAR 04AD
ENCODING 1197
SWIDTH 514 0
DWIDTH 10 0
BBX 9 13 0 -2
BITMAP
FF80
FF80
0C00
0C00
0C00
0C00
0C00
0C00
0C00
0E00
0E00
0200
0200
ENDCHAR
STARTCHAR 04AE
ENCODING 1198
SWIDTH 668 0
DWIDTH 13 0
BBX 13 14 0 0
BITMAP
C018
6030
3060
3060
18C0
18C0
0D80
0700
0700
0200
0200
0200
0200
0200
ENDCHAR
STARTCHAR 04AF
ENCODING 1199
SWIDTH 565 0
DWIDTH 11 0
BBX 11 15 0 -4
BITMAP
C060
6040
60C0
20C0
3180
3180
1900
1B00
0B00
0E00
0E00
0600
0600
0600
0600
ENDCHAR
STARTCHAR 04B0
ENCODING 1200
SWIDTH 668 0
DWIDTH 13 0
BBX 13 14 0 0
BITMAP
C018
6030
3060
3060
18C0
18C0
0D80
0D80
0700
3FE0
0200
0200
0200
0200
ENDCHAR
STARTCHAR 04B1
ENCODING 1201
SWIDTH 565 0
DWIDTH 11 0
BBX 11 15 0 -4
BITMAP
C060
6040
60C0
30C0
3180
3180
1900
1B00
0E00
0E00
7FC0
0600
0600
0600
0600
ENDCHAR
STARTCHAR 04B2
ENCODING 1202
SWIDTH 720 0
DWIDTH 14 0
BBX 12 17 1 -3
BITMAP
C060
60C0
71C0
3180
1B00
1F00
0E00
0E00
1F00
3B80
3180
60C0
E0F0
C070
0010
0010
0010
ENDCHAR
STARTCHAR 04B3
ENCODING 1203
SWIDTH 565 0
DWIDTH 11 0
BBX 10 13 1 -2
BITMAP
C180
C300
6600
3600
1C00
1800
3C00
3600
6600
C3C0
C1C0
0040
0040
ENDCHAR
STARTCHAR 04B4
ENCODING 1204
SWIDTH 977 0
DWIDTH 19 0
BBX 18 17 0 -3
BITMAP
FFE300
FFE300
060300
060300
060300
060300
060300
060300
060300
060300
060300
060300
07FFC0
07FFC0
000040
000040
000040
ENDCHAR
STARTCHAR 04B5
ENCODING 1205
SWIDTH 771 0
DWIDTH 15 0
BBX 14 13 0 -2
BITMAP
FF98
FF98
0C18
0C18
0C18
0C18
0C18
0C18
0C18
0FFC
0FFC
0004
0004
ENDCHAR
STARTCHAR 04B6
ENCODING 1206
SWIDTH 771 0
DWIDTH 15 0
BBX 13 17 1 -3
BITMAP
C060
C060
C060
C060
C060
C060
E060
7FE0
1F60
0060
0060
0060
0078
0078
0018
0018
0018
ENDCHAR
STARTCHAR 04B7
ENCODING 1207
SWIDTH 617 0
DWIDTH 12 0
BBX 11 13 1 -2
BITMAP
C180
C180
C180
C180
C180
C180
7F80
1980
0180
01E0
01E0
0060
0060
ENDCHAR
STARTCHAR 04B8
ENCODING 1208
SWIDTH 720 0
DWIDTH 14 0
BBX 11 14 1 0
BITMAP
C060
C060
C060
C060
C060
C460
E460
7FE0
3F60
0460
0460
0460
0060
0060
ENDCHAR
STARTCHAR 04B9
ENCODING 1209
SWIDTH 617 0
DWIDTH 12 0
BBX 9 11 1 0
BITMAP
C180
C180
C180
C180
C980
C980
7F80
1980
0980
0980
0180
ENDCHAR
STARTCHAR 04BA
ENCODING 1210
SWIDTH 720 0
DWIDTH 14 0
BBX 11 14 2 0
BITMAP
C000
C000
C000
C000
C000
DF80
FFC0
C0E0
C060
C060
C060
C060
C060
C060
ENDCHAR
STARTCHAR 04BB
ENCODING 1211
SWIDTH 668 0
DWIDTH 13 0
BBX 10 15 2 0
BITMAP
C000
C000
C000
C000
DF00
FF80
E180
C080
C0C0
C0C0
C0C0
C0C0
C0C0
C0C0
C0C0
ENDCHAR
STARTCHAR 04BC
ENCODING 1212
SWIDTH 977 0
DWIDTH 19 0
BBX 17 14 1 0
BITMAP
00F800
03FE00
070700
CE0300
8C0180
CC0180
FFFF80
7FFF80
0C0000
0C0000
0E0000
070700
03FE00
00F800
ENDCHAR
STARTCHAR 04BD
ENCODING 1213
SWIDTH 771 0
DWIDTH 15 0
BBX 14 11 0 0
BITMAP
01E0
07F8
4E18
CC0C
6C0C
7FFC
0C00
0C00
0E08
07F8
01F0
ENDCHAR
STARTCHAR 04BE
ENCODING 1214
SWIDTH 977 0
DWIDTH 19 0
BBX 17 17 1 -3
BITMAP
00F800
03FE00
070700
CE0300
8C0180
CC0180
FFFF80
7FFF80
0C0000
0C0000
0E0000
070300
03FE00
00FC00
003000
003000
003000
ENDCHAR
STARTCHAR 04BF
ENCODING 1215
SWIDTH 771 0
DWIDTH 15 0
BBX 14 13 0 -2
BITMAP
01E0
07F8
4E18
CC0C
6C0C
7FFC
0C00
0C00
0E08
07F8
01F0
00C0
00C0
ENDCHAR
STARTCHAR 04C0
ENCODING 1216
SWIDTH 308 0
DWIDTH 6 0
BBX 2 14 2 0
BITMAP
C0
C0
C0
C0
C0
C0
C0
C0
C0
C0
C0
C0
C0
C0
ENDCHAR
STARTCHAR 04C1
ENCODING 1217
SWIDTH 1028 0
DWIDTH 20 0
BBX 18 18 1 0
BITMAP
021000
031000
01E000
000000
C0C0C0
60C180
60C180
30C300
10C600
18C600
0FFC00
1FFE00
18C600
30C300
70C300
60C180
E0C1C0
C0C0C0
ENDCHAR
STARTCHAR 04C2
ENCODING 1218
SWIDTH 874 0
DWIDTH 17 0
BBX 15 15 1 0
BITMAP
0840
0CC0
0780
0000
C306
C30C
630C
2318
3330
1FF0
3FF0
3318
631C
C30C
C306
ENDCHAR
STARTCHAR 04C3
ENCODING 1219
SWIDTH 720 0
DWIDTH 14 0
BBX 11 18 2 -4
BITMAP
C060
C0C0
C180
C180
C300
C600
FE00
FE00
C300
C180
C1C0
C0C0
C060
C060
0060
0060
03E0
03C0
ENDCHAR
STARTCHAR 04C4
ENCODING 1220
SWIDTH 617 0
DWIDTH 12 0
BBX 9 15 2 -4
BITMAP
C180
C300
C600
C400
FC00
FC00
C600
C700
C300
C180
C180
0180
0180
0F80
0F00
ENDCHAR
STARTCHAR 04C6
ENCODING 1222
SWIDTH 668 0
DWIDTH 13 0
BBX 12 13 0 -2
BITMAP
1FE0
1FE0
1060
1060
1060
3060
3060
3060
3060
E070
E070
0030
0020
ENDCHAR
STARTCHAR 04C7
ENCODING 1223
SWIDTH 822 0
DWIDTH 16 0
BBX 12 18 2 -4
BITMAP
C030
C030
C030
C030
C030
C030
FFF0
FFF0
C030
C030
C030
C030
C030
C030
0030
0030
01E0
03C0
ENDCHAR
STARTCHAR 04C8
ENCODING 1224
SWIDTH 668 0
DWIDTH 13 0
BBX 10 15 2 -4
BITMAP
C0C0
C0C0
C0C0
C0C0
C0C0
FFC0
FFC0
C0C0
C0C0
C0C0
C0C0
00C0
0080
0F80
0F00
ENDCHAR
STARTCHAR 04C9
ENCODING 1225
SWIDTH 822 0
DWIDTH 16 0
BBX 14 17 2 -3
BITMAP
C030
C030
C030
C030
C030
C030
FFF0
FFF0
C030
C030
C030
C030
C03C
C038
0018
0018
0018
ENDCHAR
STARTCHAR 04CA
ENCODING 1226
SWIDTH 720 0
DWIDTH 14 0
BBX 11 13 2 -2
BITMAP
C080
C080
C080
C080
FF80
FF80
C080
C080
C080
C0E0
C0E0
0040
0040
ENDCHAR
STARTCHAR 04CB
ENCODING 1227
SWIDTH 720 0
DWIDTH 14 0
BBX 11 17 1 -3
BITMAP
C060
C060
C060
C060
C060
C060
E060
7FE0
3F60
0060
0060
0060
01E0
01E0
0180
0180
0180
ENDCHAR
STARTCHAR 04CC
ENCODING 1228
SWIDTH 617 0
DWIDTH 12 0
BBX 9 13 1 -2
BITMAP
C180
C180
C180
C180
C180
FF80
7D80
0180
0180
0780
0780
0600
0600
ENDCHAR
STARTCHAR 04CD
ENCODING 1229
SWIDTH 977 0
DWIDTH 19 0
BBX 17 17 2 -3
BITMAP
C00600
E00E00
E00E00
F01E00
F03600
D83600
C86600
CC6600
C6C600
C68600
C38600
C30600
C00780
C00700
000300
000300
000300
ENDCHAR
STARTCHAR 04CE
ENCODING 1230
SWIDTH 822 0
DWIDTH 16 0
BBX 13 13 2 -2
BITMAP
C030
E070
E070
F0F0
F1B0
D9B0
DB30
CE30
C630
C438
C038
0018
0018
ENDCHAR
STARTCHAR 04CF
ENCODING 1231
SWIDTH 308 0
DWIDTH 6 0
BBX 2 15 2 0
BITMAP
C0
C0
C0
C0
C0
C0
C0
C0
C0
C0
C0
C0
C0
C0
C0
ENDCHAR
STARTCHAR 04D0
ENCODING 1232
SWIDTH 771 0
DWIDTH 15 0
BBX 14 18 0 0
BITMAP
0860
0C40
07C0
0000
0380
0380
0680
06C0
0CC0
0C60
0860
1830
1830
3FF8
3FF8
6018
600C
C00C
ENDCHAR
STARTCHAR 04D1
ENCODING 1233
SWIDTH 565 0
DWIDTH 11 0
BBX 9 15 1 0
BITMAP
2300
2200
1E00
0000
3E00
FF00
0380
0180
0180
7F80
C180
C180
C180
E780
7D80
ENDCHAR
STARTCHAR 04D2
ENCODING 1234
SWIDTH 771 0
DWIDTH 15 0
BBX 14 17 0 0
BITMAP
04C0
04C0
0000
0380
0380
0680
06C0
0CC0
0C60
0860
1830
1830
3FF8
3FF8
6018
600C
C00C
ENDCHAR
STARTCHAR 04D3
ENCODING 1235
SWIDTH 565 0
DWIDTH 11 0
BBX 9 15 1 0
BITMAP
3200
3200
0000
0000
3E00
FF00
0380
0180
0180
7F80
C180
C180
C180
E780
7D80
ENDCHAR
STARTCHAR 04D4
ENCODING 1236
SWIDTH 1028 0
DWIDTH 20 0
BBX 19 14 0 0
BITMAP
00FFE0
01FFE0
01A000
032000
032000
062000
0C3FC0
0C3FC0
182000
1FE000
3FE000
302000
603FE0
C03FE0
ENDCHAR
STARTCHAR 04D5
ENCODING 1237
SWIDTH 977 0
DWIDTH 19 0
BBX 17 11 1 0
BITMAP
3E3E00
FF7F00
03C180
018180
018180
7FFF80
C18000
C18000
C3C100
E77F00
3C3E00
ENDCHAR
STARTCHAR 04D6
ENCODING 1238
SWIDTH 668 0
DWIDTH 13 0
BBX 10 18 2 0
BITMAP
2100
2300
1E00
0000
FFC0
FFC0
C000
C000
C000
C000
FF80
FF80
C000
C000
C000
C000
FFC0
FFC0
ENDCHAR
STARTCHAR 04D7
ENCODING 1239
SWIDTH 617 0
DWIDTH 12 0
BBX 10 15 1 0
BITMAP
2100
3300
1E00
0000
1E00
7F80
6180
C0C0
C0C0
FFC0
C000
C000
6080
7F80
1F00
ENDCHAR
STARTCHAR 04D8
ENCODING 1240
SWIDTH 822 0
DWIDTH 16 0
BBX 14 14 1 0
BITMAP
0FC0
3FE0
3030
0018
000C
000C
FFFC
C00C
C00C
C01C
6018
7030
3FE0
0FC0
ENDCHAR
STARTCHAR 04D9
ENCODING 1241
SWIDTH 617 0
DWIDTH 12 0
BBX 10 11 1 0
BITMAP
3E00
7F80
41C0
00C0
00C0
FFC0
C0C0
C0C0
60C0
7F80
1E00
ENDCHAR
STARTCHAR 04DA
ENCODING 1242
SWIDTH 822 0
DWIDTH 16 0
BBX 14 17 1 0
BITMAP
0CC0
0CC0
0000
0FC0
3FE0
3030
0018
000C
000C
FFFC
C00C
C00C
C01C
6018
7030
3FE0
0FC0
ENDCHAR
STARTCHAR 04DB
ENCODING 1243
SWIDTH 617 0
DWIDTH 12 0
BBX 10 15 1 0
BITMAP
1300
1300
0000
0000
3E00
7F80
41C0
00C0
00C0
FFC0
C0C0
C0C0
60C0
7F80
1E00
ENDCHAR
STARTCHAR 04DC
ENCODING 1244
SWIDTH 1028 0
DWIDTH 20 0
BBX 18 17 1 0
BITMAP
033000
033000
000000
C0C0C0
60C180
60C180
30C300
10C600
18C600
0FFC00
1FFE00
18C600
30C300
70C300
60C180
E0C1C0
C0C0C0
ENDCHAR
STARTCHAR 04DD
ENCODING 1245
SWIDTH 874 0
DWIDTH 17 0
BBX 15 15 1 0
BITMAP
04C0
04C0
0000
0000
C306
C30C
630C
2318
3330
1FF0
3FF0
3318
631C
C30C
C306
ENDCHAR
STARTCHAR 04DE
ENCODING 1246
SWIDTH 617 0
DWIDTH 12 0
BBX 10 17 1 0
BITMAP
1300
1300
0000
3E00
FF80
01C0
00C0
00C0
0180
3F00
3F80
00C0
00C0
00C0
81C0
FF80
3F00
ENDCHAR
STARTCHAR 04DF
ENCODING 1247
SWIDTH 565 0
DWIDTH 11 0
BBX 9 15 1 0
BITMAP
6600
6600
0000
0000
7C00
FF00
0300
0300
0700
3E00
0300
0180
0300
FF00
7C00
ENDCHAR
STARTCHAR 04E0
ENCODING 1248
SWIDTH 617 0
DWIDTH 12 0
BBX 10 14 1 0
BITMAP
FFC0
FF80
0180
0300
0600
0C00
1F00
0780
00C0
00C0
00C0
81C0
FF80
3F00
ENDCHAR
STARTCHAR 04E1
ENCODING 1249
SWIDTH 514 0
DWIDTH 10 0
BBX 10 15 0 -4
BITMAP
FF80
FF80
0300
0600
0600
0C00
1800
1F00
0180
0180
00C0
00C0
8180
FF80
3E00
ENDCHAR
STARTCHAR 04E2
ENCODING 1250
SWIDTH 822 0
DWIDTH 16 0
BBX 12 17 2 0
BITMAP
1F80
0000
0000
C030
C070
C0F0
C1F0
C1B0
C330
C730
CE30
CC30
D830
F830
F030
E030
C030
ENDCHAR
STARTCHAR 04E3
ENCODING 1251
SWIDTH 668 0
DWIDTH 13 0
BBX 10 14 2 0
BITMAP
7F00
0000
0000
C0C0
C1C0
C3C0
C6C0
CEC0
CCC0
D8C0
F0C0
E0C0
E0C0
C0C0
ENDCHAR
STARTCHAR 04E4
ENCODING 1252
SWIDTH 822 0
DWIDTH 16 0
BBX 12 17 2 0
BITMAP
1980
1980
0000
C030
C070
C0F0
C1F0
C1B0
C330
C730
CE30
CC30
D830
F830
F030
E030
C030
ENDCHAR
STARTCHAR 04E5
ENCODING 1253
SWIDTH 668 0
DWIDTH 13 0
BBX 10 15 2 0
BITMAP
3200
3200
0000
0000
C0C0
C1C0
C3C0
C6C0
CEC0
CCC0
D8C0
F0C0
E0C0
E0C0
C0C0
ENDCHAR
STARTCHAR 04E6
ENCODING 1254
SWIDTH 822 0
DWIDTH 16 0
BBX 14 17 1 0
BITMAP
04C0
04C0
0000
0FC0
1FF0
3038
601C
E00C
C00C
C00C
C00C
C00C
E00C
601C
3038
1FF0
0FC0
ENDCHAR
STARTCHAR 04E7
ENCODING 1255
SWIDTH 617 0
DWIDTH 12 0
BBX 11 15 1 0
BITMAP
1300
1300
0000
0000
1F00
7F80
61C0
C0C0
C040
C060
C040
C0C0
60C0
7F80
1F00
ENDCHAR
STARTCHAR 04E8
ENCODING 1256
SWIDTH 822 0
DWIDTH 16 0
BBX 14 14 1 0
BITMAP
0FC0
1FF0
3038
601C
C00C
C00C
FFFC
FFFC
C00C
E00C
601C
3038
1FF0
0FC0
ENDCHAR
STARTCHAR 04E9
ENCODING 1257
SWIDTH 668 0
DWIDTH 13 0
BBX 11 11 1 0
BITMAP
1F00
7B80
60C0
C040
C060
FFE0
C060
C040
60C0
7B80
1F00
ENDCHAR
STARTCHAR 04EA
ENCODING 1258
SWIDTH 822 0
DWIDTH 16 0
BBX 14 17 1 0
BITMAP
04C0
04C0
0000
0FC0
1FF0
3038
601C
C00C
C00C
FFFC
FFFC
C00C
E00C
601C
3038
1FF0
0FC0
ENDCHAR
STARTCHAR 04EB
ENCODING 1259
SWIDTH 668 0
DWIDTH 13 0
BBX 11 15 1 0
BITMAP
1300
1300
0000
0000
1F00
7B80
60C0
C040
C060
FFE0
C060
C040
60C0
7B80
1F00
ENDCHAR
STARTCHAR 04EC
ENCODING 1260
SWIDTH 720 0
DWIDTH 14 0
BBX 12 17 1 0
BITMAP
1300
1300
0000
3F00
FF80
C1C0
0060
0060
0030
1FF0
1FF0
0030
0060
0060
C1C0
FF80
3F00
ENDCHAR
STARTCHAR 04ED
ENCODING 1261
SWIDTH 565 0
DWIDTH 11 0
BBX 9 15 1 0
BITMAP
6600
6600
0000
0000
7C00
FF00
8380
0180
0080
3F80
0180
0180
8300
FF00
7C00
ENDCHAR
STARTCHAR 04EE
ENCODING 1262
SWIDTH 668 0
DWIDTH 13 0
BBX 12 17 1 0
BITMAP
3F80
0000
0000
C030
C020
6060
6040
30C0
3180
1980
1B00
0F00
0E00
0600
0C00
7800
7000
ENDCHAR
STARTCHAR 04EF
ENCODING 1263
SWIDTH 565 0
DWIDTH 11 0
BBX 11 18 0 -4
BITMAP
3F00
0000
0000
C060
6040
60C0
20C0
3180
3180
1900
1B00
0A00
0E00
0E00
0C00
0C00
F800
F000
ENDCHAR
STARTCHAR 04F0
ENCODING 1264
SWIDTH 668 0
DWIDTH 13 0
BBX 12 17 1 0
BITMAP
1900
1900
0000
C030
C020
6060
6040
30C0
3180
1980
1B00
0F00
0E00
0600
0C00
7800
7000
ENDCHAR
STARTCHAR 04F1
ENCODING 1265
SWIDTH 565 0
DWIDTH 11 0
BBX 11 19 0 -4
BITMAP
1300
1300
0000
0000
C060
6040
60C0
20C0
3180
3180
1900
1B00
0A00
0E00
0E00
0C00
0C00
F800
F000
ENDCHAR
STARTCHAR 04F2
ENCODING 1266
SWIDTH 668 0
DWIDTH 13 0
BBX 12 18 1 0
BITMAP
06C0
0C80
1980
0000
C030
C020
6060
6040
30C0
3180
1980
1B00
0F00
0E00
0600
0C00
7800
7000
ENDCHAR
STARTCHAR 04F3
ENCODING 1267
SWIDTH 565 0
DWIDTH 11 0
BBX 11 19 0 -4
BITMAP
0C80
0980
1300
0000
C060
6040
60C0
20C0
3180
3180
1900
1B00
0A00
0E00
0E00
0C00
0C00
F800
F000
ENDCHAR
STARTCHAR 04F4
ENCODING 1268
SWIDTH 720 0
DWIDTH 14 0
BBX 11 17 1 0
BITMAP
1900
1900
0000
C060
C060
C060
C060
C060
C060
E060
7FE0
1F60
0060
0060
0060
0060
0060
ENDCHAR
STARTCHAR 04F5
ENCODING 1269
SWIDTH 617 0
DWIDTH 12 0
BBX 9 15 1 0
BITMAP
2600
2600
0000
0000
C180
C180
C180
C180
C180
C180
7F80
1980
0180
0180
0180
ENDCHAR
STARTCHAR 04F6
ENCODING 1270
SWIDTH 565 0
DWIDTH 11 0
BBX 9 17 2 -3
BITMAP
FF80
FF80
C000
C000
C000
C000
C000
C000
C000
C000
C000
C000
F000
F000
3000
3000
3000
ENDCHAR
STARTCHAR 04F7
ENCODING 1271
SWIDTH 462 0
DWIDTH 9 0
BBX 7 13 2 -2
BITMAP
FE
FE
C0
C0
C0
C0
C0
C0
C0
E0
E0
20
20
ENDCHAR
STARTCHAR 04F8
ENCODING 1272
SWIDTH 977 0
DWIDTH 19 0
BBX 15 17 2 0
BITMAP
0640
0640
0000
C006
C006
C006
C006
C006
FF86
FFC6
C066
C066
C066
C066
C0E6
FFC6
FF86
ENDCHAR
STARTCHAR 04F9
ENCODING 1273
SWIDTH 822 0
DWIDTH 16 0
BBX 12 15 2 0
BITMAP
1980
1980
0000
0000
C030
C030
C030
C030
FE30
C330
C330
C130
C330
C730
FE30
ENDCHAR
STARTCHAR 04FA
ENCODING 1274
SWIDTH 617 0
DWIDTH 12 0
BBX 11 18 1 -4
BITMAP
3FE0
3FE0
3000
3000
3000
3000
3000
FF80
3000
3000
3000
3000
3800
3800
0800
1800
F800
F000
ENDCHAR
STARTCHAR 04FB
ENCODING 1275
SWIDTH 514 0
DWIDTH 10 0
BBX 9 15 0 -4
BITMAP
3F80
3F80
3000
3000
3000
7F00
3000
3000
3000
3C00
3C00
0C00
0C00
7800
F000
ENDCHAR
STARTCHAR 04FC
ENCODING 1276
SWIDTH 668 0
DWIDTH 13 0
BBX 11 18 1 -4
BITMAP
C060
60C0
70C0
3180
1B00
1F00
0E00
0E00
1B00
3B80
31C0
60C0
E060
C060
0060
0060
03E0
03C0
ENDCHAR
STARTCHAR 04FD
ENCODING 1277
SWIDTH 565 0
DWIDTH 11 0
BBX 9 15 1 -4
BITMAP
C180
E300
6600
3600
1C00
1C00
3C00
3600
6300
C300
C180
0180
0180
0F80
0F00
ENDCHAR
STARTCHAR 04FE
ENCODING 1278
SWIDTH 668 0
DWIDTH 13 0
BBX 12 14 1 0
BITMAP
C060
60C0
31C0
3980
1B00
0F00
7FC0
0E00
1B00
1B80
3180
60C0
6060
C070
ENDCHAR
STARTCHAR 04FF
ENCODING 1279
SWIDTH 565 0
DWIDTH 11 0
BBX 9 11 1 0
BITMAP
C180
6300
7300
3600
1C00
7F00
1E00
3600
6300
E380
C180
ENDCHAR
STARTCHAR 0510
ENCODING 1296
SWIDTH 617 0
DWIDTH 12 0
BBX 11 14 1 0
BITMAP
1F80
3FC0
6040
6000
6000
6000
3F00
7F00
C000
C000
C000
E040
7FE0
1F80
ENDCHAR
STARTCHAR 0511
ENCODING 1297
SWIDTH 565 0
DWIDTH 11 0
BBX 9 11 1 0
BITMAP
3F00
7F00
C000
C000
6000
3C00
C000
C000
C080
7F80
3F00
ENDCHAR
STARTCHAR 0512
ENCODING 1298
SWIDTH 771 0
DWIDTH 15 0
BBX 13 18 0 -4
BITMAP
0FF8
0FF8
0818
0818
1818
1818
1818
1818
1818
1818
1818
3018
F018
E018
0018
0018
00F8
00F0
ENDCHAR
STARTCHAR 0513
ENCODING 1299
SWIDTH 617 0
DWIDTH 12 0
BBX 11 15 0 -4
BITMAP
1FE0
1FE0
1060
1060
1060
3060
3060
3060
3060
E060
E060
0060
0060
07C0
0780
ENDCHAR
STARTCHAR 051A
ENCODING 1306
SWIDTH 874 0
DWIDTH 17 0
BBX 15 17 1 -3
BITMAP
0FC0
1FF0
3038
601C
E00C
C00C
C00C
C00C
C00C
C00C
601C
7038
3EF0
0FE0
01C0
00FE
003C
ENDCHAR
STARTCHAR 051B
ENCODING 1307
SWIDTH 668 0
DWIDTH 13 0
BBX 11 15 1 -4
BITMAP
1E60
7FE0
60E0
C0E0
C060
C060
C060
C0E0
60E0
7FE0
1E60
0060
0060
0060
0060
ENDCHAR
STARTCHAR 051C
ENCODING 1308
SWIDTH 1080 0
DWIDTH 21 0
BBX 20 14 1 0
BITMAP
C06030
C0E060
C0E060
60B060
61B0C0
61B0C0
6118C0
331980
331980
320D80
1E0F00
1E0F00
1C0700
0C0600
ENDCHAR
STARTCHAR 051D
ENCODING 1309
SWIDTH 925 0
DWIDTH 18 0
BBX 18 11 0 0
BITMAP
C0C0C0
60E080
61E180
61E180
313100
333300
131300
1A1A00
1E1E00
0E0E00
0C0C00
ENDCHAR
STARTCHAR 0524
ENCODING 1316
SWIDTH 822 0
DWIDTH 16 0
BBX 14 17 2 -3
BITMAP
FFF0
FFF0
C030
C030
C030
C030
C030
C030
C030
C030
C030
C030
C03C
C03C
000C
000C
000C
ENDCHAR
STARTCHAR 0525
ENCODING 1317
SWIDTH 668 0
DWIDTH 13 0
BBX 11 13 2 -2
BITMAP
FF80
FF80
C180
C180
C180
C180
C180
C180
C180
C1E0
C1E0
0060
0060
ENDCHAR
STARTCHAR 0526
ENCODING 1318
SWIDTH 822 0
DWIDTH 16 0
BBX 13 17 2 -3
BITMAP
C000
C000
C000
C000
C000
DF80
FFC0
C0E0
C060
C060
C060
C060
C078
C078
0008
0008
0008
ENDCHAR
STARTCHAR 0527
ENCODING 1319
SWIDTH 720 0
DWIDTH 14 0
BBX 11 17 2 -2
BITMAP
C000
C000
C000
C000
DF00
FF80
E180
C080
C0C0
C0C0
C0C0
C0C0
C0C0
C0E0
C0E0
0060
0060
ENDCHAR
STARTCHAR 0528
ENCODING 1320
SWIDTH 822 0
DWIDTH 16 0
BBX 15 18 -1 -4
BITMAP
1806
1806
1806
1806
1806
1806
1FFE
1FFE
1806
1806
1806
1806
1806
1806
1800
1800
F800
F000
ENDCHAR
STARTCHAR 0529
ENCODING 1321
SWIDTH 668 0
DWIDTH 13 0
BBX 13 15 -2 -4
BITMAP
0C08
0C08
0C08
0C08
0C08
0FF8
0FF8
0C08
0C08
0C08
0C08
0C00
0C00
7800
F000
ENDCHAR
STARTCHAR 052E
ENCODING 1326
SWIDTH 822 0
DWIDTH 16 0
BBX 15 17 0 -3
BITMAP
0FF8
0FF8
0818
0818
1818
1818
1818
1818
1818
1818
1818
3018
F01E
E01E
0006
0006
0006
ENDCHAR
STARTCHAR 052F
ENCODING 1327
SWIDTH 668 0
DWIDTH 13 0
BBX 12 13 0 -2
BITMAP
1FE0
1FE0
1060
1060
1060
3060
3060
3060
3060
E070
E070
0010
0010
ENDCHAR
STARTCHAR 1E08
ENCODING 7688
SWIDTH 720 0
DWIDTH 14 0
BBX 12 22 1 -4
BITMAP
00E0
0180
0300
0000
0FC0
1FF0
7030
6000
C000
C000
C000
C000
C000
C000
6000
7030
3FF0
0FC0
0200
0300
0180
0700
ENDCHAR
STARTCHAR 1E09
ENCODING 7689
SWIDTH 565 0
DWIDTH 11 0
BBX 9 19 1 -4
BITMAP
0300
0E00
1800
0000
1F00
7F80
6180
C000
C000
C000
C000
C000
6180
7F80
1F00
0800
0C00
0600
1C00
ENDCHAR
STARTCHAR 1E0C
ENCODING 7692
SWIDTH 822 0
DWIDTH 16 0
BBX 13 18 2 -4
BITMAP
FF80
FFE0
C070
C030
C018
C018
C018
C018
C018
C018
C030
C070
FFE0
FF80
0000
0000
0400
0400
ENDCHAR
STARTCHAR 1E0D
ENCODING 7693
SWIDTH 668 0
DWIDTH 13 0
BBX 10 19 1 -4
BITMAP
0040
0040
0040
0040
1E40
7F40
61C0
C0C0
C040
C040
C040
C0C0
61C0
7F40
1E40
0000
0000
0600
0600
ENDCHAR
STARTCHAR 1E0E
ENCODING 7694
SWIDTH 822 0
DWIDTH 16 0
BBX 13 17 2 -3
BITMAP
FF80
FFE0
C070
C030
C018
C018
C018
C018
C018
C018
C030
C070
FFE0
FF80
0000
0000
3F80
ENDCHAR
STARTCHAR 1E0F
ENCODING 7695
SWIDTH 668 0
DWIDTH 13 0
BBX 10 18 1 -3
BITMAP
0040
0040
0040
0040
1E40
7F40
61C0
C0C0
C040
C040
C040
C0C0
61C0
7F40
1E40
0000
0000
1F80
ENDCHAR
STARTCHAR 1E14
ENCODING 7700
SWIDTH 668 0
DWIDTH 13 0
BBX 10 20 2 0
BITMAP
3000
0800
0400
3F00
0000
0000
FFC0
FFC0
C000
C000
C000
C000
FF80
FF80
C000
C000
C000
C000
FFC0
FFC0
ENDCHAR
STARTCHAR 1E15
ENCODING 7701
SWIDTH 617 0
DWIDTH 12 0
BBX 10 17 1 0
BITMAP
1800
0C00
0000
3F00
0000
0000
1E00
7F80
6180
C0C0
C0C0
FFC0
C000
C000
6080
7F80
1F00
ENDCHAR
STARTCHAR 1E16
ENCODING 7702
SWIDTH 668 0
DWIDTH 13 0
BBX 10 20 2 0
BITMAP
0600
0C00
0000
3F00
0000
0000
FFC0
FFC0
C000
C000
C000
C000
FF80
FF80
C000
C000
C000
C000
FFC0
FFC0
ENDCHAR
STARTCHAR 1E17
ENCODING 7703
SWIDTH 617 0
DWIDTH 12 0
BBX 10 17 1 0
BITMAP
0600
0C00
0000
3F00
0000
0000
1E00
7F80
6180
C0C0
C0C0
FFC0
C000
C000
6080
7F80
1F00
ENDCHAR
STARTCHAR 1E1C
ENCODING 7708
SWIDTH 668 0
DWIDTH 13 0
BBX 10 22 2 -4
BITMAP
2100
3300
1E00
0000
FFC0
FFC0
C000
C000
C000
C000
FF80
FF80
C000
C000
C000
C000
FFC0
FFC0
0800
0E00
0200
1C00
ENDCHAR
STARTCHAR 1E1D
ENCODING 7709
SWIDTH 617 0
DWIDTH 12 0
BBX 10 19 1 -4
BITMAP
2100
3300
1E00
0000
1E00
7F80
6180
C0C0
C0C0
FFC0
C000
C000
6080
7F80
1F00
0800
0C00
0200
1C00
ENDCHAR
STARTCHAR 1E20
ENCODING 7712
SWIDTH 771 0
DWIDTH 15 0
BBX 12 17 1 0
BITMAP
0FC0
0000
0000
0FC0
1FF0
3030
6000
C000
C000
C000
C030
C030
C030
6030
7030
1FF0
0FC0
ENDCHAR
STARTCHAR 1E21
ENCODING 7713
SWIDTH 668 0
DWIDTH 13 0
BBX 11 18 1 -4
BITMAP
3F80
0000
0000
1E60
7FE0
E0E0
C0E0
C060
C060
C060
C0E0
61E0
3F60
0C60
0040
40C0
FF80
3F00
ENDCHAR
STARTCHAR 1E24
ENCODING 7716
SWIDTH 822 0
DWIDTH 16 0
BBX 12 18 2 -4
BITMAP
C030
C030
C030
C030
C030
C030
FFF0
FFF0
C030
C030
C030
C030
C030
C030
0000
0000
0600
0600
ENDCHAR
STARTCHAR 1E25
ENCODING 7717
SWIDTH 668 0
DWIDTH 13 0
BBX 10 19 2 -4
BITMAP
C000
C000
C000
C000
DE00
FF80
E180
C180
C0C0
C0C0
C0C0
C0C0
C0C0
C0C0
C0C0
0000
0000
0C00
0C00
ENDCHAR
STARTCHAR 1E2A
ENCODING 7722
SWIDTH 822 0
DWIDTH 16 0
BBX 12 18 2 -4
BITMAP
C030
C030
C030
C030
C030
C030
FFF0
FFF0
C030
C030
C030
C030
C030
C030
0000
0000
1180
0F00
ENDCHAR
STARTCHAR 1E2B
ENCODING 7723
SWIDTH 668 0
DWIDTH 13 0
BBX 10 19 2 -4
BITMAP
C000
C000
C000
C000
DE00
FF80
E180
C180
C0C0
C0C0
C0C0
C0C0
C0C0
C0C0
C0C0
0000
0000
2300
1E00
ENDCHAR
STARTCHAR 1E2E
ENCODING 7726
SWIDTH 308 0
DWIDTH 6 0
BBX 6 20 0 0
BITMAP
18
30
00
CC
CC
00
30
30
30
30
30
30
30
30
30
30
30
30
30
30
ENDCHAR
STARTCHAR 1E2F
ENCODING 7727
SWIDTH 257 0
DWIDTH 5 0
BBX 5 17 0 0
BITMAP
18
30
00
C8
C8
00
30
30
30
30
30
30
30
30
30
30
30
ENDCHAR
STARTCHAR 1E36
ENCODING 7734
SWIDTH 617 0
DWIDTH 12 0
BBX 9 18 2 -4
BITMAP
C000
C000
C000
C000
C000
C000
C000
C000
C000
C000
C000
C000
FF80
FF80
0000
0000
0C00
0C00
ENDCHAR
STARTCHAR 1E37
ENCODING 7735
SWIDTH 257 0
DWIDTH 5 0
BBX 2 19 2 -4
BITMAP
C0
C0
C0
C0
C0
C0
C0
C0
C0
C0
C0
C0
C0
C0
C0
00
00
C0
C0
ENDCHAR
STARTCHAR 1E3A
ENCODING 7738
SWIDTH 617 0
DWIDTH 12 0
BBX 9 17 2 -3
BITMAP
C000
C000
C000
C000
C000
C000
C000
C000
C000
C000
C000
C000
FF80
FF80
0000
0000
3F00
ENDCHAR
STARTCHAR 1E3B
ENCODING 7739
SWIDTH 257 0
DWIDTH 5 0
BBX 6 18 0 -3
BITMAP
30
30
30
30
30
30
30
30
30
30
30
30
30
30
30
00
00
FC
ENDCHAR
STARTCHAR 1E42
ENCODING 7746
SWIDTH 977 0
DWIDTH 19 0
BBX 15 18 2 -4
BITMAP
C006
C00E
E01E
F01E
F036
D836
D866
CC46
C6C6
C786
C386
C306
C006
C006
0000
0000
0300
0300
ENDCHAR
STARTCHAR 1E43
ENCODING 7747
SWIDTH 1080 0
DWIDTH 21 0
BBX 17 15 2 -4
BITMAP
DE3E00
FF7F00
E1C380
C1C180
C18180
C18180
C18180
C18180
C18180
C18180
C18180
000000
000000
018000
018000
ENDCHAR
STARTCHAR 1E44
ENCODING 7748
SWIDTH 822 0
DWIDTH 16 0
BBX 12 18 2 0
BITMAP
0600
0600
0000
0000
C030
E030
F030
F030
D830
DC30
CE30
C630
C330
C1B0
C1F0
C0F0
C070
C030
ENDCHAR
STARTCHAR 1E45
ENCODING 7749
SWIDTH 668 0
DWIDTH 13 0
BBX 10 15 2 0
BITMAP
0C00
0C00
0000
0000
DE00
FF80
E180
C180
C0C0
C0C0
C0C0
C0C0
C0C0
C0C0
C0C0
ENDCHAR
STARTCHAR 1E46
ENCODING 7750
SWIDTH 822 0
DWIDTH 16 0
BBX 12 18 2 -4
BITMAP
C030
E030
F030
F030
D830
DC30
CE30
C630
C330
C1B0
C1F0
C0F0
C070
C030
0000
0000
0600
0600
ENDCHAR
STARTCHAR 1E47
ENCODING 7751
SWIDTH 668 0
DWIDTH 13 0
BBX 10 15 2 -4
BITMAP
DE00
FF80
E180
C180
C0C0
C0C0
C0C0
C0C0
C0C0
C0C0
C0C0
0000
0000
0C00
0C00
ENDCHAR
STARTCHAR 1E48
ENCODING 7752
SWIDTH 822 0
DWIDTH 16 0
BBX 12 17 2 -3
BITMAP
C030
E030
F030
F030
D830
DC30
CE30
C630
C330
C1B0
C1F0
C0F0
C070
C030
0000
0000
1F80
ENDCHAR
STARTCHAR 1E49
ENCODING 7753
SWIDTH 668 0
DWIDTH 13 0
BBX 10 14 2 -3
BITMAP
DE00
FF80
E180
C180
C0C0
C0C0
C0C0
C0C0
C0C0
C0C0
C0C0
0000
0000
7F00
ENDCHAR
STARTCHAR 1E4C
ENCODING 7756
SWIDTH 822 0
DWIDTH 16 0
BBX 14 20 1 0
BITMAP
00C0
0100
0200
0E40
09C0
0000
0FC0
1FF0
3038
601C
C00C
C00C
C00C
C00C
C00C
C00C
601C
3038
1FF0
0FC0
ENDCHAR
STARTCHAR 1E4D
ENCODING 7757
SWIDTH 617 0
DWIDTH 12 0
BBX 11 17 1 0
BITMAP
0300
0400
0800
3900
2700
0000
1F00
7F80
61C0
C0C0
C040
C060
C040
C0C0
61C0
7F80
1F00
ENDCHAR
STARTCHAR 1E4E
ENCODING 7758
SWIDTH 822 0
DWIDTH 16 0
BBX 14 20 1 0
BITMAP
04C0
04C0
0000
0E40
09C0
0000
0FC0
1FF0
3038
601C
C00C
C00C
C00C
C00C
C00C
C00C
601C
3038
1FF0
0FC0
ENDCHAR
STARTCHAR 1E4F
ENCODING 7759
SWIDTH 617 0
DWIDTH 12 0
BBX 11 17 1 0
BITMAP
1300
1300
0000
3900
2700
0000
1F00
7F80
61C0
C0C0
C040
C060
C040
C0C0
61C0
7F80
1F00
ENDCHAR
STARTCHAR 1E50
ENCODING 7760
SWIDTH 822 0
DWIDTH 16 0
BBX 14 20 1 0
BITMAP
0600
0300
0000
0000
0FC0
0000
0FC0
1FF0
3038
601C
C00C
C00C
C00C
C00C
C00C
C00C
601C
3038
1FF0
0FC0
ENDCHAR
STARTCHAR 1E51
ENCODING 7761
SWIDTH 617 0
DWIDTH 12 0
BBX 11 17 1 0
BITMAP
1800
0C00
0000
3F00
0000
0000
1F00
7F80
61C0
C0C0
C040
C060
C040
C0C0
61C0
7F80
1F00
ENDCHAR
STARTCHAR 1E52
ENCODING 7762
SWIDTH 822 0
DWIDTH 16 0
BBX 14 20 1 0
BITMAP
00C0
0100
0200
0000
0FC0
0000
0FC0
1FF0
3038
601C
C00C
C00C
C00C
C00C
C00C
C00C
601C
3038
1FF0
0FC0
ENDCHAR
STARTCHAR 1E53
ENCODING 7763
SWIDTH 617 0
DWIDTH 12 0
BBX 11 17 1 0
BITMAP
0700
0C00
0000
3F00
0000
0000
1F00
7F80
61C0
C0C0
C040
C060
C040
C0C0
61C0
7F80
1F00
ENDCHAR
STARTCHAR 1E5A
ENCODING 7770
SWIDTH 720 0
DWIDTH 14 0
BBX 11 18 2 -4
BITMAP
FF00
FFC0
C0C0
C060
C060
C060
C060
C0C0
FF80
FF00
C180
C1C0
C0C0
C060
0000
0000
0C00
0C00
ENDCHAR
STARTCHAR 1E5B
ENCODING 7771
SWIDTH 411 0
DWIDTH 8 0
BBX 5 15 2 -4
BITMAP
D8
F8
E0
C0
C0
C0
C0
C0
C0
C0
C0
00
00
C0
C0
ENDCHAR
STARTCHAR 1E5E
ENCODING 7774
SWIDTH 720 0
DWIDTH 14 0
BBX 11 17 2 -3
BITMAP
FF00
FFC0
C0C0
C060
C060
C060
C060
C0C0
FF80
FF00
C180
C1C0
C0C0
C060
0000
0000
3F00
ENDCHAR
STARTCHAR 1E5F
ENCODING 7775
SWIDTH 411 0
DWIDTH 8 0
BBX 7 14 0 -3
BITMAP
36
3E
38
30
30
30
30
30
30
30
30
00
00
FC
ENDCHAR
STARTCHAR 1E60
ENCODING 7776
SWIDTH 617 0
DWIDTH 12 0
BBX 10 17 1 0
BITMAP
0C00
0C00
0000
3F00
7FC0
E000
C000
C000
E000
7C00
1F80
01C0
00C0
00C0
C0C0
FF80
3F00
ENDCHAR
STARTCHAR 1E61
ENCODING 7777
SWIDTH 514 0
DWIDTH 10 0
BBX 8 15 1 0
BITMAP
18
18
00
00
3E
FF
C0
C0
E0
7E
0F
03
83
FF
7C
ENDCHAR
STARTCHAR 1E62
ENCODING 7778
SWIDTH 617 0
DWIDTH 12 0
BBX 10 18 1 -4
BITMAP
3F00
7FC0
E000
C000
C000
E000
7C00
1F80
01C0
00C0
00C0
C0C0
FF80
3F00
0000
0000
0C00
0C00
ENDCHAR
STARTCHAR 1E63
ENCODING 7779
SWIDTH 514 0
DWIDTH 10 0
BBX 8 15 1 -4
BITMAP
3E
FF
C0
C0
E0
7E
0F
03
83
FF
7C
00
00
18
18
ENDCHAR
STARTCHAR 1E64
ENCODING 7780
SWIDTH 617 0
DWIDTH 12 0
BBX 10 20 1 0
BITMAP
0C00
0C00
0000
0700
0C00
0000
3F00
7FC0
E000
C000
C000
E000
7C00
1F80
01C0
00C0
00C0
C0C0
FF80
3F00
ENDCHAR
STARTCHAR 1E65
ENCODING 7781
SWIDTH 514 0
DWIDTH 10 0
BBX 8 17 1 0
BITMAP
18
18
00
0C
18
00
3E
FF
C0
C0
E0
7E
0F
03
83
FF
7C
ENDCHAR
STARTCHAR 1E66
ENCODING 7782
SWIDTH 617 0
DWIDTH 12 0
BBX 10 20 1 0
BITMAP
0C00
0C00
0000
3300
0E00
0000
3F00
7FC0
E000
C000
C000
E000
7C00
1F80
01C0
00C0
00C0
C0C0
FF80
3F00
ENDCHAR
STARTCHAR 1E67
ENCODING 7783
SWIDTH 514 0
DWIDTH 10 0
BBX 8 17 1 0
BITMAP
18
18
00
66
38
00
3E
FF
C0
C0
E0
7E
0F
03
83
FF
7C
ENDCHAR
STARTCHAR 1E68
ENCODING 7784
SWIDTH 617 0
DWIDTH 12 0
BBX 10 21 1 -4
BITMAP
0C00
0C00
0000
3F00
7FC0
E000
C000
C000
E000
7C00
1F80
01C0
00C0
00C0
C0C0
FF80
3F00
0000
0000
0C00
0C00
ENDCHAR
STARTCHAR 1E69
ENCODING 7785
SWIDTH 514 0
DWIDTH 10 0
BBX 8 19 1 -4
BITMAP
18
18
00
00
3E
FF
C0
C0
E0
7E
0F
03
83
FF
7C
00
00
18
18
ENDCHAR
STARTCHAR 1E6C
ENCODING 7788
SWIDTH 565 0
DWIDTH 11 0
BBX 11 18 0 -4
BITMAP
FFE0
FFE0
0600
0600
0600
0600
0600
0600
0600
0600
0600
0600
0600
0600
0000
0000
0600
0600
ENDCHAR
STARTCHAR 1E6D
ENCODING 7789
SWIDTH 411 0
DWIDTH 8 0
BBX 7 17 0 -4
BITMAP
30
30
FE
FE
30
30
30
30
30
30
30
3E
1E
00
00
0C
0C
ENDCHAR
STARTCHAR 1E6E
ENCODING 7790
SWIDTH 565 0
DWIDTH 11 0
BBX 11 17 0 -3
BITMAP
FFE0
FFE0
0600
0600
0600
0600
0600
0600
0600
0600
0600
0600
0600
0600
0000
0000
1F80
ENDCHAR
STARTCHAR 1E6F
ENCODING 7791
SWIDTH 411 0
DWIDTH 8 0
BBX 8 16 0 -3
BITMAP
30
30
FE
FE
30
30
30
30
30
30
30
3E
1E
00
00
3F
ENDCHAR
STARTCHAR 1E78
ENCODING 7800
SWIDTH 771 0
DWIDTH 15 0
BBX 11 20 2 0
BITMAP
0300
0600
0000
1C80
1300
0000
C020
C020
C020
C020
C020
C020
C020
C020
C020
C060
C060
60E0
7FC0
1F00
ENDCHAR
STARTCHAR 1E79
ENCODING 7801
SWIDTH 668 0
DWIDTH 13 0
BBX 9 17 2 0
BITMAP
0600
0C00
0000
3900
4E00
0000
C180
C180
C180
C180
C180
C180
C180
C180
C180
7E80
3C80
ENDCHAR
STARTCHAR 1E7A
ENCODING 7802
SWIDTH 771 0
DWIDTH 15 0
BBX 11 20 2 0
BITMAP
1900
1900
0000
1F80
0000
0000
C020
C020
C020
C020
C020
C020
C020
C020
C020
C060
C060
60E0
7FC0
1F00
ENDCHAR
STARTCHAR 1E7B
ENCODING 7803
SWIDTH 668 0
DWIDTH 13 0
BBX 9 18 2 0
BITMAP
3200
3600
0000
0000
7F00
0000
0000
C180
C180
C180
C180
C180
C180
C180
C180
C180
7E80
3C80
ENDCHAR
STARTCHAR 1E80
ENCODING 7808
SWIDTH 1131 0
DWIDTH 22 0
BBX 20 18 1 0
BITMAP
038000
00C000
006000
000000
C06030
C06030
C0F020
60F060
609060
619840
3198C0
3108C0
330C80
1B0D80
1A0580
1E0780
0E0700
0C0300
ENDCHAR
STARTCHAR 1E81
ENCODING 7809
SWIDTH 874 0
DWIDTH 17 0
BBX 17 15 0 0
BITMAP
030000
018000
00C000
000000
C0C080
41C180
61C100
616300
236300
332200
323600
163600
1E1400
1C1C00
0C0C00
ENDCHAR
STARTCHAR 1E82
ENCODING 7810
SWIDTH 1131 0
DWIDTH 22 0
BBX 20 18 1 0
BITMAP
001800
003000
006000
000000
C06030
C06030
C0F020
60F060
609060
619840
3198C0
3108C0
330C80
1B0D80
1A0580
1E0780
0E0700
0C0300
ENDCHAR
STARTCHAR 1E83
ENCODING 7811
SWIDTH 874 0
DWIDTH 17 0
BBX 17 15 0 0
BITMAP
007000
00C000
018000
000000
C0C080
41C180
61C100
616300
236300
332200
323600
163600
1E1400
1C1C00
0C0C00
ENDCHAR
STARTCHAR 1E84
ENCODING 7812
SWIDTH 1131 0
DWIDTH 22 0
BBX 20 17 1 0
BITMAP
019800
019800
000000
C06030
C06030
C0F020
60F060
609060
619840
3198C0
3108C0
330C80
1B0D80
1A0580
1E0780
0E0700
0C0300
ENDCHAR
STARTCHAR 1E85
ENCODING 7813
SWIDTH 874 0
DWIDTH 17 0
BBX 17 15 0 0
BITMAP
032000
032000
000000
000000
C0C080
41C180
61C100
616300
236300
332200
323600
163600
1E1400
1C1C00
0C0C00
ENDCHAR
STARTCHAR 1E8E
ENCODING 7822
SWIDTH 668 0
DWIDTH 13 0
BBX 12 18 0 0
BITMAP
0600
0600
0000
0000
C030
6030
6060
3060
18C0
1980
0D80
0F00
0700
0600
0600
0600
0600
0600
ENDCHAR
STARTCHAR 1E8F
ENCODING 7823
SWIDTH 565 0
DWIDTH 11 0
BBX 11 19 0 -4
BITMAP
0C00
0C00
0000
0000
C060
60C0
60C0
6080
3180
3180
1B00
1B00
1A00
0E00
0E00
0C00
0C00
F800
F000
ENDCHAR
STARTCHAR 1E92
ENCODING 7826
SWIDTH 668 0
DWIDTH 13 0
BBX 11 18 1 -4
BITMAP
FFE0
FFE0
00C0
0180
0300
0700
0600
0C00
1800
3800
3000
6000
FFE0
FFE0
0000
0000
0400
0600
ENDCHAR
STARTCHAR 1E93
ENCODING 7827
SWIDTH 514 0
DWIDTH 10 0
BBX 8 15 1 -4
BITMAP
FF
FF
06
0E
0C
18
30
70
60
FF
FF
00
00
18
18
ENDCHAR
STARTCHAR 1E97
ENCODING 7831
SWIDTH 411 0
DWIDTH 8 0
BBX 7 17 0 0
BITMAP
CC
CC
00
00
30
30
FE
FE
30
30
30
30
30
30
30
3E
1E
ENDCHAR
STARTCHAR 1E9E
ENCODING 7838
SWIDTH 771 0
DWIDTH 15 0
BBX 12 14 2 0
BITMAP
1F80
3FE0
6060
C0C0
C180
C300
C7C0
C7E0
C070
C030
C030
C070
C7E0
CFC0
ENDCHAR
STARTCHAR 1EA0
ENCODING 7840
SWIDTH 720 0
DWIDTH 14 0
BBX 14 18 0 -4
BITMAP
0300
0780
0780
04C0
0CC0
0C40
1860
1860
3030
3FF0
3FF8
6018
600C
C00C
0000
0000
0300
0300
ENDCHAR
STARTCHAR 1EA1
ENCODING 7841
SWIDTH 617 0
DWIDTH 12 0
BBX 9 15 1 -4
BITMAP
3E00
FF00
0180
0180
0180
7F80
C180
C180
C180
E780
3D80
0000
0000
0800
0800
ENDCHAR
STARTCHAR 1EA2
ENCODING 7842
SWIDTH 720 0
DWIDTH 14 0
BBX 14 19 0 0
BITMAP
0780
0080
0080
0100
0000
0300
0780
0780
04C0
0CC0
0C40
1860
1860
3030
3FF0
3FF8
6018
600C
C00C
ENDCHAR
STARTCHAR 1EA3
ENCODING 7843
SWIDTH 617 0
DWIDTH 12 0
BBX 9 16 1 0
BITMAP
1C00
0600
0400
0400
0000
3E00
FF00
0180
0180
0180
7F80
C180
C180
C180
E780
3D80
ENDCHAR
STARTCHAR 1EA4
ENCODING 7844
SWIDTH 720 0
DWIDTH 14 0
BBX 14 19 0 0
BITMAP
0018
0020
0380
0CC0
0000
0300
0780
0780
04C0
0CC0
0C40
1860
1860
3030
3FF0
3FF8
6018
600C
C00C
ENDCHAR
STARTCHAR 1EA5
ENCODING 7845
SWIDTH 617 0
DWIDTH 12 0
BBX 10 16 1 0
BITMAP
00C0
0180
1C00
3300
0000
3E00
FF00
0180
0180
0180
7F80
C180
C180
C180
E780
3D80
ENDCHAR
STARTCHAR 1EA6
ENCODING 7846
SWIDTH 720 0
DWIDTH 14 0
BBX 14 19 0 0
BITMAP
00C0
0060
0380
0CC0
0000
0300
0780
0780
04C0
0CC0
0C40
1860
1860
3030
3FF0
3FF8
6018
600C
C00C
ENDCHAR
STARTCHAR 1EA7
ENCODING 7847
SWIDTH 617 0
DWIDTH 12 0
BBX 9 16 1 0
BITMAP
0200
0180
1C00
3300
0000
3E00
FF00
0180
0180
0180
7F80
C180
C180
C180
E780
3D80
ENDCHAR
STARTCHAR 1EA8
ENCODING 7848
SWIDTH 720 0
DWIDTH 14 0
BBX 14 19 0 0
BITMAP
00E0
0020
0380
0CC0
0000
0300
0780
0780
04C0
0CC0
0C40
1860
1860
3030
3FF0
3FF8
6018
600C
C00C
ENDCHAR
STARTCHAR 1EA9
ENCODING 7849
SWIDTH 617 0
DWIDTH 12 0
BBX 9 16 1 0
BITMAP
0300
0080
1D00
3300
0000
3E00
FF00
0180
0180
0180
7F80
C180
C180
C180
E780
3D80
ENDCHAR
STARTCHAR 1EAA
ENCODING 7850
SWIDTH 720 0
DWIDTH 14 0
BBX 14 20 0 0
BITMAP
0E40
09C0
0000
0380
0CC0
0000
0300
0780
0780
04C0
0CC0
0C40
1860
1860
3030
3FF0
3FF8
6018
600C
C00C
ENDCHAR
STARTCHAR 1EAB
ENCODING 7851
SWIDTH 617 0
DWIDTH 12 0
BBX 9 17 1 0
BITMAP
3900
2E00
0000
1C00
3300
0000
3E00
FF00
0180
0180
0180
7F80
C180
C180
C180
E780
3D80
ENDCHAR
STARTCHAR 1EAC
ENCODING 7852
SWIDTH 720 0
DWIDTH 14 0
BBX 14 22 0 -4
BITMAP
0300
0780
0CC0
0000
0300
0780
0780
04C0
0CC0
0C40
1860
1860
3030
3FF0
3FF8
6018
600C
C00C
0000
0000
0300
0300
ENDCHAR
STARTCHAR 1EAD
ENCODING 7853
SWIDTH 617 0
DWIDTH 12 0
BBX 9 19 1 -4
BITMAP
1C00
3600
6300
0000
3E00
FF00
0180
0180
0180
7F80
C180
C180
C180
E780
3D80
0000
0000
0800
0800
ENDCHAR
STARTCHAR 1EAE
ENCODING 7854
SWIDTH 720 0
DWIDTH 14 0
BBX 14 20 0 0
BITMAP
00C0
0300
0000
0C40
0780
0000
0300
0780
0780
04C0
0CC0
0C40
1860
1860
3030
3FF0
3FF8
6018
600C
C00C
ENDCHAR
STARTCHAR 1EAF
ENCODING 7855
SWIDTH 617 0
DWIDTH 12 0
BBX 9 17 1 0
BITMAP
0600
0C00
0000
2300
3E00
0000
3E00
FF00
0180
0180
0180
7F80
C180
C180
C180
E780
3D80
ENDCHAR
STARTCHAR 1EB0
ENCODING 7856
SWIDTH 720 0
DWIDTH 14 0
BBX 14 20 0 0
BITMAP
0600
0300
0000
0C40
0780
0000
0300
0780
0780
04C0
0CC0
0C40
1860
1860
3030
3FF0
3FF8
6018
600C
C00C
ENDCHAR
STARTCHAR 1EB1
ENCODING 7857
SWIDTH 617 0
DWIDTH 12 0
BBX 9 17 1 0
BITMAP
3000
0800
0000
2300
3E00
0000
3E00
FF00
0180
0180
0180
7F80
C180
C180
C180
E780
3D80
ENDCHAR
STARTCHAR 1EB2
ENCODING 7858
SWIDTH 720 0
DWIDTH 14 0
BBX 14 20 0 0
BITMAP
0300
0080
0100
0C40
0780
0000
0300
0780
0780
04C0
0CC0
0C40
1860
1860
3030
3FF0
3FF8
6018
600C
C00C
ENDCHAR
STARTCHAR 1EB3
ENCODING 7859
SWIDTH 617 0
DWIDTH 12 0
BBX 9 17 1 0
BITMAP
1C00
0400
0400
2300
3E00
0000
3E00
FF00
0180
0180
0180
7F80
C180
C180
C180
E780
3D80
ENDCHAR
STARTCHAR 1EB4
ENCODING 7860
SWIDTH 720 0
DWIDTH 14 0
BBX 14 20 0 0
BITMAP
0E40
09C0
0000
0C40
0780
0000
0300
0780
0780
04C0
0CC0
0C40
1860
1860
3030
3FF0
3FF8
6018
600C
C00C
ENDCHAR
STARTCHAR 1EB5
ENCODING 7861
SWIDTH 617 0
DWIDTH 12 0
BBX 9 17 1 0
BITMAP
3900
2E00
0000
2300
3E00
0000
3E00
FF00
0180
0180
0180
7F80
C180
C180
C180
E780
3D80
ENDCHAR
STARTCHAR 1EB6
ENCODING 7862
SWIDTH 720 0
DWIDTH 14 0
BBX 14 22 0 -4
BITMAP
0840
0CC0
0780
0000
0300
0780
0780
04C0
0CC0
0C40
1860
1860
3030
3FF0
3FF8
6018
600C
C00C
0000
0000
0300
0300
ENDCHAR
STARTCHAR 1EB7
ENCODING 7863
SWIDTH 617 0
DWIDTH 12 0
BBX 9 19 1 -4
BITMAP
2100
2300
1E00
0000
3E00
FF00
0180
0180
0180
7F80
C180
C180
C180
E780
3D80
0000
0000
0800
0800
ENDCHAR
STARTCHAR 1EB8
ENCODING 7864
SWIDTH 668 0
DWIDTH 13 0
BBX 10 18 2 -4
BITMAP
FFC0
FFC0
C000
C000
C000
C000
FF80
FF80
C000
C000
C000
C000
FFC0
FFC0
0000
0000
0C00
0C00
ENDCHAR
STARTCHAR 1EB9
ENCODING 7865
SWIDTH 617 0
DWIDTH 12 0
BBX 10 15 1 -4
BITMAP
1E00
7F80
6180
C0C0
C0C0
FFC0
C000
C000
6080
7F80
1F00
0000
0000
0C00
0C00
ENDCHAR
STARTCHAR 1EBA
ENCODING 7866
SWIDTH 668 0
DWIDTH 13 0
BBX 10 19 2 0
BITMAP
1C00
0200
0200
0400
0000
FFC0
FFC0
C000
C000
C000
C000
FF80
FF80
C000
C000
C000
C000
FFC0
FFC0
ENDCHAR
STARTCHAR 1EBB
ENCODING 7867
SWIDTH 617 0
DWIDTH 12 0
BBX 10 16 1 0
BITMAP
1C00
0200
0200
0400
0000
1E00
7F80
6180
C0C0
C0C0
FFC0
C000
C000
6080
7F80
1F00
ENDCHAR
STARTCHAR 1EBC
ENCODING 7868
SWIDTH 668 0
DWIDTH 13 0
BBX 10 18 2 0
BITMAP
2000
3900
2600
0000
FFC0
FFC0
C000
C000
C000
C000
FF80
FF80
C000
C000
C000
C000
FFC0
FFC0
ENDCHAR
STARTCHAR 1EBD
ENCODING 7869
SWIDTH 617 0
DWIDTH 12 0
BBX 10 15 1 0
BITMAP
1000
2900
2700
0000
1E00
7F80
6180
C0C0
C0C0
FFC0
C000
C000
6080
7F80
1F00
ENDCHAR
STARTCHAR 1EBE
ENCODING 7870
SWIDTH 668 0
DWIDTH 13 0
BBX 11 19 2 0
BITMAP
0060
0080
1D00
3300
0000
FFC0
FFC0
C000
C000
C000
C000
FF80
FF80
C000
C000
C000
C000
FFC0
FFC0
ENDCHAR
STARTCHAR 1EBF
ENCODING 7871
SWIDTH 617 0
DWIDTH 12 0
BBX 11 16 1 0
BITMAP
0060
0080
1D00
3300
0000
1E00
7F80
6180
C0C0
C0C0
FFC0
C000
C000
6080
7F80
1F00
ENDCHAR
STARTCHAR 1EC0
ENCODING 7872
SWIDTH 668 0
DWIDTH 13 0
BBX 10 19 2 0
BITMAP
0300
0180
1C00
3300
0000
FFC0
FFC0
C000
C000
C000
C000
FF80
FF80
C000
C000
C000
C000
FFC0
FFC0
ENDCHAR
STARTCHAR 1EC1
ENCODING 7873
SWIDTH 617 0
DWIDTH 12 0
BBX 10 16 1 0
BITMAP
0300
0180
1C00
3300
0000
1E00
7F80
6180
C0C0
C0C0
FFC0
C000
C000
6080
7F80
1F00
ENDCHAR
STARTCHAR 1EC2
ENCODING 7874
SWIDTH 668 0
DWIDTH 13 0
BBX 10 19 2 0
BITMAP
0380
0080
1C00
3300
0000
FFC0
FFC0
C000
C000
C000
C000
FF80
FF80
C000
C000
C000
C000
FFC0
FFC0
ENDCHAR
STARTCHAR 1EC3
ENCODING 7875
SWIDTH 617 0
DWIDTH 12 0
BBX 10 16 1 0
BITMAP
0380
0080
1C00
3300
0000
1E00
7F80
6180
C0C0
C0C0
FFC0
C000
C000
6080
7F80
1F00
ENDCHAR
STARTCHAR 1EC4
ENCODING 7876
SWIDTH 668 0
DWIDTH 13 0
BBX 10 20 2 0
BITMAP
3900
2700
0000
1C00
3300
0000
FFC0
FFC0
C000
C000
C000
C000
FF80
FF80
C000
C000
C000
C000
FFC0
FFC0
ENDCHAR
STARTCHAR 1EC5
ENCODING 7877
SWIDTH 617 0
DWIDTH 12 0
BBX 10 17 1 0
BITMAP
3900
2700
0000
1C00
3300
0000
1E00
7F80
6180
C0C0
C0C0
FFC0
C000
C000
6080
7F80
1F00
ENDCHAR
STARTCHAR 1EC6
ENCODING 7878
SWIDTH 668 0
DWIDTH 13 0
BBX 10 22 2 -4
BITMAP
0C00
1E00
3300
0000
FFC0
FFC0
C000
C000
C000
C000
FF80
FF80
C000
C000
C000
C000
FFC0
FFC0
0000
0000
0C00
0C00
ENDCHAR
STARTCHAR 1EC7
ENCODING 7879
SWIDTH 617 0
DWIDTH 12 0
BBX 10 19 1 -4
BITMAP
0C00
1200
2100
0000
1E00
7F80
6180
C0C0
C0C0
FFC0
C000
C000
6080
7F80
1F00
0000
0000
0C00
0C00
ENDCHAR
STARTCHAR 1EC8
ENCODING 7880
SWIDTH 308 0
DWIDTH 6 0
BBX 4 19 1 0
BITMAP
E0
10
10
20
00
60
60
60
60
60
60
60
60
60
60
60
60
60
60
ENDCHAR
STARTCHAR 1EC9
ENCODING 7881
SWIDTH 257 0
DWIDTH 5 0
BBX 4 16 1 0
BITMAP
E0
30
30
20
00
60
60
60
60
60
60
60
60
60
60
60
ENDCHAR
STARTCHAR 1ECA
ENCODING 7882
SWIDTH 308 0
DWIDTH 6 0
BBX 2 18 2 -4
BITMAP
C0
C0
C0
C0
C0
C0
C0
C0
C0
C0
C0
C0
C0
C0
00
00
C0
C0
ENDCHAR
STARTCHAR 1ECB
ENCODING 7883
SWIDTH 257 0
DWIDTH 5 0
BBX 3 19 1 -4
BITMAP
E0
60
00
00
60
60
60
60
60
60
60
60
60
60
60
00
00
60
60
ENDCHAR
STARTCHAR 1ECC
ENCODING 7884
SWIDTH 822 0
DWIDTH 16 0
BBX 14 18 1 -4
BITMAP
0FC0
1FF0
3038
601C
C00C
C00C
C00C
C00C
C00C
C00C
601C
3038
1FF0
0FC0
0000
0000
0300
0300
ENDCHAR
STARTCHAR 1ECD
ENCODING 7885
SWIDTH 617 0
DWIDTH 12 0
BBX 11 15 1 -4
BITMAP
1F00
7F80
61C0
C0C0
C040
C060
C040
C0C0
61C0
7F80
1F00
0000
0000
0C00
0C00
ENDCHAR
STARTCHAR 1ECE
ENCODING 7886
SWIDTH 822 0
DWIDTH 16 0
BBX 14 19 1 0
BITMAP
0780
0080
0080
0180
0000
0FC0
1FF0
3038
601C
C00C
C00C
C00C
C00C
C00C
C00C
601C
3038
1FF0
0FC0
ENDCHAR
STARTCHAR 1ECF
ENCODING 7887
SWIDTH 617 0
DWIDTH 12 0
BBX 11 16 1 0
BITMAP
1E00
0200
0200
0400
0000
1F00
7F80
61C0
C0C0
C040
C060
C040
C0C0
61C0
7F80
1F00
ENDCHAR
STARTCHAR 1ED0
ENCODING 7888
SWIDTH 822 0
DWIDTH 16 0
BBX 14 19 1 0
BITMAP
0018
0030
0380
0CC0
0000
0FC0
1FF0
3038
601C
C00C
C00C
C00C
C00C
C00C
C00C
601C
3038
1FF0
0FC0
ENDCHAR
STARTCHAR 1ED1
ENCODING 7889
SWIDTH 617 0
DWIDTH 12 0
BBX 11 16 1 0
BITMAP
0060
00C0
0E00
3300
0000
1F00
7F80
61C0
C0C0
C040
C060
C040
C0C0
61C0
7F80
1F00
ENDCHAR
STARTCHAR 1ED2
ENCODING 7890
SWIDTH 822 0
DWIDTH 16 0
BBX 14 19 1 0
BITMAP
00C0
0060
0380
0CC0
0000
0FC0
1FF0
3038
601C
C00C
C00C
C00C
C00C
C00C
C00C
601C
3038
1FF0
0FC0
ENDCHAR
STARTCHAR 1ED3
ENCODING 7891
SWIDTH 617 0
DWIDTH 12 0
BBX 11 16 1 0
BITMAP
0300
0180
0E00
3300
0000
1F00
7F80
61C0
C0C0
C040
C060
C040
C0C0
61C0
7F80
1F00
ENDCHAR
STARTCHAR 1ED4
ENCODING 7892
SWIDTH 822 0
DWIDTH 16 0
BBX 14 19 1 0
BITMAP
00E0
0020
0380
0CC0
0000
0FC0
1FF0
3038
601C
C00C
C00C
C00C
C00C
C00C
C00C
601C
3038
1FF0
0FC0
ENDCHAR
STARTCHAR 1ED5
ENCODING 7893
SWIDTH 617 0
DWIDTH 12 0
BBX 11 16 1 0
BITMAP
0380
0080
0E00
3300
0000
1F00
7F80
61C0
C0C0
C040
C060
C040
C0C0
61C0
7F80
1F00
ENDCHAR
STARTCHAR 1ED6
ENCODING 7894
SWIDTH 822 0
DWIDTH 16 0
BBX 14 20 1 0
BITMAP
0640
09C0
0000
0380
0CC0
0000
0FC0
1FF0
3038
601C
C00C
C00C
C00C
C00C
C00C
C00C
601C
3038
1FF0
0FC0
ENDCHAR
STARTCHAR 1ED7
ENCODING 7895
SWIDTH 617 0
DWIDTH 12 0
BBX 11 17 1 0
BITMAP
1900
2700
0000
0E00
3300
0000
1F00
7F80
61C0
C0C0
C040
C060
C040
C0C0
61C0
7F80
1F00
ENDCHAR
STARTCHAR 1ED8
ENCODING 7896
SWIDTH 822 0
DWIDTH 16 0
BBX 14 22 1 -4
BITMAP
0300
0780
0CC0
0000
0FC0
1FF0
3038
601C
C00C
C00C
C00C
C00C
C00C
C00C
601C
3038
1FF0
0FC0
0000
0000
0300
0300
ENDCHAR
STARTCHAR 1ED9
ENCODING 7897
SWIDTH 617 0
DWIDTH 12 0
BBX 11 19 1 -4
BITMAP
0E00
1B00
2180
0000
1F00
7F80
61C0
C0C0
C040
C060
C040
C0C0
61C0
7F80
1F00
0000
0000
0C00
0C00
ENDCHAR
STARTCHAR 1EDA
ENCODING 7898
SWIDTH 822 0
DWIDTH 16 0
BBX 14 18 1 0
BITMAP
00E0
0184
0304
0004
0FEC
1FF0
3038
6018
C00C
C00C
C00C
C00C
C00C
C00C
601C
3038
1FF0
0FC0
ENDCHAR
STARTCHAR 1EDB
ENCODING 7899
SWIDTH 617 0
DWIDTH 12 0
BBX 11 15 1 0
BITMAP
0300
0640
0C40
0040
1FC0
7F80
61C0
C0C0
C040
C060
C040
C0C0
61C0
7F80
1F00
ENDCHAR
STARTCHAR 1EDC
ENCODING 7900
SWIDTH 822 0
DWIDTH 16 0
BBX 14 18 1 0
BITMAP
0C00
0604
0304
0004
0FEC
1FF0
3038
6018
C00C
C00C
C00C
C00C
C00C
C00C
601C
3038
1FF0
0FC0
ENDCHAR
STARTCHAR 1EDD
ENCODING 7901
SWIDTH 617 0
DWIDTH 12 0
BBX 11 15 1 0
BITMAP
3800
0C40
0640
0040
1FC0
7F80
61C0
C0C0
C040
C060
C040
C0C0
61C0
7F80
1F00
ENDCHAR
STARTCHAR 1EDE
ENCODING 7902
SWIDTH 822 0
DWIDTH 16 0
BBX 14 19 1 0
BITMAP
0780
0080
008C
0184
0004
0FEC
1FF0
3038
6018
C00C
C00C
C00C
C00C
C00C
C00C
601C
3038
1FF0
0FC0
ENDCHAR
STARTCHAR 1EDF
ENCODING 7903
SWIDTH 617 0
DWIDTH 12 0
BBX 11 16 1 0
BITMAP
1E00
0200
0240
0440
0040
1FC0
7F80
61C0
C0C0
C040
C060
C040
C0C0
61C0
7F80
1F00
ENDCHAR
STARTCHAR 1EE0
ENCODING 7904
SWIDTH 822 0
DWIDTH 16 0
BBX 14 18 1 0
BITMAP
0400
0B44
09C4
0004
0FEC
1FF0
3038
6018
C00C
C00C
C00C
C00C
C00C
C00C
601C
3038
1FF0
0FC0
ENDCHAR
STARTCHAR 1EE1
ENCODING 7905
SWIDTH 617 0
DWIDTH 12 0
BBX 11 15 1 0
BITMAP
1000
3D00
2740
0040
1FC0
7F80
61C0
C0C0
C040
C060
C040
C0C0
61C0
7F80
1F00
ENDCHAR
STARTCHAR 1EE2
ENCODING 7906
SWIDTH 822 0
DWIDTH 16 0
BBX 14 21 1 -4
BITMAP
0004
0004
0004
0FEC
1FF8
3038
6018
C00C
C00C
C00C
C00C
C00C
C00C
601C
3038
1FF0
0FC0
0000
0000
0300
0300
ENDCHAR
STARTCHAR 1EE3
ENCODING 7907
SWIDTH 617 0
DWIDTH 12 0
BBX 11 18 1 -4
BITMAP
0040
0040
0040
1FC0
7F80
61C0
C0C0
C040
C060
C040
C0C0
61C0
7F80
1F00
0000
0000
0C00
0C00
ENDCHAR
STARTCHAR 1EE4
ENCODING 7908
SWIDTH 771 0
DWIDTH 15 0
BBX 11 18 2 -4
BITMAP
C020
C020
C020
C020
C020
C020
C020
C020
C020
C060
C060
60E0
7FC0
1F00
0000
0000
0600
0600
ENDCHAR
STARTCHAR 1EE5
ENCODING 7909
SWIDTH 668 0
DWIDTH 13 0
BBX 9 15 2 -4
BITMAP
C180
C180
C180
C180
C180
C180
C180
C180
C180
7E80
3C80
0000
0000
0800
0800
ENDCHAR
STARTCHAR 1EE6
ENCODING 7910
SWIDTH 771 0
DWIDTH 15 0
BBX 11 19 2 0
BITMAP
0E00
0300
0300
0200
0000
C020
C020
C020
C020
C020
C020
C020
C020
C020
C060
C060
60E0
7FC0
1F00
ENDCHAR
STARTCHAR 1EE7
ENCODING 7911
SWIDTH 668 0
DWIDTH 13 0
BBX 9 16 2 0
BITMAP
1C00
0400
0400
0000
0000
C180
C180
C180
C180
C180
C180
C180
C180
C180
7E80
3C80
ENDCHAR
STARTCHAR 1EE8
ENCODING 7912
SWIDTH 822 0
DWIDTH 16 0
BBX 13 18 2 0
BITMAP
0180
0308
0608
0008
C038
C020
C020
C020
C020
C020
C020
C020
C020
C060
C060
60E0
7FC0
1F00
ENDCHAR
STARTCHAR 1EE9
ENCODING 7913
SWIDTH 668 0
DWIDTH 13 0
BBX 11 15 2 0
BITMAP
0600
0C60
1820
0020
C1E0
C180
C180
C180
C180
C180
C180
C180
C180
7E80
3C80
ENDCHAR
STARTCHAR 1EEA
ENCODING 7914
SWIDTH 822 0
DWIDTH 16 0
BBX 13 18 2 0
BITMAP
3800
1C08
0608
0008
C038
C020
C020
C020
C020
C020
C020
C020
C020
C060
C060
60E0
7FC0
1F00
ENDCHAR
STARTCHAR 1EEB
ENCODING 7915
SWIDTH 668 0
DWIDTH 13 0
BBX 11 15 2 0
BITMAP
3000
1860
0C20
0020
C1E0
C180
C180
C180
C180
C180
C180
C180
C180
7E80
3C80
ENDCHAR
STARTCHAR 1EEC
ENCODING 7916
SWIDTH 822 0
DWIDTH 16 0
BBX 13 19 2 0
BITMAP
0E00
0300
0308
0208
0008
C038
C020
C020
C020
C020
C020
C020
C020
C020
C060
C060
60E0
7FC0
1F00
ENDCHAR
STARTCHAR 1EED
ENCODING 7917
SWIDTH 668 0
DWIDTH 13 0
BBX 11 16 2 0
BITMAP
1C00
0400
0420
0020
0020
C1E0
C180
C180
C180
C180
C180
C180
C180
C180
7E80
3C80
ENDCHAR
STARTCHAR 1EEE
ENCODING 7918
SWIDTH 822 0
DWIDTH 16 0
BBX 13 18 2 0
BITMAP
1000
1C88
3308
0008
C038
C020
C020
C020
C020
C020
C020
C020
C020
C060
C060
60E0
7FC0
1F00
ENDCHAR
STARTCHAR 1EEF
ENCODING 7919
SWIDTH 668 0
DWIDTH 13 0
BBX 11 15 2 0
BITMAP
2000
7B00
4620
0020
C1E0
C180
C180
C180
C180
C180
C180
C180
C180
7E80
3C80
ENDCHAR
STARTCHAR 1EF0
ENCODING 7920
SWIDTH 822 0
DWIDTH 16 0
BBX 13 21 2 -4
BITMAP
0008
0008
0008
C038
C020
C020
C020
C020
C020
C020
C020
C020
C060
C060
60E0
7FC0
1F00
0000
0000
0600
0600
ENDCHAR
STARTCHAR 1EF1
ENCODING 7921
SWIDTH 668 0
DWIDTH 13 0
BBX 11 18 2 -4
BITMAP
0060
0020
0020
C1E0
C180
C180
C180
C180
C180
C180
C180
C180
7E80
3C80
0000
0000
0800
0800
ENDCHAR
STARTCHAR 1EF2
ENCODING 7922
SWIDTH 668 0
DWIDTH 13 0
BBX 12 18 0 0
BITMAP
1800
0C00
0600
0000
C030
6030
6060
3060
18C0
1980
0D80
0F00
0700
0600
0600
0600
0600
0600
ENDCHAR
STARTCHAR 1EF3
ENCODING 7923
SWIDTH 565 0
DWIDTH 11 0
BBX 11 19 0 -4
BITMAP
3800
0C00
0600
0000
C060
60C0
60C0
6080
3180
3180
1B00
1B00
1A00
0E00
0E00
0C00
0C00
F800
F000
ENDCHAR
STARTCHAR 1EF4
ENCODING 7924
SWIDTH 668 0
DWIDTH 13 0
BBX 12 18 0 -4
BITMAP
C030
6030
6060
3060
18C0
1980
0D80
0F00
0700
0600
0600
0600
0600
0600
0000
0000
0600
0600
ENDCHAR
STARTCHAR 1EF5
ENCODING 7925
SWIDTH 565 0
DWIDTH 11 0
BBX 11 15 0 -4
BITMAP
C060
60C0
60C0
6080
3180
3180
1B00
1B00
1A00
0E00
0E00
0C00
0C00
F980
F180
ENDCHAR
STARTCHAR 1EF6
ENCODING 7926
SWIDTH 668 0
DWIDTH 13 0
BBX 12 19 0 0
BITMAP
0700
0100
0100
0300
0000
C030
6030
6060
3060
18C0
1980
0D80
0F00
0700
0600
0600
0600
0600
0600
ENDCHAR
STARTCHAR 1EF7
ENCODING 7927
SWIDTH 565 0
DWIDTH 11 0
BBX 11 20 0 -4
BITMAP
1E00
0200
0200
0400
0000
C060
60C0
60C0
6080
3180
3180
1B00
1B00
1A00
0E00
0E00
0C00
0C00
F800
F000
ENDCHAR
STARTCHAR 1EF8
ENCODING 7928
SWIDTH 668 0
DWIDTH 13 0
BBX 12 18 0 0
BITMAP
0800
1E80
1180
0000
C030
6030
6060
3060
18C0
1980
0D80
0F00
0700
0600
0600
0600
0600
0600
ENDCHAR
STARTCHAR 1EF9
ENCODING 7929
SWIDTH 565 0
DWIDTH 11 0
BBX 11 19 0 -4
BITMAP
1000
2D00
2700
0000
C060
60C0
60C0
6080
3180
3180
1B00
1B00
1A00
0E00
0E00
0C00
0C00
F800
F000
ENDCHAR
STARTCHAR 2007
ENCODING 8199
SWIDTH 720 0
DWIDTH 14 0
BBX 0 0 0 0
BITMAP
ENDCHAR
STARTCHAR 2008
ENCODING 8200
SWIDTH 205 0
DWIDTH 4 0
BBX 0 0 0 0
BITMAP
ENDCHAR
STARTCHAR 2009
ENCODING 8201
SWIDTH 154 0
DWIDTH 3 0
BBX 0 0 0 0
BITMAP
ENDCHAR
STARTCHAR 200A
ENCODING 8202
SWIDTH 102 0
DWIDTH 2 0
BBX 0 0 0 0
BITMAP
ENDCHAR
STARTCHAR 200B
ENCODING 8203
SWIDTH 0 0
DWIDTH 0 0
BBX 0 0 0 0
BITMAP
ENDCHAR
STARTCHAR 2010
ENCODING 8208
SWIDTH 360 0
DWIDTH 7 0
BBX 5 2 1 4
BITMAP
F8
F8
ENDCHAR
STARTCHAR 2012
ENCODING 8210
SWIDTH 720 0
DWIDTH 14 0
BBX 12 1 1 6
BITMAP
FFF0
ENDCHAR
STARTCHAR 2013
ENCODING 8211
SWIDTH 514 0
DWIDTH 10 0
BBX 10 1 0 5
BITMAP
FFC0
ENDCHAR
STARTCHAR 2014
ENCODING 8212
SWIDTH 977 0
DWIDTH 19 0
BBX 19 1 0 5
BITMAP
FFFFE0
ENDCHAR
STARTCHAR 2015
ENCODING 8213
SWIDTH 977 0
DWIDTH 19 0
BBX 19 1 0 5
BITMAP
FFFFE0
ENDCHAR
STARTCHAR 2018
ENCODING 8216
SWIDTH 205 0
DWIDTH 4 0
BBX 2 5 1 10
BITMAP
40
40
C0
C0
C0
ENDCHAR
STARTCHAR 2019
ENCODING 8217
SWIDTH 205 0
DWIDTH 4 0
BBX 2 5 1 10
BITMAP
C0
C0
40
C0
C0
ENDCHAR
STARTCHAR 201A
ENCODING 8218
SWIDTH 205 0
DWIDTH 4 0
BBX 2 5 1 -3
BITMAP
C0
C0
40
C0
80
ENDCHAR
STARTCHAR 201C
ENCODING 8220
SWIDTH 411 0
DWIDTH 8 0
BBX 6 5 1 10
BITMAP
44
4C
C8
CC
CC
ENDCHAR
STARTCHAR 201D
ENCODING 8221
SWIDTH 411 0
DWIDTH 8 0
BBX 6 5 1 10
BITMAP
CC
CC
4C
CC
C8
ENDCHAR
STARTCHAR 201E
ENCODING 8222
SWIDTH 411 0
DWIDTH 8 0
BBX 6 5 1 -3
BITMAP
CC
CC
4C
C8
88
ENDCHAR
STARTCHAR 2020
ENCODING 8224
SWIDTH 565 0
DWIDTH 11 0
BBX 9 18 1 -4
BITMAP
1800
1800
1800
1800
1800
FF80
FF80
1800
1800
1800
1800
1800
1800
1800
1800
1800
1800
1800
ENDCHAR
STARTCHAR 2021
ENCODING 8225
SWIDTH 565 0
DWIDTH 11 0
BBX 9 18 1 -4
BITMAP
1800
1800
1800
1800
1800
FF80
FF80
1800
1800
1800
1800
FF80
FF80
1800
1800
1800
1800
1800
ENDCHAR
STARTCHAR 2022
ENCODING 8226
SWIDTH 308 0
DWIDTH 6 0
BBX 4 4 1 3
BITMAP
60
F0
F0
20
ENDCHAR
STARTCHAR 2026
ENCODING 8230
SWIDTH 668 0
DWIDTH 13 0
BBX 12 3 1 0
BITMAP
4420
CE70
C660
ENDCHAR
STARTCHAR 2030
ENCODING 8240
SWIDTH 1234 0
DWIDTH 24 0
BBX 22 14 1 0
BITMAP
781000
CC3000
846000
844000
84C000
CD8000
790000
033870
064488
04C68C
0CC784
18C68C
104488
303870
ENDCHAR
STARTCHAR 2032
ENCODING 8242
SWIDTH 205 0
DWIDTH 4 0
BBX 2 5 1 9
BITMAP
C0
C0
C0
C0
C0
ENDCHAR
STARTCHAR 2033
ENCODING 8243
SWIDTH 411 0
DWIDTH 8 0
BBX 5 5 1 9
BITMAP
C8
C8
C8
C8
C8
ENDCHAR
STARTCHAR 2039
ENCODING 8249
SWIDTH 308 0
DWIDTH 6 0
BBX 4 7 1 2
BITMAP
30
20
60
C0
C0
60
30
ENDCHAR
STARTCHAR 203A
ENCODING 8250
SWIDTH 308 0
DWIDTH 6 0
BBX 4 7 1 2
BITMAP
C0
40
60
30
30
60
C0
ENDCHAR
STARTCHAR 2044
ENCODING 8260
SWIDTH 154 0
DWIDTH 3 0
BBX 10 14 -3 0
BITMAP
00C0
0080
0100
0300
0200
0400
0C00
0800
1000
3000
2000
4000
C000
8000
ENDCHAR
STARTCHAR 2052
ENCODING 8274
SWIDTH 514 0
DWIDTH 10 0
BBX 7 14 2 0
BITMAP
C4
CC
0C
08
18
10
10
30
20
20
60
40
46
C6
ENDCHAR
STARTCHAR 2070
ENCODING 8304
SWIDTH 411 0
DWIDTH 8 0
BBX 7 8 1 7
BITMAP
78
CC
86
86
86
86
C4
78
ENDCHAR
STARTCHAR 2074
ENCODING 8308
SWIDTH 411 0
DWIDTH 8 0
BBX 8 8 0 7
BITMAP
08
18
30
24
44
FF
04
04
ENDCHAR
STARTCHAR 2075
ENCODING 8309
SWIDTH 411 0
DWIDTH 8 0
BBX 6 9 1 6
BITMAP
7C
40
C0
C0
F8
04
04
8C
F8
ENDCHAR
STARTCHAR 2076
ENCODING 8310
SWIDTH 411 0
DWIDTH 8 0
BBX 7 9 1 6
BITMAP
3C
60
C0
80
BC
C6
86
C4
7C
ENDCHAR
STARTCHAR 2077
ENCODING 8311
SWIDTH 411 0
DWIDTH 8 0
BBX 7 8 1 7
BITMAP
FE
84
8C
08
18
10
30
20
ENDCHAR
STARTCHAR 2078
ENCODING 8312
SWIDTH 411 0
DWIDTH 8 0
BBX 7 9 1 6
BITMAP
78
C4
86
C4
FC
86
86
86
7C
ENDCHAR
STARTCHAR 2079
ENCODING 8313
SWIDTH 411 0
DWIDTH 8 0
BBX 7 8 1 7
BITMAP
78
8C
84
86
7E
04
0C
F8
ENDCHAR
STARTCHAR 2080
ENCODING 8320
SWIDTH 411 0
DWIDTH 8 0
BBX 7 8 1 -2
BITMAP
78
C4
86
86
86
86
CC
78
ENDCHAR
STARTCHAR 2081
ENCODING 8321
SWIDTH 411 0
DWIDTH 8 0
BBX 5 8 2 -2
BITMAP
E0
20
20
20
20
20
20
F8
ENDCHAR
STARTCHAR 2082
ENCODING 8322
SWIDTH 411 0
DWIDTH 8 0
BBX 6 8 1 -2
BITMAP
F8
8C
04
0C
18
30
40
FC
ENDCHAR
STARTCHAR 2083
ENCODING 8323
SWIDTH 411 0
DWIDTH 8 0
BBX 6 8 1 -2
BITMAP
FC
08
10
38
04
04
8C
F8
ENDCHAR
STARTCHAR 2084
ENCODING 8324
SWIDTH 411 0
DWIDTH 8 0
BBX 8 8 0 -2
BITMAP
08
18
30
24
44
FF
04
04
ENDCHAR
STARTCHAR 2085
ENCODING 8325
SWIDTH 411 0
DWIDTH 8 0
BBX 6 8 1 -2
BITMAP
7C
40
C0
F8
04
04
8C
F8
ENDCHAR
STARTCHAR 2086
ENCODING 8326
SWIDTH 411 0
DWIDTH 8 0
BBX 7 8 1 -2
BITMAP
3C
C0
80
BC
C6
86
C4
7C
ENDCHAR
STARTCHAR 2087
ENCODING 8327
SWIDTH 411 0
DWIDTH 8 0
BBX 7 8 1 -2
BITMAP
FE
84
0C
08
18
10
30
20
ENDCHAR
STARTCHAR 2088
ENCODING 8328
SWIDTH 411 0
DWIDTH 8 0
BBX 7 8 1 -2
BITMAP
78
84
84
78
86
86
86
7C
ENDCHAR
STARTCHAR 2089
ENCODING 8329
SWIDTH 411 0
DWIDTH 8 0
BBX 7 8 1 -2
BITMAP
78
8C
84
8E
7E
04
0C
F8
ENDCHAR
STARTCHAR 20A1
ENCODING 8353
SWIDTH 720 0
DWIDTH 14 0
BBX 12 18 1 -2
BITMAP
0120
0120
07C0
1FF0
3270
62C0
C680
C480
C480
C580
C900
C900
6900
7B30
3FF0
1FC0
1200
1600
ENDCHAR
STARTCHAR 20A3
ENCODING 8355
SWIDTH 668 0
DWIDTH 13 0
BBX 11 14 1 0
BITMAP
3FE0
3FE0
3000
3000
3000
3000
3000
3FC0
3FC0
3000
3000
FF00
3000
3000
ENDCHAR
STARTCHAR 20A4
ENCODING 8356
SWIDTH 668 0
DWIDTH 13 0
BBX 11 14 1 0
BITMAP
07C0
1FE0
3820
3000
3000
FF80
3000
3000
FF80
3000
3000
3000
FFE0
FFE0
ENDCHAR
STARTCHAR 20A6
ENCODING 8358
SWIDTH 874 0
DWIDTH 17 0
BBX 16 14 1 0
BITMAP
3018
3018
3818
3C18
3E18
FFFF
3318
3198
FFFF
30F8
3078
3038
3018
3018
ENDCHAR
STARTCHAR 20A7
ENCODING 8359
SWIDTH 1645 0
DWIDTH 32 0
BBX 29 14 2 0
BITMAP
FF000000
FFC30000
C0E30000
C06FE1F0
C06FE7F8
C0630600
C0630600
C0C30780
FF8303F0
FE030038
C0030018
C0030418
C001E7F8
C001E3F0
ENDCHAR
STARTCHAR 20A9
ENCODING 8361
SWIDTH 1182 0
DWIDTH 23 0
BBX 22 14 1 0
BITMAP
C03018
C07018
607010
60D830
60D830
FFFFFC
318C60
318C60
FFFFFC
1B06C0
1B06C0
0F0380
0E0380
0E0380
ENDCHAR
STARTCHAR 20AB
ENCODING 8363
SWIDTH 668 0
DWIDTH 13 0
BBX 12 17 1 -2
BITMAP
0040
0040
07F0
0040
1E40
7F40
61C0
C0C0
C040
C040
C040
C0C0
61C0
7F40
1E40
0000
FFE0
ENDCHAR
STARTCHAR 20AC
ENCODING 8364
SWIDTH 822 0
DWIDTH 16 0
BBX 14 14 1 0
BITMAP
03F0
0FF8
1C0C
3800
3000
FFC0
3000
3000
FFC0
3000
3800
1C0C
0FF8
03F0
ENDCHAR
STARTCHAR 20AD
ENCODING 8365
SWIDTH 668 0
DWIDTH 13 0
BBX 11 14 1 0
BITMAP
2060
20C0
21C0
2380
2700
2E00
FFC0
2C00
2600
2300
2180
21C0
20E0
2060
ENDCHAR
STARTCHAR 20AE
ENCODING 8366
SWIDTH 668 0
DWIDTH 13 0
BBX 11 14 1 0
BITMAP
FFE0
FFE0
0600
0600
06C0
0700
0E00
3EC0
6700
0E00
3600
4600
0600
0600
ENDCHAR
STARTCHAR 20B1
ENCODING 8369
SWIDTH 822 0
DWIDTH 16 0
BBX 15 14 1 0
BITMAP
3FC0
3FE0
3030
FFFE
3018
3018
FFFE
3070
3FE0
3F80
3000
3000
3000
3000
ENDCHAR
STARTCHAR 20B2
ENCODING 8370
SWIDTH 771 0
DWIDTH 15 0
BBX 12 18 1 -2
BITMAP
0200
0200
0FC0
3FF0
7230
6200
C200
C200
C200
C230
C230
C230
6230
7230
3FF0
0FC0
0200
0200
ENDCHAR
STARTCHAR 20B4
ENCODING 8372
SWIDTH 822 0
DWIDTH 16 0
BBX 12 14 2 0
BITMAP
1F80
3FC0
0060
0060
0060
FFF0
0000
0000
FFF0
6000
6000
6020
3FE0
1F80
ENDCHAR
STARTCHAR 20B5
ENCODING 8373
SWIDTH 720 0
DWIDTH 14 0
BBX 12 18 1 -2
BITMAP
0200
0200
0FC0
3FF0
7230
6200
C200
C200
C200
C200
C200
C200
6200
7230
3FF0
0FC0
0200
0200
ENDCHAR
STARTCHAR 20B8
ENCODING 8376
SWIDTH 720 0
DWIDTH 14 0
BBX 12 14 1 0
BITMAP
FFF0
0000
0000
FFF0
0600
0600
0600
0600
0600
0600
0600
0600
0600
0600
ENDCHAR
STARTCHAR 20B9
ENCODING 8377
SWIDTH 720 0
DWIDTH 14 0
BBX 12 14 1 0
BITMAP
FFF0
0380
01C0
FFF0
00C0
00C0
01C0
7F80
7E00
0700
0300
0180
0180
00C0
ENDCHAR
STARTCHAR 20BA
ENCODING 8378
SWIDTH 720 0
DWIDTH 14 0
BBX 12 14 1 0
BITMAP
3000
3080
3300
3C00
3180
F700
BC00
3030
F030
3030
3060
30E0
3FC0
3F00
ENDCHAR
STARTCHAR 20BC
ENCODING 8380
SWIDTH 925 0
DWIDTH 18 0
BBX 14 16 2 0
BITMAP
0300
0300
0FC0
1FE0
3330
6318
4318
C30C
C30C
C30C
C30C
C30C
C30C
C30C
C00C
C00C
ENDCHAR
STARTCHAR 20BD
ENCODING 8381
SWIDTH 771 0
DWIDTH 15 0
BBX 13 14 1 0
BITMAP
3FC0
3FE0
3030
3030
3018
3018
3030
3070
3FE0
3F00
3000
FF00
3000
3000
ENDCHAR
STARTCHAR 2113
ENCODING 8467
SWIDTH 462 0
DWIDTH 9 0
BBX 7 14 1 0
BITMAP
0E
12
32
22
22
24
2C
78
70
60
C0
42
66
38
ENDCHAR
STARTCHAR 2116
ENCODING 8470
SWIDTH 1182 0
DWIDTH 23 0
BBX 20 14 2 0
BITMAP
C031E0
E03330
F03210
F03210
D83230
CC31E0
CE3000
C63000
C333F0
C1B000
C1F000
C0F000
C07000
C03000
ENDCHAR
STARTCHAR 2122
ENCODING 8482
SWIDTH 1028 0
DWIDTH 20 0
BBX 18 8 0 6
BITMAP
FE40C0
1060C0
1061C0
105140
105A40
104E40
104440
104040
ENDCHAR
STARTCHAR 2126
ENCODING 8486
SWIDTH 874 0
DWIDTH 17 0
BBX 17 14 0 0
BITMAP
03F000
0FF800
1C0C00
380600
300700
300300
200300
200300
300300
300600
380600
180C00
FE1F80
FE1F80
ENDCHAR
STARTCHAR 212A
ENCODING 8490
SWIDTH 720 0
DWIDTH 14 0
BBX 12 14 2 0
BITMAP
C060
C0C0
C180
C300
C600
CE00
DC00
FE00
F700
E300
C180
C0C0
C0E0
C070
ENDCHAR
STARTCHAR 212B
ENCODING 8491
SWIDTH 720 0
DWIDTH 14 0
BBX 14 20 0 0
BITMAP
0300
0480
0480
0480
0300
0000
0300
0780
0780
04C0
0CC0
0C40
1860
1860
3030
3FF0
3FF8
6018
600C
C00C
ENDCHAR
STARTCHAR 212E
ENCODING 8494
SWIDTH 874 0
DWIDTH 17 0
BBX 15 14 1 0
BITMAP
07C0
1830
2008
600C
E00E
E00E
E00E
FFF0
E000
E000
6000
2008
1010
0FE0
ENDCHAR
STARTCHAR 2153
ENCODING 8531
SWIDTH 1028 0
DWIDTH 20 0
BBX 17 14 2 0
BITMAP
E00800
201000
203000
202000
204000
20DF80
208100
F90300
030600
020700
040180
0C0080
081180
101F00
ENDCHAR
STARTCHAR 2154
ENCODING 8532
SWIDTH 1028 0
DWIDTH 20 0
BBX 18 14 1 0
BITMAP
780400
8C0800
041800
0C1000
182000
306FC0
604080
FC8180
018300
010380
0200C0
060040
0408C0
080F80
ENDCHAR
STARTCHAR 215B
ENCODING 8539
SWIDTH 1028 0
DWIDTH 20 0
BBX 18 14 2 0
BITMAP
E00800
201000
203000
202000
204000
20CF00
209980
F91080
031080
020F00
041080
0C30C0
083080
101F00
ENDCHAR
STARTCHAR 215C
ENCODING 8540
SWIDTH 1028 0
DWIDTH 20 0
BBX 19 14 1 0
BITMAP
FC0400
080800
101800
381000
042000
046780
8C48C0
F88840
0188C0
010780
020840
061860
041840
080F80
ENDCHAR
STARTCHAR 215D
ENCODING 8541
SWIDTH 1028 0
DWIDTH 20 0
BBX 19 14 1 0
BITMAP
7C0400
400800
C01800
F81000
042000
046780
8C48C0
F88840
0188C0
010780
020840
061860
041840
080F80
ENDCHAR
STARTCHAR 215E
ENCODING 8542
SWIDTH 1028 0
DWIDTH 20 0
BBX 19 14 1 0
BITMAP
FE0400
840800
8C1800
081000
182000
106000
304780
208840
018840
010780
020840
061860
041840
080F80
ENDCHAR
STARTCHAR 2190
ENCODING 8592
SWIDTH 617 0
DWIDTH 12 0
BBX 8 8 2 1
BITMAP
30
60
40
FF
C0
60
20
30
ENDCHAR
STARTCHAR 2191
ENCODING 8593
SWIDTH 617 0
DWIDTH 12 0
BBX 8 8 2 2
BITMAP
38
7E
DB
19
18
18
18
18
ENDCHAR
STARTCHAR 2192
ENCODING 8594
SWIDTH 617 0
DWIDTH 12 0
BBX 9 8 1 1
BITMAP
0600
0200
0300
FF80
0300
0300
0600
0400
ENDCHAR
STARTCHAR 2193
ENCODING 8595
SWIDTH 617 0
DWIDTH 12 0
BBX 8 9 2 1
BITMAP
18
18
18
18
18
99
FF
3C
18
ENDCHAR
STARTCHAR 2194
ENCODING 8596
SWIDTH 720 0
DWIDTH 14 0
BBX 12 8 1 1
BITMAP
30C0
6060
6020
FFF0
C030
6060
3040
10C0
ENDCHAR
STARTCHAR 2195
ENCODING 8597
SWIDTH 617 0
DWIDTH 12 0
BBX 8 12 2 1
BITMAP
10
3C
FE
9B
18
18
18
18
9B
FE
3C
18
ENDCHAR
STARTCHAR 2196
ENCODING 8598
SWIDTH 617 0
DWIDTH 12 0
BBX 7 8 2 2
BITMAP
04
7E
60
70
D8
CC
86
02
ENDCHAR
STARTCHAR 2197
ENCODING 8599
SWIDTH 617 0
DWIDTH 12 0
BBX 7 8 3 2
BITMAP
40
FC
0C
1C
34
66
C4
80
ENDCHAR
STARTCHAR 2198
ENCODING 8600
SWIDTH 617 0
DWIDTH 12 0
BBX 7 8 3 1
BITMAP
80
C4
66
34
1C
0C
FC
40
ENDCHAR
STARTCHAR 2199
ENCODING 8601
SWIDTH 617 0
DWIDTH 12 0
BBX 7 8 2 1
BITMAP
02
86
CC
D8
70
60
7E
04
ENDCHAR
STARTCHAR 2202
ENCODING 8706
SWIDTH 720 0
DWIDTH 14 0
BBX 11 14 1 0
BITMAP
7E00
7F80
01C0
00C0
0060
0C60
3F60
61E0
60E0
C060
C060
60C0
7F80
1F00
ENDCHAR
STARTCHAR 2205
ENCODING 8709
SWIDTH 565 0
DWIDTH 11 0
BBX 9 9 1 2
BITMAP
3E80
6300
4380
C480
C880
5180
6300
FE00
8000
ENDCHAR
STARTCHAR 2206
ENCODING 8710
SWIDTH 720 0
DWIDTH 14 0
BBX 14 14 0 0
BITMAP
0300
0780
0780
04C0
0CC0
0C40
1860
1860
3030
3030
2018
6018
7FFC
FFFC
ENDCHAR
STARTCHAR 220F
ENCODING 8719
SWIDTH 822 0
DWIDTH 16 0
BBX 12 18 2 -4
BITMAP
FFF0
FFF0
C030
C030
C030
C030
C030
C030
C030
C030
C030
C030
C030
C030
C030
C030
C030
C030
ENDCHAR
STARTCHAR 2211
ENCODING 8721
SWIDTH 668 0
DWIDTH 13 0
BBX 11 18 1 -4
BITMAP
FFE0
FFE0
6000
3000
1800
1C00
0E00
0600
0300
0300
0600
0E00
1C00
3800
3000
6000
FFE0
FFE0
ENDCHAR
STARTCHAR 2212
ENCODING 8722
SWIDTH 565 0
DWIDTH 11 0
BBX 9 2 1 6
BITMAP
FF80
FF80
ENDCHAR
STARTCHAR 2215
ENCODING 8725
SWIDTH 360 0
DWIDTH 7 0
BBX 7 18 0 -2
BITMAP
02
06
06
04
0C
0C
18
18
10
30
30
20
60
60
40
C0
C0
80
ENDCHAR
STARTCHAR 2219
ENCODING 8729
SWIDTH 308 0
DWIDTH 6 0
BBX 3 3 1 5
BITMAP
60
E0
40
ENDCHAR
STARTCHAR 221A
ENCODING 8730
SWIDTH 822 0
DWIDTH 16 0
BBX 14 19 1 -4
BITMAP
0004
000C
000C
0008
0018
0018
0010
F030
F830
1830
0860
0C60
0C60
04C0
06C0
06C0
0380
0380
0380
ENDCHAR
STARTCHAR 221E
ENCODING 8734
SWIDTH 925 0
DWIDTH 18 0
BBX 16 7 1 3
BITMAP
7E7E
C3C3
8183
8181
C3C3
6E76
3C3C
ENDCHAR
STARTCHAR 222B
ENCODING 8747
SWIDTH 411 0
DWIDTH 8 0
BBX 8 19 0 -4
BITMAP
0F
1F
18
18
18
18
18
18
18
18
18
18
18
18
18
18
18
F0
E0
ENDCHAR
STARTCHAR 2248
ENCODING 8776
SWIDTH 565 0
DWIDTH 11 0
BBX 9 8 1 3
BITMAP
7080
D880
8F80
0000
0000
7880
CD80
8700
ENDCHAR
STARTCHAR 2260
ENCODING 8800
SWIDTH 565 0
DWIDTH 11 0
BBX 9 10 1 2
BITMAP
0300
0200
FF80
FF80
0C00
0800
FF80
FF80
3000
6000
ENDCHAR
STARTCHAR 2264
ENCODING 8804
SWIDTH 565 0
DWIDTH 11 0
BBX 9 12 1 0
BITMAP
0080
0780
1E00
F000
E000
7C00
0F00
0180
0000
0000
FF80
FF80
ENDCHAR
STARTCHAR 2265
ENCODING 8805
SWIDTH 565 0
DWIDTH 11 0
BBX 9 12 1 0
BITMAP
C000
F000
1E00
0780
0380
0F00
7800
E000
0000
0000
FF80
FF80
ENDCHAR
STARTCHAR 25A0
ENCODING 9632
SWIDTH 617 0
DWIDTH 12 0
BBX 8 8 2 1
BITMAP
FF
FF
FF
FF
FF
FF
FF
FF
ENDCHAR
STARTCHAR 25A1
ENCODING 9633
SWIDTH 617 0
DWIDTH 12 0
BBX 8 8 2 1
BITMAP
FF
81
81
81
81
81
81
FF
ENDCHAR
STARTCHAR 25B2
ENCODING 9650
SWIDTH 617 0
DWIDTH 12 0
BBX 8 8 2 1
BITMAP
10
18
38
3C
7C
7E
FE
FF
ENDCHAR
STARTCHAR 25B3
ENCODING 9651
SWIDTH 617 0
DWIDTH 12 0
BBX 8 8 2 1
BITMAP
10
18
28
24
44
42
82
FF
ENDCHAR
STARTCHAR 25B6
ENCODING 9654
SWIDTH 617 0
DWIDTH 12 0
BBX 8 8 2 1
BITMAP
C0
F0
FC
FF
FE
F8
E0
80
ENDCHAR
STARTCHAR 25B7
ENCODING 9655
SWIDTH 617 0
DWIDTH 12 0
BBX 8 8 2 1
BITMAP
C0
B0
8C
83
86
98
E0
80
ENDCHAR
STARTCHAR 25BC
ENCODING 9660
SWIDTH 617 0
DWIDTH 12 0
BBX 8 8 2 1
BITMAP
FF
7E
7E
3C
3C
18
18
10
ENDCHAR
STARTCHAR 25BD
ENCODING 9661
SWIDTH 617 0
DWIDTH 12 0
BBX 8 8 2 1
BITMAP
FF
82
42
44
24
28
18
10
ENDCHAR
STARTCHAR 25C0
ENCODING 9664
SWIDTH 617 0
DWIDTH 12 0
BBX 7 8 2 1
BITMAP
02
0E
3E
FE
FE
3E
0E
02
ENDCHAR
STARTCHAR 25C1
ENCODING 9665
SWIDTH 617 0
DWIDTH 12 0
BBX 7 8 2 1
BITMAP
02
0E
32
C2
C2
32
0E
02
ENDCHAR
STARTCHAR 25C6
ENCODING 9670
SWIDTH 617 0
DWIDTH 12 0
BBX 11 11 0 0
BITMAP
0400
0E00
1F00
3F80
7FC0
FFE0
7FC0
3F80
1F00
0E00
0400
ENDCHAR
STARTCHAR 25C7
ENCODING 9671
SWIDTH 617 0
DWIDTH 12 0
BBX 11 11 0 0
BITMAP
0400
0E00
1900
3080
6040
C020
6040
3080
1900
0E00
0400
ENDCHAR
STARTCHAR 25CA
ENCODING 9674
SWIDTH 514 0
DWIDTH 10 0
BBX 8 12 1 0
BITMAP
10
18
2C
64
42
83
C2
46
24
38
18
10
ENDCHAR
STARTCHAR 27E8
ENCODING 10216
SWIDTH 308 0
DWIDTH 6 0
BBX 4 19 1 -4
BITMAP
10
30
30
20
60
60
40
C0
C0
C0
C0
C0
40
60
60
20
30
30
10
ENDCHAR
STARTCHAR 27E9
ENCODING 10217
SWIDTH 308 0
DWIDTH 6 0
BBX 5 19 1 -4
BITMAP
C0
C0
40
60
60
20
30
30
10
18
10
30
30
20
60
60
40
C0
C0
ENDCHAR
STARTCHAR A78B
ENCODING 42891
SWIDTH 257 0
DWIDTH 5 0
BBX 1 8 2 6
BITMAP
80
80
80
80
80
80
80
80
ENDCHAR
STARTCHAR A78C
ENCODING 42892
SWIDTH 257 0
DWIDTH 5 0
BBX 1 7 2 6
BITMAP
80
80
80
80
80
80
80
ENDCHAR
STARTCHAR FB01
ENCODING 64257
SWIDTH 720 0
DWIDTH 14 0
BBX 12 15 0 0
BITMAP
1E30
3E30
3000
3000
FE30
FE30
3030
3030
3030
3030
3030
3030
3030
3030
3030
ENDCHAR
STARTCHAR FB02
ENCODING 64258
SWIDTH 617 0
DWIDTH 12 0
BBX 10 15 0 0
BITMAP
1E40
3E40
3040
3040
FE40
FE40
3040
3040
3040
3040
3040
3040
3040
3040
3040
ENDCHAR
ENDFONT
